<?xml version="1.0" encoding="UTF-8" standalone="no"?>
<svg
   data-name="Layer 1"
   width="769.72534"
   height="332.31815"
   viewBox="0 0 769.72534 332.31814"
   version="1.1"
   id="svg94"
   sodipodi:docname="bg1.svg"
   xml:space="preserve"
   inkscape:version="1.2.2 (1:1.2.2+202305151914+b0a8486541)"
   xmlns:inkscape="http://www.inkscape.org/namespaces/inkscape"
   xmlns:sodipodi="http://sodipodi.sourceforge.net/DTD/sodipodi-0.dtd"
   xmlns="http://www.w3.org/2000/svg"
   xmlns:svg="http://www.w3.org/2000/svg"><defs
     id="defs98">









































</defs><sodipodi:namedview
     id="namedview96"
     pagecolor="#ffffff"
     bordercolor="#666666"
     borderopacity="1.0"
     inkscape:showpageshadow="2"
     inkscape:pageopacity="0.0"
     inkscape:pagecheckerboard="false"
     inkscape:deskcolor="#d1d1d1"
     showgrid="false"
     inkscape:zoom="1.4760465"
     inkscape:cx="380.06933"
     inkscape:cy="162.25776"
     inkscape:window-width="1920"
     inkscape:window-height="973"
     inkscape:window-x="1920"
     inkscape:window-y="0"
     inkscape:window-maximized="1"
     inkscape:current-layer="svg94" /><g
     id="g7047"
     style="opacity:0.3"
     transform="matrix(0.96362606,0,0,0.96362606,-8.3571995,4.6812899e-5)"><rect
       id="fc777aff-63b1-4720-84dc-e3a9c20790b9"
       data-name="ab2e16f2-9798-47da-b25d-769524f3c86f"
       x="484.2092"
       y="242.03206"
       width="437.19479"
       height="207.45651"
       transform="rotate(-8.21995,-787.05976,1611.5013)"
       fill="#f1f1f1" /><rect
       id="ecffa418-b240-4504-be04-512edea7ccda"
       data-name="bf81c03f-68cf-4889-8697-1102f95f97bb"
       x="496.79745"
       y="259.81555"
       width="412.19196"
       height="173.08746"
       transform="rotate(-8.21995,-786.97291,1612.1002)"
       fill="#ffffff" /><rect
       id="b49ce3f1-9d75-4481-986b-3b6beb000c79"
       data-name="f065dccc-d150-492a-a09f-a7f3f89523f0"
       x="468.80838"
       y="231.16611"
       width="437.19482"
       height="18.573339"
       transform="rotate(-8.21995,-802.46054,1506.1937)"
       fill="#e5e5e5" /><circle
       id="a4219562-805a-49cd-8b89-b1f92f7a9e75"
       data-name="bdbbf39c-df25-4682-8b85-5a6af4a1bd14"
       cx="288.67474"
       cy="71.343239"
       r="3.4425001"
       fill="#ffffff" /><circle
       id="b0f6399c-6944-4f74-a888-473f61f9730c"
       data-name="abcd4292-0b1f-4102-9b5e-e8bbd87baabc"
       cx="301.60709"
       cy="69.475067"
       r="3.4425001"
       fill="#ffffff" /><circle
       id="b03f93dc-2c99-4323-9b17-02f51b8830c0"
       data-name="a3fb731e-8b3d-41ca-96f2-91600dc0b434"
       cx="314.54004"
       cy="67.606796"
       r="3.4425001"
       fill="#ffffff" /><rect
       id="a6067cfc-0392-4d68-afe4-e34d11a8f0ac"
       data-name="ab2e16f2-9798-47da-b25d-769524f3c86f"
       x="370.25797"
       y="100.18309"
       width="437.19479"
       height="207.45651"
       fill="#e6e6e6" /><rect
       id="ecd65817-7467-4dbd-a435-c0f1d9841c98"
       data-name="bf81c03f-68cf-4889-8697-1102f95f97bb"
       x="382.7597"
       y="117.97286"
       width="412.19196"
       height="173.08746"
       fill="#ffffff" /><rect
       id="eea6c39d-8a45-4eb1-bab9-6120f465de14"
       data-name="f065dccc-d150-492a-a09f-a7f3f89523f0"
       x="370.07153"
       y="88.197113"
       width="437.19482"
       height="18.573339"
       fill="#cbcbcb" /><circle
       id="ab9e51f9-7431-4d30-8193-f9435a6bd5c3"
       data-name="bdbbf39c-df25-4682-8b85-5a6af4a1bd14"
       cx="383.87384"
       cy="99.118637"
       r="3.4425001"
       fill="#ffffff" /><circle
       id="a54ed687-3b0d-413b-b405-af8897a5c032"
       data-name="abcd4292-0b1f-4102-9b5e-e8bbd87baabc"
       cx="396.94043"
       cy="99.118637"
       r="3.4425001"
       fill="#ffffff" /><circle
       id="fd1d2195-7e97-488f-8f4b-7061a06deb9a"
       data-name="a3fb731e-8b3d-41ca-96f2-91600dc0b434"
       cx="410.00763"
       cy="99.118637"
       r="3.4425001"
       fill="#ffffff" /><rect
       x="620.27692"
       y="144.28854"
       width="58.05212"
       height="4.3633399"
       fill="#e6e6e6"
       id="rect36" /><rect
       x="620.27692"
       y="157.09784"
       width="89.645142"
       height="4.3633199"
       fill="#e6e6e6"
       id="rect38" /><rect
       x="621.20898"
       y="169.29697"
       width="73.058807"
       height="4.3633199"
       fill="#e6e6e6"
       id="rect40" /><rect
       x="620.27692"
       y="182.68222"
       width="42.650539"
       height="4.3633199"
       fill="#e6e6e6"
       id="rect42" /><rect
       x="620.27692"
       y="195.75677"
       width="64.370728"
       height="4.3633199"
       fill="#e6e6e6"
       id="rect44" /><rect
       x="593.81775"
       y="142.916"
       width="7.1084299"
       height="7.1084199"
       fill="#e6e6e6"
       id="rect46" /><rect
       x="593.81775"
       y="155.72527"
       width="7.1084299"
       height="7.1084099"
       fill="#e6e6e6"
       id="rect48" /><rect
       x="593.81775"
       y="167.92442"
       width="7.1084299"
       height="7.1084299"
       fill="#e6e6e6"
       id="rect50" /><rect
       x="593.81775"
       y="181.30968"
       width="7.1084299"
       height="7.1084299"
       fill="#e6e6e6"
       id="rect52" /><rect
       x="593.81775"
       y="194.38423"
       width="7.1084299"
       height="7.1084299"
       fill="#e6e6e6"
       id="rect54" /><rect
       x="620.27692"
       y="208.91306"
       width="58.05212"
       height="4.3633199"
       fill="#e6e6e6"
       id="rect56" /><rect
       x="620.27692"
       y="221.72237"
       width="89.645142"
       height="4.3633199"
       fill="#e6e6e6"
       id="rect58" /><rect
       x="621.20898"
       y="233.92149"
       width="73.058807"
       height="4.3633199"
       fill="#e6e6e6"
       id="rect60" /><rect
       x="620.27692"
       y="247.30675"
       width="42.650539"
       height="4.3633199"
       fill="#e6e6e6"
       id="rect62" /><rect
       x="620.27692"
       y="260.38129"
       width="64.370728"
       height="4.3633199"
       fill="#e6e6e6"
       id="rect64" /><rect
       x="593.81775"
       y="207.54051"
       width="7.1084299"
       height="7.1084299"
       fill="#e6e6e6"
       id="rect66" /><rect
       x="593.81775"
       y="220.34979"
       width="7.1084299"
       height="7.1084099"
       fill="#e6e6e6"
       id="rect68" /><rect
       x="593.81775"
       y="232.54893"
       width="7.1084299"
       height="7.1084299"
       fill="#e6e6e6"
       id="rect70" /><rect
       x="593.81775"
       y="245.93419"
       width="7.1084299"
       height="7.1084299"
       fill="#e6e6e6"
       id="rect72" /><rect
       x="593.81775"
       y="259.00876"
       width="7.1084299"
       height="7.1084299"
       fill="#e6e6e6"
       id="rect74" /><rect
       x="436.63004"
       y="243.13905"
       width="58.052132"
       height="4.3633299"
       fill="#e6e6e6"
       id="rect76" /><rect
       x="428.86267"
       y="254.4769"
       width="73.058807"
       height="4.3633199"
       fill="#e6e6e6"
       id="rect78" /><path
       d="m 699.66075,388.1056 a 37.91872,37.91872 0 0 1 -55.87819,33.382 l -0.007,-0.007 a 37.907,37.907 0 1 1 55.88555,-33.37461 z"
       transform="translate(-196.27362,-200.00788)"
       fill="#e6e6e6"
       id="path80" /><circle
       cx="465.67554"
       cy="175.95348"
       r="10.30421"
       fill="#ffffff"
       id="circle82" /><path
       d="m 679.54362,407.55657 a 53.11056,53.11056 0 0 1 -35.56788,-0.13775 l -0.007,-0.005 7.6766,-15.15329 h 20.60841 z"
       transform="translate(-196.27362,-200.00788)"
       fill="#ffffff"
       id="path84" /></g><g
     id="g6220"
     transform="matrix(0.78684192,0,0,0.78684192,24.939602,-29.177303)"
     style="opacity:0.3"><path
       d="m 547.86351,482.19293 c -17.96014,0 -32.5719,-15.52155 -32.5719,-34.60067 0,-19.07858 14.61176,-34.60014 32.5719,-34.60014 17.96014,0 32.5719,15.52156 32.5719,34.60014 0,19.07912 -14.61176,34.60067 -32.5719,34.60067 z m 0,-60.4582 c -13.13954,0 -23.82929,11.59955 -23.82929,25.85753 0,14.25798 10.68975,25.85806 23.82929,25.85806 13.13954,0 23.82928,-11.60008 23.82928,-25.85806 0,-14.25798 -10.68974,-25.85753 -23.82928,-25.85753 z"
       transform="translate(-196.27362,-200.00788)"
       fill="#6c63ff"
       id="path86"
       style="fill:#6982c8;fill-opacity:1" /><path
       d="m 578.70786,542.49212 h -61.6887 a 20.54138,20.54138 0 0 1 -20.51852,-20.51826 v -60.50995 a 14.06356,14.06356 0 0 1 14.04747,-14.04774 h 74.6308 a 14.06356,14.06356 0 0 1 14.04747,14.04774 v 60.50995 a 20.54138,20.54138 0 0 1 -20.51852,20.51826 z"
       transform="translate(-196.27362,-200.00788)"
       fill="#3f3d56"
       id="path88" /><path
       d="m 559.88461,481.84022 a 12.0211,12.0211 0 1 0 -17.48524,10.69829 v 18.808 h 10.92827 v -18.808 a 12.01088,12.01088 0 0 0 6.55697,-10.69829 z"
       transform="translate(-196.27362,-200.00788)"
       fill="#ffffff"
       id="path90" /></g><style
     type="text/css"
     id="style2762">
	.st0{fill:#2B79C2;}
	.st1{fill:#3B4652;}
	.st2{fill:#333333;}
</style><style
     type="text/css"
     id="style6587">
	.st0{fill:#2B79C2;}
	.st1{fill:#3B4652;}
	.st2{fill:#333333;}
</style><g
     id="g7008"
     transform="matrix(0.7412157,0,0,0.7412157,-51.291551,-16.871489)"
     style="opacity:0.3"><path
       class="st1"
       d="m 122.31003,279.97031 c -3.62171,0 -7.12881,-0.64182 -10.45253,-1.90254 l -0.0917,48.41175 7.81648,5.84517 7.81648,-5.84517 v -7.56434 l -3.57587,-3.57587 3.57587,-3.57586 v -5.57011 l -4.10308,-4.10308 3.98847,-3.98846 h 0.13753 v -7.70187 l 5.43257,-6.09732 v -6.25777 c -3.34665,1.28365 -6.89959,1.92547 -10.54423,1.92547 z"
       id="path6589"
       style="stroke-width:0.229222" /><path
       class="st0"
       d="m 122.31003,224.13176 c -14.39516,0 -26.085496,11.69033 -26.085496,26.0855 0,9.53564 5.111656,17.87934 12.744756,22.41794 0.91689,0.55013 1.85671,1.0315 2.81944,1.4441 3.20911,1.42118 6.78498,2.20053 10.5213,2.20053 3.73633,0 7.26635,-0.77935 10.47546,-2.20053 0.96274,-0.43552 1.90255,-0.91689 2.81944,-1.4441 7.65602,-4.5386 12.7906,-12.90522 12.7906,-22.44087 0,-14.37224 -11.66741,-26.06257 -26.0855,-26.06257 z m 0,12.12586 c 4.46984,0 8.06863,3.62171 8.06863,8.06862 0,4.46984 -3.62171,8.06863 -8.06863,8.06863 -4.46983,0 -8.06862,-3.62172 -8.06862,-8.06863 0,-4.46983 3.59879,-8.06862 8.06862,-8.06862 z"
       id="path6591"
       style="fill:#6982c8;fill-opacity:1;stroke-width:0.229222" /><g
       id="g6605"
       transform="matrix(0.22922231,0,0,0.22922231,63.629122,219.54731)">

<path
   class="st1"
   d="m 382.2,245.3 h 33.4 c 4.4,0 8,-3.6 8,-8 V 97.5 h 12.6 c 3.4,10.6 13.4,18.3 25.1,18.3 14.5,0 26.3,-11.8 26.3,-26.3 0,-14.5 -11.8,-26.3 -26.3,-26.3 -11.7,0 -21.7,7.7 -25.1,18.3 h -20.6 c -4.4,0 -8,3.6 -8,8 v 139.8 h -25.4 c -4.4,0 -8,3.6 -8,8 0,4.4 3.6,8 8,8 z"
   id="path6593" />

<path
   class="st1"
   d="m 461.3,273.3 c -11.7,0 -21.7,7.7 -25.1,18.3 h -17.9 c -4.4,0 -8,3.6 -8,8 v 35.1 H 372 c -4.4,0 -8,3.6 -8,8 0,4.4 3.6,8 8,8 h 46.3 c 4.4,0 8,-3.6 8,-8 v -35.1 h 9.9 c 3.4,10.6 13.4,18.3 25.1,18.3 14.5,0 26.3,-11.8 26.3,-26.3 0,-14.5 -11.8,-26.3 -26.3,-26.3 z"
   id="path6595" />

<path
   class="st1"
   d="m 461.3,433.2 c -11.7,0 -21.7,7.7 -25.1,18.3 h -8 V 419 c 0,-4.4 -3.6,-8 -8,-8 H 386 c -4.4,0 -8,3.6 -8,8 0,4.4 3.6,8 8,8 h 26.2 v 32.5 c 0,4.4 3.6,8 8,8 h 16 c 3.4,10.6 13.4,18.3 25.1,18.3 14.5,0 26.3,-11.8 26.3,-26.3 0.1,-14.5 -11.8,-26.3 -26.3,-26.3 z"
   id="path6597" />

<path
   class="st1"
   d="m 50.7,115.9 c 11.7,0 21.7,-7.7 25.1,-18.3 h 12.6 v 139.8 c 0,4.4 3.6,8 8,8 h 33.4 c 4.4,0 8,-3.6 8,-8 0,-4.4 -3.6,-8 -8,-8 H 104.4 V 89.5 c 0,-4.4 -3.6,-8 -8,-8 H 75.8 C 72.4,70.9 62.4,63.2 50.7,63.2 36.2,63.2 24.4,75 24.4,89.5 c 0,14.5 11.8,26.4 26.3,26.4 z"
   id="path6599" />

<path
   class="st1"
   d="m 140,334.7 h -38.3 v -35.1 c 0,-4.4 -3.6,-8 -8,-8 H 75.8 C 72.4,281 62.4,273.3 50.7,273.3 c -14.5,0 -26.3,11.8 -26.3,26.3 0,14.5 11.8,26.4 26.3,26.4 11.7,0 21.7,-7.7 25.1,-18.3 h 9.9 v 35.1 c 0,4.4 3.6,8 8,8 H 140 c 4.4,0 8,-3.6 8,-8 0,-4.4 -3.6,-8.1 -8,-8.1 z"
   id="path6601" />

<path
   class="st1"
   d="M 125.9,411 H 91.7 c -4.4,0 -8,3.6 -8,8 v 32.5 h -8 c -3.4,-10.6 -13.4,-18.3 -25.1,-18.3 -14.5,0 -26.3,11.8 -26.3,26.3 0,14.5 11.8,26.3 26.3,26.3 11.7,0 21.7,-7.7 25.1,-18.3 h 16 c 4.4,0 8,-3.6 8,-8 V 427 h 26.2 c 4.4,0 8,-3.6 8,-8 0,-4.4 -3.5,-8 -8,-8 z"
   id="path6603" />

</g></g><style
     type="text/css"
     id="style2718">
	.st0{fill:#2B79C2;}
	.st1{fill:#3B4652;}
	.st2{fill:#333333;}
</style><g
     id="g10560"
     transform="translate(14.005541,-86.214113)"><g
       id="g6215"
       transform="matrix(0.96362606,0,0,0.96362606,51.985635,36.137328)"
       style="opacity:0.3"><path
         class="st1"
         d="m 77.179513,115.02506 h 11.291804 c 1.080086,0 1.963792,-0.8837 1.963792,-1.96379 v -11.2918 c 0,-1.08009 -0.883706,-1.963796 -1.963792,-1.963796 H 77.179513 c -1.080086,0 -1.963792,0.883706 -1.963792,1.963796 v 11.2918 c -0.02455,1.08009 0.859159,1.96379 1.963792,1.96379 z"
         id="path2764"
         style="stroke-width:0.245;stroke-dasharray:none" /><path
         class="st0"
         d="m 130.79104,138.41874 h -0.19638 c -1.35011,0 -2.45474,-1.10464 -2.45474,-2.45474 v -1.42375 c 0,-1.35011 -1.10464,-2.45474 -2.45474,-2.45474 h -0.81007 c -0.63823,0 -1.22737,-0.24548 -1.66922,-0.66278 -0.49095,-0.44186 -0.78552,-1.08009 -0.78552,-1.79196 0,-0.68733 -0.27002,-1.30102 -0.71187,-1.74287 -0.44185,-0.44185 -1.05554,-0.71187 -1.74287,-0.71187 h -2.50383 c -2.35655,0 -4.2467,-1.9147 -4.2467,-4.2467 v -14.67935 c 0,-3.80485 -3.06843,-6.87327 -6.87327,-6.87327 -1.89015,0 -3.60847,0.76097 -4.86039,2.01288 -1.25192,1.25192 -2.012887,2.97024 -2.012887,4.86039 v 27.37035 c 0,0.71188 -0.932801,0.95735 -1.276465,0.36821 -1.423749,-2.332 -0.417306,-10.26081 -4.664006,-10.26081 -1.399202,0 -2.651119,0.56459 -3.583921,1.47284 -0.908253,0.90826 -1.472844,2.18472 -1.472844,3.58392 v 17.23228 c 0,4.39398 2.012887,8.56704 5.474071,11.2918 l 5.547712,6.33323 v 11.04633 h 22.95182 v -10.03988 l 5.89138,-5.13041 c 3.14206,-2.72476 4.95857,-6.70144 4.95857,-10.84995 v -9.81896 c -0.0246,-1.32556 -1.12918,-2.43019 -2.50383,-2.43019 z"
         id="path2766"
         style="fill:#6982c8;fill-opacity:1;stroke-width:0.245;stroke-dasharray:none" /><path
         class="st1"
         d="m 75.191173,133.36197 v 11.29181 c 0,1.08008 0.883707,1.96379 1.963793,1.96379 h 7.339672 v -15.24394 h -7.339672 c -1.080086,0.0246 -1.963793,0.90826 -1.963793,1.98834 z"
         id="path2768"
         style="stroke-width:0.245;stroke-dasharray:none" /><path
         class="st1"
         d="m 127.30531,115.02506 h 11.2918 c 1.08009,0 1.96379,-0.8837 1.96379,-1.96379 v -11.2918 c 0,-1.08009 -0.8837,-1.963796 -1.96379,-1.963796 h -11.2918 c -1.08009,0 -1.9638,0.883706 -1.9638,1.963796 v 11.2918 c 0,1.08009 0.88371,1.96379 1.9638,1.96379 z"
         id="path2770"
         style="stroke-width:0.245;stroke-dasharray:none" /><path
         class="st1"
         d="m 138.62166,131.39818 h -7.36422 c 0.51549,0.9328 0.81006,1.98834 0.81006,3.11752 v 0.0982 c 2.92114,0.58914 5.10586,3.16661 5.10586,6.25959 v 5.76864 h 1.42375 c 1.08009,0 1.96379,-0.88371 1.96379,-1.9638 v -11.2918 c 0.0246,-1.10463 -0.85916,-1.98834 -1.93924,-1.98834 z"
         id="path2772"
         style="stroke-width:0.245;stroke-dasharray:none" /><path
         class="st1"
         d="M 148.68609,64.211943 H 67.090531 c -1.399202,0 -2.528382,1.12918 -2.528382,2.528382 v 19.515184 c 0,1.399202 1.12918,2.528382 2.528382,2.528382 h 81.571009 c 1.39921,0 2.52839,-1.12918 2.52839,-2.528382 V 66.740325 c 0.0245,-1.399202 -1.10464,-2.528382 -2.50384,-2.528382 z M 83.144531,78.449435 h -2.111076 v 2.111077 c 0,1.080086 -0.883707,1.963792 -1.963792,1.963792 -1.080086,0 -1.963792,-0.883706 -1.963792,-1.963792 v -2.111077 h -2.111077 c -1.080085,0 -1.963792,-0.883706 -1.963792,-1.963792 0,-1.080085 0.883707,-1.963792 1.963792,-1.963792 h 2.111077 v -2.111076 c 0,-1.080086 0.883706,-1.963792 1.963792,-1.963792 1.080085,0 1.963792,0.883706 1.963792,1.963792 v 2.111076 h 2.111076 c 1.080086,0 1.963792,0.883707 1.963792,1.963792 0,1.080086 -0.883706,1.963792 -1.963792,1.963792 z m 19.196069,0 h -2.11108 v 2.111077 c 0,1.080086 -0.883704,1.963792 -1.96379,1.963792 -1.080085,0 -1.963792,-0.883706 -1.963792,-1.963792 v -2.111077 h -2.111076 c -1.080086,0 -1.963792,-0.883706 -1.963792,-1.963792 0,-1.080085 0.883706,-1.963792 1.963792,-1.963792 h 2.111076 v -2.111076 c 0,-1.080086 0.883707,-1.963792 1.963792,-1.963792 1.080086,0 1.96379,0.883706 1.96379,1.963792 v 2.111076 h 2.11108 c 1.08008,0 1.96379,0.883707 1.96379,1.963792 0,1.080086 -0.88371,1.963792 -1.96379,1.963792 z m 19.22061,0 h -2.11107 v 2.111077 c 0,1.080086 -0.88371,1.963792 -1.96379,1.963792 -1.08009,0 -1.9638,-0.883706 -1.9638,-1.963792 v -2.111077 h -2.11107 c -1.08009,0 -1.9638,-0.883706 -1.9638,-1.963792 0,-1.080085 0.88371,-1.963792 1.9638,-1.963792 h 2.11107 v -2.111076 c 0,-1.080086 0.88371,-1.963792 1.9638,-1.963792 1.08008,0 1.96379,0.883706 1.96379,1.963792 v 2.111076 h 2.11107 c 1.08009,0 1.9638,0.883707 1.9638,1.963792 0,1.080086 -0.88371,1.963792 -1.9638,1.963792 z m 19.19607,0 h -2.11107 v 2.111077 c 0,1.080086 -0.88371,1.963792 -1.9638,1.963792 -1.08008,0 -1.96379,-0.883706 -1.96379,-1.963792 v -2.111077 h -2.11108 c -1.08008,0 -1.96379,-0.883706 -1.96379,-1.963792 0,-1.080085 0.88371,-1.963792 1.96379,-1.963792 h 2.11108 v -2.111076 c 0,-1.080086 0.88371,-1.963792 1.96379,-1.963792 1.08009,0 1.9638,0.883706 1.9638,1.963792 v 2.111076 h 2.11107 c 1.08009,0 1.96379,0.883707 1.96379,1.963792 0,1.080086 -0.8837,1.963792 -1.96379,1.963792 z"
         id="path2774"
         style="stroke-width:0.245;stroke-dasharray:none" /></g><g
       id="g4787"
       transform="matrix(0.96362606,0,0,0.96362606,-14.187272,16.819338)"
       style="opacity:0.3"><g
         id="g2722"
         transform="matrix(0.20104448,0,0,0.20104448,125.07958,317.35934)">

<path
   class="st1"
   d="m 432.1,209.1 c -4.4,0 -8,-3.6 -8,-8 C 424.1,108.4 348.7,33 256,33 c -24.8,0 -48.7,5.3 -71,15.7 -4,1.9 -8.8,0.1 -10.6,-3.9 -1.9,-4 -0.1,-8.8 3.9,-10.6 C 202.7,22.8 228.9,17 256,17 c 101.5,0 184.1,82.6 184.1,184.1 0,4.4 -3.6,8 -8,8 z"
   id="path2720" />

</g><g
         id="g2726"
         transform="matrix(0.20104448,0,0,0.20104448,125.07958,317.35934)">

<path
   class="st1"
   d="m 106.8,412.3 c -2.7,0 -5.3,-1.3 -6.8,-3.7 -18.4,-29.3 -28.1,-63 -28.1,-97.7 V 201.1 c 0,-46.2 17.2,-90.4 48.6,-124.5 3,-3.3 8.1,-3.5 11.3,-0.5 3.3,3 3.5,8.1 0.5,11.3 -28.6,31.1 -44.4,71.5 -44.4,113.6 v 109.8 c 0,31.6 8.9,62.5 25.7,89.2 2.4,3.7 1.2,8.7 -2.5,11 -1.4,0.9 -2.8,1.3 -4.3,1.3 z"
   id="path2724" />

</g><g
         id="g2730"
         transform="matrix(0.20104448,0,0,0.20104448,125.07958,317.35934)">

<path
   class="st1"
   d="m 256,495 c -39.7,0 -77.5,-12.5 -109.4,-36.1 -3.5,-2.6 -4.3,-7.6 -1.7,-11.2 2.6,-3.5 7.6,-4.3 11.2,-1.7 29.1,21.6 63.6,33 99.9,33 92.7,0 168.1,-75.4 168.1,-168.1 0,-4.4 3.6,-8 8,-8 4.4,0 8,3.6 8,8 C 440.1,412.4 357.5,495 256,495 Z"
   id="path2728" />

</g><g
         id="g2734"
         transform="matrix(0.20104448,0,0,0.20104448,125.07958,317.35934)">

<path
   class="st1"
   d="m 116.3,301.4 c -4.4,0 -8,-3.6 -8,-8 v -92.3 c 0,-81.4 66.2,-147.7 147.7,-147.7 4.4,0 8,3.6 8,8 0,4.4 -3.6,8 -8,8 -72.6,0 -131.7,59.1 -131.7,131.7 v 92.3 c 0,4.4 -3.5,8 -8,8 z"
   id="path2732" />

</g><g
         id="g2738"
         transform="matrix(0.20104448,0,0,0.20104448,125.07958,317.35934)">

<path
   class="st1"
   d="m 256,458.6 c -65.7,0 -124.2,-44.2 -142.1,-107.4 -1.2,-4.3 1.3,-8.7 5.5,-9.9 4.3,-1.2 8.7,1.3 9.9,5.5 16,56.4 68.1,95.8 126.7,95.8 4.4,0 8,3.6 8,8 0,4.4 -3.6,8 -8,8 z"
   id="path2736" />

</g><g
         id="g2742"
         transform="matrix(0.20104448,0,0,0.20104448,125.07958,317.35934)">

<path
   class="st1"
   d="m 341.2,429.5 c -2.4,0 -4.8,-1.1 -6.3,-3.1 -2.7,-3.5 -2.1,-8.5 1.4,-11.2 C 368.9,390 387.7,352 387.7,310.9 V 201.1 c 0,-35.8 -14.1,-69.2 -39.8,-94.3 -3.2,-3.1 -3.2,-8.1 -0.1,-11.3 3.1,-3.2 8.1,-3.2 11.3,-0.1 28.8,28.1 44.7,65.6 44.7,105.7 v 109.8 c 0,46.1 -21,88.7 -57.6,116.9 -1.6,1.2 -3.3,1.7 -5,1.7 z"
   id="path2740" />

</g><g
         id="g2746"
         transform="matrix(0.20104448,0,0,0.20104448,125.07958,317.35934)">

<path
   class="st1"
   d="m 152.8,276.5 c -4.4,0 -8,-3.6 -8,-8 v -67.4 c 0,-61.3 49.9,-111.2 111.2,-111.2 61.3,0 111.2,49.9 111.2,111.2 0,4.4 -3.6,8 -8,8 -4.4,0 -8,-3.6 -8,-8 0,-52.5 -42.7,-95.2 -95.2,-95.2 -52.5,0 -95.2,42.7 -95.2,95.2 v 67.4 c 0,4.4 -3.6,8 -8,8 z"
   id="path2744" />

</g><g
         id="g2750"
         transform="matrix(0.20104448,0,0,0.20104448,125.07958,317.35934)">

<path
   class="st1"
   d="m 256,422.2 c -61.3,0 -111.2,-49.9 -111.2,-111.2 0,-4.4 3.6,-8 8,-8 4.4,0 8,3.6 8,8 0,52.5 42.7,95.2 95.2,95.2 52.5,0 95.2,-42.7 95.2,-95.2 v -55 c 0,-4.4 3.6,-8 8,-8 4.4,0 8,3.6 8,8 v 54.9 c 0,61.4 -49.9,111.3 -111.2,111.3 z"
   id="path2748" />

</g><path
         class="st0"
         d="m 185.93574,365.30845 v -11.7611 c 0,-2.51306 -0.98511,-4.86528 -2.75431,-6.63447 -1.76919,-1.76919 -4.12141,-2.75431 -6.63446,-2.75431 -5.16685,0 -9.38878,4.20183 -9.38878,9.38878 v 11.7611 c -3.39765,2.7342 -5.56893,6.93603 -5.56893,11.64047 0,8.26293 6.69478,14.95771 14.95771,14.95771 8.26293,0 14.95771,-6.69478 14.95771,-14.95771 0,-4.70444 -2.17128,-8.90627 -5.56894,-11.64047 z m -9.38877,-17.93317 c 1.64856,0 3.1966,0.64334 4.36266,1.8094 1.16606,1.16606 1.8094,2.7141 1.8094,4.36267 v 9.77076 c -1.88982,-0.84439 -3.98068,-1.3269 -6.17206,-1.3269 -2.19139,0 -4.28225,0.48251 -6.17207,1.3269 v -9.77076 c 0,-3.39766 2.77442,-6.17207 6.17207,-6.17207 z m 3.75953,38.60054 h -7.53917 c -0.62324,0 -1.06554,-0.64334 -0.82428,-1.22637 l 2.53316,-6.29269 c -2.11097,-0.86449 -3.57859,-2.99557 -3.41776,-5.44831 0.16084,-2.7342 2.39243,-4.9658 5.12664,-5.12663 3.1966,-0.20105 5.85039,2.33211 5.85039,5.48851 0,2.31201 -1.42741,4.28225 -3.43786,5.08643 l 2.53316,6.29269 c 0.24125,0.60313 -0.18094,1.22637 -0.82428,1.22637 z"
         id="path2752"
         style="fill:#4762af;fill-opacity:1;stroke-width:0.201044" /></g></g></svg>
