<?xml version="1.0" encoding="iso-8859-1"?>
<!-- Uploaded to: SVG Repo, www.svgrepo.com, Generator: SVG Repo Mixer Tools -->
<svg version="1.1" id="Layer_1" xmlns="http://www.w3.org/2000/svg" xmlns:xlink="http://www.w3.org/1999/xlink" 
	 viewBox="0 0 512 512" xml:space="preserve">
<path style="fill:#49C3E8;" d="M451.952,432.764H60.048C27.024,432.764,0,405.74,0,372.716V68.172
	C0,35.14,27.024,8.124,60.048,8.124h391.896C484.976,8.116,512,35.14,512,68.172v304.544
	C512,405.74,484.976,432.764,451.952,432.764z"/>
<path d="M512,102.628V68.172c0-33.032-27.024-60.048-60.048-60.048H60.048C27.024,8.116,0,35.14,0,68.172v34.456H512z"/>
<circle style="fill:#FC6F58;" cx="58.4" cy="55.372" r="13.424"/>
<circle style="fill:#49C3E8;" cx="96.64" cy="55.372" r="13.424"/>
<circle style="fill:#FFD160;" cx="134.904" cy="55.372" r="13.424"/>
<g>
	<rect x="429.392" y="51.612" style="fill:#FFFFFF;" width="30.416" height="6.824"/>
	<polygon style="fill:#FFFFFF;" points="450.872,75.532 445.728,71.052 459.376,55.372 445.728,39.7 450.872,35.22 468.448,55.372 	
		"/>
	<path style="fill:#FFFFFF;" d="M379.264,76.74H208.336c-11.752,0-21.368-9.616-21.368-21.368l0,0
		c0-11.752,9.616-21.368,21.368-21.368h170.928c11.752,0,21.368,9.616,21.368,21.368l0,0
		C400.632,67.124,391.016,76.74,379.264,76.74z"/>
</g>
<path d="M212.656,65.596l-4.704-19.24h3.744l1.824,8.736c0.48,2.344,0.936,4.8,1.256,6.704h0.056c0.32-2.024,0.856-4.304,1.4-6.736
	l2.08-8.704h3.68l1.92,8.856c0.48,2.28,0.88,4.424,1.16,6.504h0.064c0.336-2.12,0.8-4.304,1.304-6.656l2-8.704h3.576l-5.168,19.24
	h-3.76l-2-9.056c-0.496-2.184-0.824-4.016-1.056-6.104h-0.064c-0.336,2.056-0.704,3.92-1.28,6.104l-2.232,9.056H212.656z"/>
<path d="M237.712,65.596l-4.704-19.24h3.744l1.824,8.736c0.48,2.344,0.936,4.8,1.256,6.704h0.056c0.32-2.024,0.856-4.304,1.4-6.736
	l2.08-8.704h3.68l1.92,8.856c0.48,2.28,0.88,4.424,1.16,6.504h0.064c0.336-2.12,0.8-4.304,1.304-6.656l2-8.704h3.576l-5.168,19.24
	h-3.76l-2-9.056c-0.496-2.184-0.824-4.016-1.056-6.104h-0.064c-0.336,2.056-0.704,3.92-1.28,6.104l-2.232,9.056H237.712z"/>
<path d="M262.768,65.596l-4.704-19.24h3.744l1.824,8.736c0.48,2.344,0.936,4.8,1.256,6.704h0.056c0.32-2.024,0.856-4.304,1.4-6.736
	l2.08-8.704h3.68l1.92,8.856c0.48,2.28,0.88,4.424,1.16,6.504h0.064c0.336-2.12,0.8-4.304,1.304-6.656l2-8.704h3.576l-5.176,19.24
	h-3.76l-2-9.056c-0.496-2.184-0.824-4.016-1.056-6.104h-0.064c-0.336,2.056-0.704,3.92-1.28,6.104l-2.224,9.056H262.768z"/>
<path d="M282.064,63.652c0-1.304,0.92-2.256,2.176-2.256c1.28,0,2.176,0.92,2.176,2.256c0,1.296-0.864,2.264-2.176,2.264
	C282.96,65.916,282.064,64.94,282.064,63.652z"/>
<path style="fill:#FC6F58;" d="M245.576,290.572H106.904c-18.744,0-34.08,15.336-34.08,34.08v100.376
	c0,18.744,15.336,34.08,34.08,34.08h29.752v44.768l55-44.768h53.928c18.744,0,34.08-15.336,34.08-34.08V324.652
	C279.664,305.908,264.328,290.572,245.576,290.572z"/>
<path style="fill:#FFD160;" d="M409.264,169.372h-209.12c-15.816,0-28.752,12.936-28.752,28.752v149.328
	c0,15.816,12.936,28.752,28.752,28.752h95.672l87.352,71.104v-71.104h26.096c15.816,0,28.752-12.944,28.752-28.752v-149.32
	C438.024,182.316,425.08,169.372,409.264,169.372z"/>
<g>
	<circle style="fill:#FFFFFF;" cx="228.296" cy="275.988" r="20.744"/>
	<circle style="fill:#FFFFFF;" cx="304.72" cy="275.988" r="20.744"/>
	<circle style="fill:#FFFFFF;" cx="381.12" cy="275.988" r="20.744"/>
</g>
</svg>