<?xml version="1.0" encoding="UTF-8" standalone="no"?>
<!-- Created with Inkscape (http://www.inkscape.org/) -->

<svg
   width="1043.459"
   height="403.52231"
   viewBox="0 0 1043.459 403.52231"
   version="1.1"
   id="svg5"
   xml:space="preserve"
   inkscape:version="1.2.2 (732a01da63, 2022-12-09, custom)"
   sodipodi:docname="mode.svg"
   xmlns:inkscape="http://www.inkscape.org/namespaces/inkscape"
   xmlns:sodipodi="http://sodipodi.sourceforge.net/DTD/sodipodi-0.dtd"
   xmlns="http://www.w3.org/2000/svg"
   xmlns:svg="http://www.w3.org/2000/svg"><sodipodi:namedview
     id="namedview7"
     pagecolor="#ffffff"
     bordercolor="#666666"
     borderopacity="1.0"
     inkscape:showpageshadow="2"
     inkscape:pageopacity="0.0"
     inkscape:pagecheckerboard="0"
     inkscape:deskcolor="#d1d1d1"
     inkscape:document-units="px"
     showgrid="false"
     inkscape:zoom="0.82832511"
     inkscape:cx="517.91259"
     inkscape:cy="201.61166"
     inkscape:window-width="1680"
     inkscape:window-height="909"
     inkscape:window-x="0"
     inkscape:window-y="0"
     inkscape:window-maximized="1"
     inkscape:current-layer="layer1"
     inkscape:pageshadow="2" /><defs
     id="defs2">















































</defs><g
     inkscape:label="图层 1"
     inkscape:groupmode="layer"
     id="layer1"
     transform="translate(-129.5922,-162.02093)"><g
       id="g4700"
       transform="matrix(3.4048298,0,0,3.4048298,126.18747,370.13096)">

<rect
   fill="#d2d2d2"
   height="9.9127102"
   width="2.82707"
   x="23.58647"
   y="27.5394"
   id="rect4652" />

<path
   d="m 9.20171,40.53213 v 0 c 0,-0.78068 0.63286,-1.41354 1.41354,-1.41354 h 28.76944 c 0.78067,0 1.41354,0.63286 1.41354,1.41354 v 0 c 0,0.78068 -0.63287,1.41354 -1.41354,1.41354 H 10.61525 c -0.78068,0 -1.41354,-0.63287 -1.41354,-1.41354 z"
   fill="#d2d2d2"
   id="path4654" />

<circle
   cx="24.999969"
   cy="40.532131"
   fill="#656766"
   r="5.0268998"
   id="circle4656" />

<circle
   cx="24.999969"
   cy="40.532131"
   fill="#d2d2d2"
   r="2.5516601"
   id="circle4658" />

<g
   id="g4676">

<g
   id="g4666">

<path
   d="m 48.47541,17.25182 h -3.20575 c -0.28994,0 -0.52456,0.23462 -0.52456,0.52456 0,0.28994 0.23462,0.52456 0.52456,0.52456 h 3.20575 c 0.28994,0 0.52456,-0.23462 0.52456,-0.52456 0,-0.28994 -0.23462,-0.52456 -0.52456,-0.52456 z"
   fill="#53b1e2"
   id="path4660" />

<path
   d="m 43.66729,15.24733 c 0.09119,0 0.18339,-0.02356 0.2674,-0.07325 l 3.20576,-1.90306 c 0.24896,-0.14804 0.33092,-0.46975 0.18339,-0.71922 -0.14804,-0.24896 -0.47026,-0.33195 -0.71922,-0.18339 l -3.20575,1.90306 c -0.24896,0.14804 -0.33092,0.46975 -0.18339,0.71922 0.09835,0.16494 0.27252,0.25664 0.45181,0.25664 z"
   fill="#85bd57"
   id="path4662" />

<path
   d="M 47.14045,22.28175 43.93469,20.3792 c -0.24896,-0.14804 -0.57066,-0.06557 -0.71922,0.18339 -0.14753,0.24947 -0.06557,0.57118 0.18339,0.71922 l 3.20575,1.90255 c 0.08401,0.04969 0.17622,0.07325 0.2674,0.07325 0.17929,0 0.35346,-0.09169 0.45182,-0.25664 0.14754,-0.24947 0.06558,-0.57117 -0.18338,-0.71922 z"
   fill="#ffc966"
   id="path4664" />

</g>

<g
   id="g4674">

<path
   d="m 1.52453,18.30038 h 3.20576 c 0.28994,0 0.52456,-0.23462 0.52456,-0.52456 0,-0.28994 -0.23462,-0.52456 -0.52456,-0.52456 H 1.52453 c -0.28994,0 -0.52456,0.23462 -0.52456,0.52456 0,0.28994 0.23462,0.52456 0.52456,0.52456 z"
   fill="#53b1e2"
   id="path4668" />

<path
   d="m 6.33265,20.30487 c -0.09118,0 -0.18339,0.02356 -0.2674,0.07325 L 2.8595,22.28119 c -0.24896,0.14804 -0.33092,0.46975 -0.18339,0.71922 0.14804,0.24896 0.47026,0.33195 0.71922,0.18339 L 6.60109,21.28073 C 6.85005,21.13269 6.93201,20.81098 6.78448,20.56151 6.68612,20.39657 6.51195,20.30487 6.33265,20.30487 Z"
   fill="#85bd57"
   id="path4670" />

<path
   d="M 2.85949,13.27045 6.06525,15.173 C 6.31421,15.32104 6.63591,15.23857 6.78447,14.98961 6.932,14.74014 6.85004,14.41843 6.60108,14.27039 L 3.39532,12.36784 C 3.31131,12.31815 3.2191,12.29459 3.12792,12.29459 c -0.17929,0 -0.35346,0.0917 -0.45182,0.25665 -0.14753,0.24946 -0.06557,0.57116 0.18339,0.71921 z"
   fill="#ffc966"
   id="path4672" />

</g>

</g>

<g
   id="g4698">

<rect
   fill="#4e4c4d"
   height="15.05665"
   width="23.264271"
   x="13.36783"
   y="10.24777"
   id="rect4678" />

<g
   id="g4684">

<path
   d="M 36.75035,19.49763 H 13.24959 c -2.31876,0 -4.19849,1.87973 -4.19849,4.19849 v 3.21662 c 0,2.31876 1.87973,4.19849 4.19849,4.19849 h 23.50075 c 2.31876,0 4.19849,-1.87973 4.19849,-4.19849 v -3.21662 c 10e-6,-2.31877 -1.87972,-4.19849 -4.19848,-4.19849 z"
   fill="#656766"
   id="path4680" />

<path
   d="M 36.75035,4.44097 H 13.24959 c -2.31876,0 -4.19849,1.87973 -4.19849,4.19849 v 3.21662 c 0,2.31876 1.87973,4.19849 4.19849,4.19849 h 23.50075 c 2.31876,0 4.19849,-1.87973 4.19849,-4.19849 V 8.63946 C 40.94884,6.3207 39.06911,4.44097 36.75035,4.44097 Z"
   fill="#656766"
   id="path4682" />

</g>

<g
   id="g4690">

<circle
   cx="15.23678"
   cy="10.24777"
   fill="#ec6e62"
   r="2.2349701"
   id="circle4686" />

<circle
   cx="21.58881"
   cy="10.24777"
   fill="#85bd57"
   r="2.2349701"
   id="circle4688" />

</g>

<g
   id="g4696">

<circle
   cx="15.23678"
   cy="25.30443"
   fill="#ec6e62"
   r="2.2349701"
   id="circle4692" />

<circle
   cx="21.58881"
   cy="25.30443"
   fill="#85bd57"
   r="2.2349701"
   id="circle4694" />

</g>

</g>

</g><g
       id="g6480"
       transform="translate(0,-23.767842)"><rect
         style="opacity:0.95;fill:none;fill-rule:evenodd;stroke:#1e1e1e;stroke-width:0.437989;stroke-dasharray:5.25587, 5.25587;stroke-dashoffset:0;stroke-opacity:1"
         id="rect1514"
         width="579.55188"
         height="279.55429"
         x="593.28027"
         y="186.00777"
         ry="6.2044759" /><g
         id="g6463"
         transform="translate(-22.020537)"><rect
           style="opacity:1;fill:none;fill-rule:evenodd;stroke:#53b1e2;stroke-width:0.483905;stroke-dasharray:none;stroke-opacity:1"
           id="rect2486"
           width="526.83118"
           height="99.516098"
           x="640.79755"
           y="214.65346"
           ry="7.4930305" /><text
           xml:space="preserve"
           style="font-style:normal;font-weight:normal;font-size:37.3333px;line-height:1.25;font-family:sans-serif;fill:#53b1e2;fill-opacity:1;stroke:none"
           x="903.13043"
           y="252.68884"
           id="text6226"><tspan
             sodipodi:role="line"
             id="tspan6224"
             x="903.13043"
             y="252.68884"
             style="font-size:37.3333px;text-align:center;text-anchor:middle;fill:#53b1e2;fill-opacity:1">HTTPS(443),</tspan><tspan
             sodipodi:role="line"
             x="903.13043"
             y="299.35547"
             id="tspan6228"
             style="font-size:37.3333px;text-align:center;text-anchor:middle;fill:#53b1e2;fill-opacity:1">HTTP(80)自动重定向到HTTPS</tspan></text></g><g
         id="g6468"
         transform="translate(0.16043224,-24.702684)"><rect
           style="fill:none;fill-rule:evenodd;stroke:#53b1e2;stroke-width:0.432715;stroke-dasharray:none;stroke-opacity:1"
           id="rect2486-6"
           width="526.88232"
           height="79.567284"
           x="618.591"
           y="382.33685"
           ry="5.9909916" /><text
           xml:space="preserve"
           style="font-style:normal;font-weight:normal;font-size:37.3333px;line-height:1.25;font-family:sans-serif;fill:#53b1e2;fill-opacity:1;stroke:none"
           x="882.61084"
           y="432.3125"
           id="text6226-7"><tspan
             sodipodi:role="line"
             x="882.61084"
             y="432.3125"
             id="tspan6228-3"
             style="font-size:37.3333px;text-align:center;text-anchor:middle;fill:#53b1e2;fill-opacity:1">/.well-known/acme-challenge</tspan></text></g></g><g
       id="g1796"
       transform="matrix(0.28390204,0,0,0.28390204,137.40571,170.93896)">
	<path
   style="fill:#50555b"
   d="M 512,16.015 V 422.681 H 0.239 V 65.175 H 0 V 19.52 H 0.478 C 0.16,18.406 0,17.209 0,16.015 0,7.17 7.171,0 16.015,0 h 479.97 C 504.829,0 512,7.17 512,16.015 Z"
   id="path1720" />
	<rect
   x="9.2690001"
   y="62.678001"
   style="fill:#ffffff"
   width="493.46201"
   height="349.392"
   id="rect1722" />
	<rect
   x="9.2690001"
   y="62.678001"
   style="opacity:0.06;fill:#191919"
   width="493.46201"
   height="20.763"
   id="rect1724" />
	<g
   id="g1740">
		<polygon
   style="fill:#f9ccae"
   points="237.87,115.971 462.397,115.971 462.397,178.019 420.747,178.019 379.338,216.11 311.44,153.665 273.396,188.647 237.87,188.647 "
   id="polygon1726" />
		<polygon
   style="fill:#f4a891"
   points="420.747,178.019 462.397,178.019 462.397,247.189 237.87,247.189 237.87,188.647 273.396,188.647 311.44,153.665 379.338,216.11 "
   id="polygon1728" />
		<polygon
   style="fill:#fbfad5"
   points="237.87,184.994 271.36,184.994 311.326,148.364 379.423,210.808 419.149,174.365 462.397,174.365 462.397,182.337 422.755,182.337 379.423,222.075 311.326,159.631 274.966,192.965 237.87,192.965 "
   id="polygon1730" />
		<ellipse
   style="fill:#fffffd"
   cx="312.427"
   cy="156.87801"
   rx="7.9949999"
   ry="7.8070002"
   id="ellipse1732" />
		<ellipse
   style="fill:#fffffd"
   cx="420.74701"
   cy="178.019"
   rx="7.9949999"
   ry="7.8070002"
   id="ellipse1734" />
		<ellipse
   style="fill:#fffffd"
   cx="379.25101"
   cy="215.814"
   rx="7.9949999"
   ry="7.8070002"
   id="ellipse1736" />
		<ellipse
   style="fill:#fffffd"
   cx="274.24301"
   cy="186.48399"
   rx="7.9949999"
   ry="7.8070002"
   id="ellipse1738" />
	</g>
	<g
   id="g1748">
		<ellipse
   style="fill:#97cb78"
   cx="125.815"
   cy="32.558998"
   rx="12.141"
   ry="12.923"
   id="ellipse1742" />
		<ellipse
   style="fill:#f7e778"
   cx="81.650002"
   cy="32.558998"
   rx="12.141"
   ry="12.923"
   id="ellipse1744" />
		<ellipse
   style="fill:#eb6d81"
   cx="37.485001"
   cy="32.558998"
   rx="12.141"
   ry="12.923"
   id="ellipse1746" />
	</g>
	<g
   id="g1774">
		<g
   id="g1760">
			<rect
   x="53.699001"
   y="305.56699"
   style="opacity:0.5;fill:#95a8a5"
   width="76.660004"
   height="64.005997"
   id="rect1750" />
			<g
   style="opacity:0.5"
   id="g1758">
				<rect
   x="142.537"
   y="356.28799"
   style="fill:#95a8a5"
   width="51.228001"
   height="8.816"
   id="rect1752" />
				<rect
   x="142.537"
   y="308.16699"
   style="fill:#95a8a5"
   width="105.815"
   height="9.2159996"
   id="rect1754" />
				<rect
   x="142.537"
   y="332.12701"
   style="fill:#95a8a5"
   width="105.815"
   height="9.2159996"
   id="rect1756" />
			</g>
		</g>
		<g
   id="g1772">
			<rect
   x="271.76999"
   y="305.56699"
   style="opacity:0.5;fill:#95a8a5"
   width="76.660004"
   height="64.005997"
   id="rect1762" />
			<g
   style="opacity:0.5"
   id="g1770">
				<rect
   x="360.60699"
   y="356.28799"
   style="fill:#95a8a5"
   width="51.228001"
   height="8.816"
   id="rect1764" />
				<rect
   x="360.60699"
   y="308.16699"
   style="fill:#95a8a5"
   width="105.815"
   height="9.2159996"
   id="rect1766" />
				<rect
   x="360.60699"
   y="332.12701"
   style="fill:#95a8a5"
   width="105.815"
   height="9.2159996"
   id="rect1768" />
			</g>
		</g>
	</g>
	<g
   id="g1784">
		<path
   style="fill:#f4a24c"
   d="m 206.196,171.055 c -3.329,-14.232 -10.237,-27.39 -19.96,-38.229 -9.73,-10.846 -22.283,-19.363 -36.956,-24.252 -1.514,-0.505 -3.046,-0.978 -4.604,-1.404 -13.785,-3.769 -27.696,-3.962 -40.773,-1.183 -15.467,3.287 -29.758,10.751 -41.264,21.503 l 63.837,64.49 78.9,21.573 c 3.934,-14.39 3.996,-28.925 0.82,-42.498 z"
   id="path1776" />
		<path
   style="fill:#f1ef84"
   d="m 205.375,213.554 c 3.935,-14.391 3.996,-28.926 0.821,-42.499 l -79.721,20.927 57.984,58.577 c 9.639,-10.07 16.981,-22.614 20.916,-37.005 z"
   id="path1778" />
		<path
   style="fill:#759eac"
   d="m 98.992,274.254 c -13.645,-3.731 -25.617,-10.54 -35.395,-19.455 -0.11,-0.085 -0.206,-0.178 -0.303,-0.271 -11.651,-10.701 -20.154,-24.399 -24.59,-39.512 -4.359,-14.87 -4.799,-31.097 -0.411,-47.145 4.388,-16.048 13.023,-29.793 24.341,-40.377 l 63.841,64.488 -22.805,83.408 c -1.559,-0.339 -3.12,-0.71 -4.678,-1.136 z"
   id="path1780" />
		<path
   style="fill:#85cdd9"
   d="m 103.67,275.389 c 15.116,3.257 30.262,2.31 44.152,-2.073 0.123,-0.044 0.256,-0.085 0.379,-0.129 13.74,-4.401 26.239,-12.169 36.26,-22.631 l -57.682,-58.27 -0.067,-0.24 -0.09,0.086 -0.147,-0.151 -0.113,0.413 -62.765,62.406 c 9.778,8.914 21.75,15.724 35.395,19.455 1.558,0.425 3.119,0.796 4.678,1.134 z"
   id="path1782" />
	</g>
	<g
   id="g1794">
		<rect
   x="429.48901"
   y="256.97"
   style="fill:#8fd1da"
   width="32.908001"
   height="20.313"
   id="rect1786" />
		<rect
   x="387.246"
   y="256.97"
   style="fill:#eff09a"
   width="32.908001"
   height="20.313"
   id="rect1788" />
		<rect
   x="345.004"
   y="256.97"
   style="fill:#f2b47d"
   width="32.908001"
   height="20.313"
   id="rect1790" />
		<rect
   x="302.76099"
   y="256.97"
   style="fill:#759eac"
   width="32.908001"
   height="20.313"
   id="rect1792" />
	</g>
</g><g
       id="hair"
       transform="matrix(1.1475687,0,0,1.1475687,430.89862,112.37129)" /><g
       id="skin"
       transform="matrix(1.1475687,0,0,1.1475687,430.89862,112.37129)" /><g
       id="skin-shadow"
       transform="matrix(1.1475687,0,0,1.1475687,430.89862,112.37129)" /><g
       id="g2038"
       transform="translate(-23.283198,52.205808)"><path
         fill="#d0cfce"
         stroke="#d0cfce"
         stroke-linecap="round"
         stroke-linejoin="round"
         stroke-miterlimit="10"
         stroke-width="2.29514"
         d="m 447.18962,153.28429 c -0.22986,-8.79726 6.40206,-18.80211 14.28907,-19.05009 7.95345,-0.25017 16.54185,11.7651 14.24121,19.70788 h -3.65225 c 0,0 0.90589,-8.18515 -2.56356,-11.64094 -0.62255,-1.76324 -5.22201,-4.93523 -8.58427,-4.43994 -2.26828,0.33417 -7.3348,3.22157 -8.3893,5.25736 -1.17901,2.2762 -1.34185,10.16562 -1.34185,10.16562 h -3.99905 z"
         id="path1842" /><polygon
         fill="#fcea2b"
         stroke="none"
         points="10.2827,59.7325 10.2827,36.3614 11.9132,36.3614 41.6978,36.3614 43.3283,36.3614 43.3283,59.7325 "
         id="polygon1844"
         transform="matrix(1.1475687,0,0,1.1475687,430.89862,112.37129)" /><path
         fill="#f4aa41"
         stroke="none"
         d="m 495.09304,149.76241 c 4.11266,-2.08628 6.96471,-6.63984 6.96471,-11.92152 0,-7.2547 -5.38095,-13.13588 -12.0186,-13.13588 -6.63766,0 -12.01861,5.88118 -12.01861,13.13588 0,5.86545 3.5577,11.52824 8.44301,12.18569"
         id="path1848"
         style="stroke-width:1.14757" /><polyline
         fill="#f4aa41"
         stroke="#f4aa41"
         stroke-linecap="round"
         stroke-linejoin="round"
         stroke-miterlimit="10"
         stroke-width="2"
         points="56.0267,32.3492 56.016,35.4262 56.1715,56.1509 51.6701,60.6524 48.0098,55.9921 50.8927,53.1091 47.7357,49.9522 50.3774,46.3105 47.2368,43.17 47.2506,40.1939 49.9604,37.4841 48.7191,36.2429 48.7191,32.3492"
         id="polyline1850"
         transform="matrix(1.1475687,0,0,1.1475687,430.89862,112.37129)" /><polygon
         fill="#e27022"
         stroke="none"
         points="53.3114,36.0743 53.5436,57.0903 54.7443,55.8883 54.5252,36.0609 "
         id="polygon1852"
         transform="matrix(1.1475687,0,0,1.1475687,430.89862,112.37129)" /><circle
         cx="252.35625"
         cy="440.66293"
         transform="rotate(-45)"
         fill="#e27022"
         stroke="none"
         id="ellipse1854"
         r="4.0400915"
         style="stroke-width:1.14756" /><g
         id="line"
         transform="matrix(1.1475687,0,0,1.1475687,430.89862,112.37129)"><path
           fill="none"
           stroke="#000000"
           stroke-linecap="round"
           stroke-linejoin="round"
           stroke-miterlimit="10"
           stroke-width="2"
           d="M 39.4673,33.4202 C 40.0484,25.3864 33.5783,18.8334 26.6477,19.0514 19.7749,19.2676 14.1961,26.134 14.1961,33.4202"
           id="path1860" /><polygon
           fill="none"
           stroke="#000000"
           stroke-linecap="round"
           stroke-linejoin="round"
           stroke-miterlimit="10"
           stroke-width="2"
           points="43.3283,36.3207 43.3283,59.6918 10.2827,59.6918 10.2827,36.3207 11.9132,36.3207 41.6978,36.3207 "
           id="polygon1862" /><path
           fill="none"
           stroke="#000000"
           stroke-linecap="round"
           stroke-linejoin="round"
           stroke-miterlimit="10"
           stroke-width="2"
           d="m 17.8248,33.4202 c 0,-5.5092 3.979,-10.701 8.8809,-10.8645 4.9432,-0.1648 9.5578,4.79 9.1434,10.8645"
           id="path1864" /><polyline
           fill="none"
           stroke="#000000"
           stroke-linecap="round"
           stroke-linejoin="round"
           stroke-miterlimit="10"
           stroke-width="2"
           points="56.0253,36.0256 56.2815,56.4716 51.7209,61.0322 46.9553,56.2666 49.8761,53.3458 46.6478,50.1175 50.3373,46.428 47.1258,43.2165 47.1258,40.1873 49.8712,37.4419 48.6019,36.1726"
           id="polyline1866" /><circle
           cx="51.5355"
           cy="18.1091"
           transform="matrix(0.7071,-0.7071,0.7071,0.7071,2.2893,41.7451)"
           fill="none"
           stroke="#000000"
           stroke-linecap="round"
           stroke-linejoin="round"
           stroke-miterlimit="10"
           stroke-width="2"
           id="ellipse1868"
           r="3.5206001" /><path
           fill="none"
           stroke="#000000"
           stroke-linecap="round"
           stroke-linejoin="round"
           stroke-miterlimit="10"
           stroke-width="2"
           d="m 56.0171,31.6362 c 3.5704,-1.7692 6.0267,-5.5901 5.9932,-10 C 61.9642,15.5789 57.238,10.7041 51.454,10.748 45.67,10.792 41.0185,15.7381 41.0646,21.7955 c 0.0372,4.8974 3.1337,9.0217 7.3751,10.3985"
           id="path1870" /></g></g><g
       id="g1918"
       transform="matrix(0.15282769,0,0,0.15282769,393.69158,391.3178)"><g
         id="g1902">
	<path
   style="fill:#194f82"
   d="m 382.488,286.384 c -3.62,-3.62 -9.438,-4.267 -13.77,-1.422 -30.19,20.105 -65.552,30.707 -102.077,30.707 -45.64,0 -88.76,-16.485 -122.634,-46.61 l 23.725,-23.725 c 7.37,-8.21 1.487,-18.166 -7.758,-18.618 H 40.96 c -6.012,0 -10.925,4.848 -10.925,10.925 v 118.95 c 0.517,10.279 12.024,14.222 18.618,7.758 l 24.76,-24.76 c 37.947,34.263 86.626,53.01 138.085,53.01 55.143,0 125.285,-23.014 172.154,-92.444 3.038,-4.333 2.456,-10.086 -1.164,-13.771 z m -170.796,84.363 c -49.325,0 -95.741,-19.265 -130.586,-54.109 -4.073,-4.073 -11.378,-4.073 -15.451,0 L 51.95,330.343 v -81.842 h 81.778 l -13.059,13.059 c -4.202,4.59 -4.461,10.99 0,15.451 39.046,39.047 90.893,60.509 146.036,60.509 21.85,0 43.378,-3.426 63.806,-10.02 -33.292,27.926 -74.86,43.247 -118.819,43.247 z"
   id="path1898" />
	<path
   style="fill:#194f82"
   d="M 248.605,123.475 224.88,147.2 c -7.37,8.21 -1.487,18.166 7.758,18.618 h 119.014 c 6.012,0 10.925,-4.848 10.925,-10.925 V 35.943 C 362.06,25.664 350.553,21.721 343.959,28.185 l -24.76,24.76 C 281.122,18.683 232.508,0 180.985,0 125.841,0 55.829,23.014 8.831,92.444 c -2.909,4.331 -2.327,10.02 1.422,13.77 3.62,3.62 9.438,4.267 13.77,1.422 30.19,-20.105 65.552,-30.707 102.077,-30.707 45.511,-0.064 88.695,16.42 122.505,46.546 z M 180.92,21.786 c 49.325,0 95.741,19.265 130.586,54.109 4.073,4.073 11.378,4.073 15.451,0 L 340.662,62.19 v 81.778 h -81.778 l 13.059,-13.059 c 4.202,-4.59 4.461,-10.99 0,-15.451 C 232.897,76.412 181.05,54.949 125.907,54.949 c -21.851,0 -43.378,3.426 -63.806,10.02 C 95.393,37.107 136.96,21.786 180.92,21.786 Z"
   id="path1900" />
</g><path
         style="fill:#ffc10d"
         d="M 340.661,62.255 326.956,75.96 c -4.073,4.073 -11.378,4.073 -15.451,0 -34.844,-34.844 -81.261,-54.109 -130.586,-54.109 -43.96,0 -85.592,15.192 -118.82,43.248 20.428,-6.659 41.891,-10.02 63.806,-10.02 55.143,0 107.055,21.463 146.036,60.509 4.461,4.396 4.202,10.796 0,15.451 l -13.059,12.994 h 81.778 z"
         id="path1904" /><path
         style="fill:#56ace0"
         d="m 81.041,316.638 c 34.844,34.844 81.261,54.109 130.586,54.109 43.96,0 85.592,-15.192 118.82,-43.249 -20.428,6.659 -41.891,10.02 -63.806,10.02 -55.143,0 -107.055,-21.463 -146.036,-60.509 -4.461,-4.396 -4.202,-10.796 0,-15.451 l 13.059,-13.059 H 51.95 v 81.778 l 13.705,-13.705 c 4.073,-4.006 11.313,-4.006 15.386,0.066 z"
         id="path1906" /></g><path
       style="fill:none;stroke:#50555b;stroke-width:1.5;stroke-linecap:butt;stroke-linejoin:miter;stroke-dasharray:none;stroke-opacity:1"
       d="M 281.53382,242.66629 H 617.93864"
       id="path2073" /><path
       style="fill:none;fill-opacity:1;stroke:#50555b;stroke-width:1.5;stroke-linecap:butt;stroke-linejoin:miter;stroke-dasharray:none;stroke-opacity:1"
       d="M 263.09209,455.89177 H 526.21247 V 377.3117 h 92.671"
       id="path1010" /><text
       xml:space="preserve"
       style="font-style:normal;font-weight:normal;font-size:40px;line-height:1.25;font-family:sans-serif;fill:#53b1e2;fill-opacity:1;stroke:none"
       x="879.86053"
       y="505.13708"
       id="text2592"><tspan
         sodipodi:role="line"
         id="tspan2590"
         x="879.86053"
         y="505.13708"
         style="font-style:normal;font-variant:normal;font-weight:bold;font-stretch:normal;font-family:sans-serif;-inkscape-font-specification:'sans-serif Bold';text-align:center;text-anchor:middle;fill:#53b1e2;fill-opacity:1">代理服务器</tspan><tspan
         sodipodi:role="line"
         x="879.86053"
         y="555.13708"
         id="tspan2594"
         style="font-style:normal;font-variant:normal;font-weight:bold;font-stretch:normal;font-family:sans-serif;-inkscape-font-specification:'sans-serif Bold';text-align:center;text-anchor:middle;fill:#53b1e2;fill-opacity:1">https://oa.example.com</tspan></text><text
       xml:space="preserve"
       style="font-style:normal;font-weight:normal;font-size:32px;line-height:1.25;font-family:sans-serif;fill:#53b1e2;fill-opacity:1;stroke:none"
       x="179.84467"
       y="325.04382"
       id="text3131"><tspan
         sodipodi:role="line"
         id="tspan3129"
         x="179.84467"
         y="325.04382"
         style="font-style:normal;font-variant:normal;font-weight:bold;font-stretch:normal;font-size:32px;font-family:sans-serif;-inkscape-font-specification:'sans-serif Bold'">用户</tspan></text><text
       xml:space="preserve"
       style="font-style:normal;font-weight:normal;font-size:32px;line-height:1.25;font-family:sans-serif;fill:#53b1e2;fill-opacity:1;stroke:none"
       x="385.36835"
       y="274.54767"
       id="text3131-3"><tspan
         sodipodi:role="line"
         id="tspan3129-6"
         x="385.36835"
         y="274.54767"
         style="font-style:normal;font-variant:normal;font-weight:bold;font-stretch:normal;font-size:32px;font-family:sans-serif;-inkscape-font-specification:'sans-serif Bold'">TLS/SSL</tspan></text><text
       xml:space="preserve"
       style="font-style:normal;font-weight:normal;font-size:32px;line-height:1.25;font-family:sans-serif;fill:#53b1e2;fill-opacity:1;stroke:none"
       x="141.93224"
       y="562.59924"
       id="text3131-3-7"><tspan
         sodipodi:role="line"
         id="tspan3129-6-5"
         x="141.93224"
         y="562.59924"
         style="font-style:normal;font-variant:normal;font-weight:bold;font-stretch:normal;font-size:32px;font-family:sans-serif;-inkscape-font-specification:'sans-serif Bold'">火山岩CA</tspan></text><text
       xml:space="preserve"
       style="font-style:normal;font-weight:normal;font-size:32px;line-height:1.25;font-family:sans-serif;fill:#53b1e2;fill-opacity:1;stroke:none"
       x="357.8996"
       y="492.56332"
       id="text3131-3-7-3"><tspan
         sodipodi:role="line"
         id="tspan3129-6-5-5"
         x="357.8996"
         y="492.56332"
         style="font-style:normal;font-variant:normal;font-weight:bold;font-stretch:normal;font-size:32px;font-family:sans-serif;-inkscape-font-specification:'sans-serif Bold'">自动更新</tspan></text></g></svg>
