<?xml version="1.0" encoding="UTF-8" standalone="no"?>
<svg
   width="992.16968"
   height="236.80299"
   id="exportedSVG"
   version="1.1"
   pencil:version="1.2.2"
   sodipodi:docname="encrypt.svg"
   inkscape:version="1.2.2 (1:1.2.2+202305151914+b0a8486541)"
   xml:space="preserve"
   xmlns:inkscape="http://www.inkscape.org/namespaces/inkscape"
   xmlns:sodipodi="http://sodipodi.sourceforge.net/DTD/sodipodi-0.dtd"
   xmlns="http://www.w3.org/2000/svg"
   xmlns:svg="http://www.w3.org/2000/svg"
   xmlns:pencil="http://www.evolus.vn/Namespace/Pencil"><defs
     id="defs159" /><sodipodi:namedview
     id="namedview157"
     pagecolor="#ffffff"
     bordercolor="#666666"
     borderopacity="1.0"
     inkscape:showpageshadow="2"
     inkscape:pageopacity="0.0"
     inkscape:pagecheckerboard="0"
     inkscape:deskcolor="#d1d1d1"
     showgrid="false"
     inkscape:zoom="0.7495098"
     inkscape:cx="620.40549"
     inkscape:cy="195.46109"
     inkscape:window-width="1920"
     inkscape:window-height="973"
     inkscape:window-x="1920"
     inkscape:window-y="0"
     inkscape:window-maximized="1"
     inkscape:current-layer="layer_encrypt" /><g
     inkscape:label="encrypt"
     inkscape:groupmode="layer"
     id="layer_encrypt"
     transform="translate(-3.0634125,-32.219307)"><g
       id="g2276"
       transform="translate(-91.688182,-36.593172)"><g
         id="g2096"
         transform="translate(0,1.6566903)"><rect
           style="opacity:0.95;fill:#cccccc;fill-rule:evenodd;stroke-width:0.249852"
           id="rect1342"
           width="260"
           height="50"
           x="94.751595"
           y="67.155792"
           ry="8" /><circle
           style="opacity:0.95;fill:#008000;fill-rule:evenodd;stroke-width:0.245"
           id="path1552"
           cx="114.22306"
           cy="92.155792"
           r="9" /><circle
           style="opacity:0.95;fill:#ffffff;fill-rule:evenodd;stroke-width:0.245"
           id="path1552-3"
           cx="135.6442"
           cy="92.155792"
           r="9" /><circle
           style="opacity:0.95;fill:#ffffff;fill-rule:evenodd;stroke-width:0.245"
           id="path1552-6"
           cx="157.06532"
           cy="92.155792"
           r="9" /><text
           xml:space="preserve"
           style="font-style:normal;font-weight:normal;font-size:18.6667px;line-height:1.25;font-family:sans-serif;fill:#000000;fill-opacity:1;stroke:none"
           x="170.84831"
           y="97.4478"
           id="text1700"><tspan
             sodipodi:role="line"
             id="tspan1698"
             x="170.84831"
             y="97.4478"
             style="font-style:normal;font-variant:normal;font-weight:bold;font-stretch:normal;font-size:18.6667px;font-family:sans-serif;-inkscape-font-specification:'sans-serif Bold'">http://domain.com</tspan></text><rect
           style="opacity:0.95;fill:#241c1c;fill-rule:evenodd;stroke-width:0.245"
           id="rect1809"
           width="260"
           height="170"
           x="94.751595"
           y="133.95859"
           ry="8" /><g
           id="g1929"
           transform="translate(10.983025,9.0691676)"><path
             d="m 213.76857,159.88942 c -13.75,0 -25,11.25 -25,25 v 10 h 10 v -10 c 0,-8.25 6.75,-15 15,-15 8.25,0 15,6.75 15,15 h 10 c 0,-13.75 -11.25,-25 -25,-25 z"
             fill="#424242"
             id="path1897"
             style="stroke-width:0.117188" /><path
             d="m 243.76857,259.88942 h -60 c -5.5,0 -10,-4.5 -10,-10 v -45 c 0,-5.5 4.5,-10 10,-10 h 60 c 5.5,0 10,4.5 10,10 v 45 c 0,5.5 -4.5,10 -10,10 z"
             fill="#fb8c00"
             id="path1899"
             style="stroke-width:0.117188" /><path
             d="m 213.76857,227.38942 m -7.5,0 a 7.5,7.5 0 1 0 15,0 7.5,7.5 0 1 0 -15,0 z"
             fill="#c76e00"
             id="path1901"
             style="stroke-width:0.117188" /></g></g><g
         id="g2110"
         transform="translate(167.1865,-2.2963088)"><rect
           style="opacity:0.95;fill:#cccccc;fill-rule:evenodd;stroke-width:0.249852"
           id="rect1342-5"
           width="260"
           height="50"
           x="659.7348"
           y="71.108788"
           ry="8" /><circle
           style="opacity:0.95;fill:#008000;fill-rule:evenodd;stroke-width:0.245"
           id="path1552-5"
           cx="679.2063"
           cy="96.108788"
           r="9" /><circle
           style="opacity:0.95;fill:#008000;fill-rule:evenodd;stroke-width:0.245"
           id="path1552-3-6"
           cx="700.62738"
           cy="96.108788"
           r="9" /><circle
           style="opacity:0.95;fill:#008000;fill-rule:evenodd;stroke-width:0.245"
           id="path1552-6-2"
           cx="722.04852"
           cy="96.108788"
           r="9" /><text
           xml:space="preserve"
           style="font-style:normal;font-weight:normal;font-size:18.6667px;line-height:1.25;font-family:sans-serif;fill:#000000;fill-opacity:1;stroke:none"
           x="733.83154"
           y="101.40079"
           id="text1700-9"><tspan
             sodipodi:role="line"
             id="tspan1698-1"
             x="733.83154"
             y="101.40079"
             style="font-style:normal;font-variant:normal;font-weight:bold;font-stretch:normal;font-size:18.6667px;font-family:sans-serif;-inkscape-font-specification:'sans-serif Bold'"><tspan
   style="fill:#008000"
   id="tspan2073">https://</tspan>domain.com</tspan></text><rect
           style="opacity:0.95;fill:#241c1c;fill-rule:evenodd;stroke-width:0.245"
           id="rect1809-2"
           width="260"
           height="170"
           x="659.7348"
           y="137.91159"
           ry="8" /><path
           d="m 789.7348,172.91159 c -13.75,0 -25,11.25 -25,25 v 10 h 10 v -10 c 0,-8.25 6.75,-15 15,-15 8.25,0 15,6.75 15,15 v 10 h 10 v -10 c 0,-13.75 -11.25,-25 -25,-25 z"
           fill="#424242"
           id="path2050"
           style="stroke-width:0.117188" /><path
           d="m 819.7348,272.91159 h -60 c -5.5,0 -10,-4.5 -10,-10 v -45 c 0,-5.5 4.5,-10 10,-10 h 60 c 5.5,0 10,4.5 10,10 v 45 c 0,5.5 -4.5,10 -10,10 z"
           fill="#fb8c00"
           id="path2052"
           style="stroke-width:0.117188" /><text
           xml:space="preserve"
           style="font-style:normal;font-weight:normal;font-size:26.6667px;line-height:1.25;font-family:sans-serif;fill:#000000;fill-opacity:1;stroke:none"
           x="765.90814"
           y="250.27827"
           id="text2081"><tspan
             sodipodi:role="line"
             id="tspan2079"
             x="765.90814"
             y="250.27827"
             style="font-style:normal;font-variant:normal;font-weight:bold;font-stretch:normal;font-size:26.6667px;font-family:sans-serif;-inkscape-font-specification:'sans-serif Bold';fill:#008000">TLS</tspan></text></g><g
         id="g2192"
         transform="translate(-3.2264254,-16.285735)"><g
           style="overflow:hidden;fill:currentColor"
           id="g2121"
           transform="matrix(0.23148448,0,0,0.23148448,472.69333,85.424248)"><path
             d="m 848.35051,526.16256 c 2.26049,-21.251 0,-345.99415 0,-345.99415 C 597.00298,191.03285 524.97859,85.894276 524.97859,85.894276 455.69155,186.65207 202.18484,180.08143 202.18484,180.08143 c 0,0 -6.57167,131.42321 0,370.17692 6.57167,238.75268 323.08335,313.22584 323.08335,313.22584 337.86705,-99.11641 320.34396,-311.58446 323.08232,-337.32163 z m -352.6528,98.5669 -159.89978,-145.73313 41.61786,-33.8786 86.52054,65.71161 c 0,0 117.18596,-124.85257 233.27697,-181.80263 l 17.5231,19.714 c 0,0 -153.32708,127.04244 -219.03869,275.98875 z"
             fill="#f04925"
             p-id="1875"
             id="path2112" /></g><g
           id="g2184"><rect
             style="opacity:0.95;fill:#808000;fill-rule:evenodd;stroke-width:0.245"
             id="rect2175"
             width="226.34523"
             height="47.399769"
             x="480.89026"
             y="254.29202"
             ry="8" /><text
             xml:space="preserve"
             style="font-style:normal;font-weight:normal;font-size:26.6667px;line-height:1.25;font-family:sans-serif;fill:#000000;fill-opacity:1;stroke:none"
             x="500.67624"
             y="288.16525"
             id="text2179"><tspan
               sodipodi:role="line"
               id="tspan2177"
               x="500.67624"
               y="288.16525"
               style="font-style:normal;font-variant:normal;font-weight:normal;font-stretch:normal;font-size:26.6667px;font-family:'DejaVu Sans Mono';-inkscape-font-specification:'DejaVu Sans Mono'">火山岩证书环境</tspan></text></g></g><path
         d="m 435.42038,173.95004 5.69735,5.93562 c 1.21856,1.2776 0.3068,3.34441 -1.4647,3.34441 h -60.10844 c -2.22728,0 -3.33688,1.7984 -3.33688,4.0092 v -0.04 c 0,2.21081 1.1096,4.03321 3.33688,4.03321 h 60.04792 c 1.77942,0 2.6873,2.15922 1.45262,3.42882 l -5.66507,5.83961 c -1.53328,1.594 -1.46468,4.13762 0.1612,5.64362 h 0.008 c 1.60593,1.49001 4.12373,1.41361 5.63683,-0.172 l 12.81898,-13.36963 c 2.94954,-3.10002 2.93342,-7.94643 -0.028,-11.03044 l -12.70602,-13.12963 c -1.50906,-1.57001 -4.0067,-1.646 -5.60855,-0.168 l -0.0404,0.04 c -1.62204,1.494 -1.7108,4.0092 -0.2016,5.61161"
         id="arrow_right-[#365]"
         style="fill:#808000;fill-rule:evenodd;stroke:none;stroke-width:4.00001" /><path
         d="m 784.67785,173.95004 5.69735,5.93562 c 1.21856,1.2776 0.3068,3.34441 -1.4647,3.34441 h -60.10844 c -2.22728,0 -3.33688,1.7984 -3.33688,4.0092 v -0.04 c 0,2.21081 1.1096,4.03321 3.33688,4.03321 h 60.04792 c 1.77942,0 2.6873,2.15922 1.45262,3.42882 l -5.66507,5.83961 c -1.53328,1.594 -1.46468,4.13762 0.1612,5.64362 h 0.008 c 1.60593,1.49001 4.12373,1.41361 5.63683,-0.172 l 12.81898,-13.36963 c 2.94954,-3.10002 2.93342,-7.94643 -0.028,-11.03044 l -12.70602,-13.12963 c -1.50906,-1.57001 -4.0067,-1.64601 -5.60855,-0.168 l -0.0404,0.04 c -1.62204,1.494 -1.7108,4.00919 -0.2016,5.61161"
         id="arrow_right-[#365]-6"
         style="fill:#808000;fill-rule:evenodd;stroke:none;stroke-width:4.00001" /></g></g></svg>
