<?xml version="1.0" encoding="UTF-8" standalone="no"?>
<svg
   data-name="Layer 1"
   width="2152.7437"
   height="549.55554"
   viewBox="0 0 2152.7436 549.55555"
   version="1.1"
   id="svg74"
   sodipodi:docname="explain-security.svg"
   inkscape:version="1.1.2 (0a00cf5339, 2022-02-04)"
   xmlns:inkscape="http://www.inkscape.org/namespaces/inkscape"
   xmlns:sodipodi="http://sodipodi.sourceforge.net/DTD/sodipodi-0.dtd"
   xmlns="http://www.w3.org/2000/svg"
   xmlns:svg="http://www.w3.org/2000/svg"
   xmlns:rdf="http://www.w3.org/1999/02/22-rdf-syntax-ns#"
   xmlns:cc="http://creativecommons.org/ns#"
   xmlns:dc="http://purl.org/dc/elements/1.1/">
  <defs
     id="defs78" />
  <sodipodi:namedview
     id="namedview76"
     pagecolor="#ffffff"
     bordercolor="#666666"
     borderopacity="1.0"
     inkscape:pageshadow="2"
     inkscape:pageopacity="0.0"
     inkscape:pagecheckerboard="0"
     showgrid="false"
     fit-margin-top="10"
     fit-margin-left="10"
     fit-margin-right="10"
     fit-margin-bottom="10"
     inkscape:zoom="0.34557282"
     inkscape:cx="1002.683"
     inkscape:cy="368.95263"
     inkscape:window-width="1920"
     inkscape:window-height="939"
     inkscape:window-x="0"
     inkscape:window-y="34"
     inkscape:window-maximized="1"
     inkscape:current-layer="svg74" />
  <title
     id="title2">online_transactions</title>
  <g
     id="g996"
     transform="translate(590.39991,10.00002)">
    <rect
       x="305.99207"
       y="295.38556"
       width="343.71997"
       height="234.16998"
       fill="#6c63ff"
       id="rect4" />
    <path
       d="m 754.88605,453.21778 h -338.24 a 4.11628,4.11628 0 0 0 -4.11005,4.11 v 228.69 a 4.10986,4.10986 0 0 0 4.11005,4.11 h 338.24 a 4.10984,4.10984 0 0 0 4.11,-4.11 v -228.69 a 4.11626,4.11626 0 0 0 -4.11,-4.11 z m 1.37,232.8 a 1.36568,1.36568 0 0 1 -1.37,1.37 h -338.24 a 1.36569,1.36569 0 0 1 -1.37,-1.37 v -228.69 a 1.37207,1.37207 0 0 1 1.37,-1.37 h 338.24 a 1.37206,1.37206 0 0 1 1.37,1.37 z"
       fill="#3f3d56"
       id="path6"
       transform="translate(-86.00397,-185.22222)" />
    <rect
       x="344.33536"
       y="429.58731"
       width="154.74254"
       height="17.80224"
       rx="2"
       fill="#3f3d56"
       id="rect8" />
    <path
       d="m 726.126,599.74775 h -49.29 a 4.10991,4.10991 0 0 0 -4.11005,4.11 v 38.34 a 4.10986,4.10986 0 0 0 4.11005,4.11 h 49.29 a 4.1098,4.1098 0 0 0 4.11,-4.11 v -38.34 a 4.10985,4.10985 0 0 0 -4.11,-4.11 z m 1.37,42.45 a 1.37206,1.37206 0 0 1 -1.37,1.37 h -49.29 a 1.37212,1.37212 0 0 1 -1.37006,-1.37 v -38.34 a 1.36574,1.36574 0 0 1 1.37006,-1.37 h 49.29 a 1.36568,1.36568 0 0 1 1.37,1.37 z"
       fill="#3f3d56"
       id="path10"
       transform="translate(-86.00397,-185.22222)" />
    <rect
       x="598.6756"
       y="423.37234"
       width="33.603039"
       height="6.9523501"
       rx="2"
       fill="#3f3d56"
       id="rect12" />
    <rect
       x="598.6756"
       y="434.32755"
       width="33.603039"
       height="6.9523501"
       rx="2"
       fill="#3f3d56"
       id="rect14" />
    <rect
       x="598.6756"
       y="445.28278"
       width="33.603039"
       height="6.9523501"
       rx="2"
       fill="#3f3d56"
       id="rect16" />
    <rect
       x="348.44357"
       y="284.4306"
       width="71.208961"
       height="30.126869"
       rx="2"
       fill="#3f3d56"
       id="rect18" />
    <path
       d="m 475.52961,484.71625 c 0,5.29411 -2.45241,9.58583 -5.47761,9.58583 -3.0252,0 -5.47761,-4.29172 -5.47761,-9.58583 0,-5.29411 5.47761,-9.58582 5.47761,-9.58582 0,0 5.47761,4.29172 5.47761,9.58582 z"
       fill="#6c63ff"
       id="path20"
       transform="translate(-86.00397,-185.22222)" />
    <polygon
       points="672.992,385.451 672.992,387.451 901.992,387.451 901.992,161.837 899.992,161.837 899.992,385.451 "
       fill="#3f3d56"
       id="polygon22" />
    <polygon
       points="78.992,161.837 78.992,385.451 305.992,385.451 305.992,387.451 76.992,387.451 76.992,161.837 "
       fill="#3f3d56"
       id="polygon24" />
    <path
       d="m 1113.3552,223.03181 h -1.2817 v -2.24294 h 0.9613 a 0.64087,0.64087 0 0 0 0.6408,-0.64084 V 208.6129 a 0.64085,0.64085 0 0 0 -0.6408,-0.64084 h -0.9613 v -6.551 a 13.95586,13.95586 0 0 0 -13.956,-13.95591 h -1.4242 v -1.60211 a 0.64085,0.64085 0 0 0 -0.6408,-0.64084 h -11.5352 a 0.64085,0.64085 0 0 0 -0.6408,0.64084 v 1.60211 H 875.46088 a 13.95586,13.95586 0 0 0 -13.956,13.95591 v 296.9942 a 13.9559,13.9559 0 0 0 13.956,13.956 h 222.65672 a 13.9559,13.9559 0 0 0 13.9559,-13.956 V 235.84861 h 1.2817 a 0.64087,0.64087 0 0 0 0.6409,-0.64084 v -11.53512 a 0.64085,0.64085 0 0 0 -0.6409,-0.64084 z"
       fill="#3f3d56"
       id="path26"
       transform="translate(-86.00397,-185.22222)" />
    <rect
       x="787.03479"
       y="11.37165"
       width="229.42339"
       height="304.40573"
       rx="1.9048001"
       fill="#d0cde1"
       id="rect28" />
    <rect
       x="875.401"
       y="160.55814"
       width="39.356529"
       height="11.66295"
       rx="2"
       fill="#3f3d56"
       id="rect30" />
    <rect
       x="827.82074"
       y="69.753777"
       width="134.51707"
       height="4.9984102"
       rx="2"
       fill="#3f3d56"
       id="rect32" />
    <rect
       x="827.82074"
       y="85.582062"
       width="134.51707"
       height="4.9984102"
       rx="2"
       fill="#3f3d56"
       id="rect34" />
    <rect
       x="827.82074"
       y="101.41034"
       width="134.51707"
       height="4.9984102"
       rx="2"
       fill="#3f3d56"
       id="rect36" />
    <rect
       x="827.82074"
       y="117.23863"
       width="134.51707"
       height="4.9984102"
       rx="2"
       fill="#3f3d56"
       id="rect38" />
    <rect
       x="827.82074"
       y="133.06691"
       width="134.51707"
       height="4.9984102"
       rx="2"
       fill="#3f3d56"
       id="rect40" />
    <circle
       cx="890.31726"
       cy="261.97836"
       r="41.779678"
       fill="#6c63ff"
       id="circle42" />
    <path
       d="m 988.63566,479.42627 a 52.38194,52.38194 0 1 1 52.38194,-52.38194 52.44121,52.44121 0 0 1 -52.38194,52.38194 z m 0,-102.85908 a 50.47714,50.47714 0 1 0 50.47714,50.47714 50.53392,50.53392 0 0 0 -50.47714,-50.47714 z"
       fill="#3f3d56"
       id="path44"
       transform="translate(-86.00397,-185.22222)" />
    <path
       d="m 241.496,273.13387 h -1.71341 V 226.19551 A 27.16665,27.16665 0 0 0 212.61586,199.02884 H 113.1707 A 27.16664,27.16664 0 0 0 86.004,226.19551 V 483.703 a 27.16664,27.16664 0 0 0 27.16673,27.16667 h 99.44519 A 27.16665,27.16665 0 0 0 239.78262,483.703 V 306.54539 h 1.71338 z"
       fill="#3f3d56"
       id="path46"
       transform="translate(-86.00397,-185.22222)" />
    <path
       d="m 233.99737,227.79218 v 257.13195 a 20.28849,20.28849 0 0 1 -20.28483,20.29192 H 113.78728 A 20.28842,20.28842 0 0 1 93.50253,484.92413 V 227.79218 a 20.28688,20.28688 0 0 1 20.28475,-20.28471 h 12.12326 a 9.63757,9.63757 0 0 0 8.925,13.27583 h 56.97157 a 9.63747,9.63747 0 0 0 8.925,-13.27583 h 12.98047 a 20.287,20.287 0 0 1 20.28479,20.28471 z"
       fill="#d0cde1"
       id="path48"
       transform="translate(-86.00397,-185.22222)" />
    <rect
       x="64.361816"
       y="173.77303"
       width="26.768419"
       height="7.93258"
       rx="2"
       fill="#3f3d56"
       id="rect50" />
    <rect
       x="32"
       y="112.01225"
       width="91.492058"
       height="3.3996799"
       rx="1.6998399"
       fill="#3f3d56"
       id="rect52" />
    <rect
       x="32"
       y="122.77789"
       width="91.492058"
       height="3.3996799"
       rx="1.6998399"
       fill="#3f3d56"
       id="rect54" />
    <rect
       x="32"
       y="133.54352"
       width="91.492058"
       height="3.3996799"
       rx="1.6998399"
       fill="#3f3d56"
       id="rect56" />
    <rect
       x="32"
       y="144.30916"
       width="91.492058"
       height="3.3996799"
       rx="1.6998399"
       fill="#3f3d56"
       id="rect58" />
    <rect
       x="32"
       y="155.0748"
       width="91.492058"
       height="3.3996799"
       rx="1.6998399"
       fill="#3f3d56"
       id="rect60" />
    <circle
       cx="69.874947"
       cy="256.3548"
       r="28.81288"
       fill="#6c63ff"
       id="circle62" />
    <path
       d="m 164.37142,463.80112 a 36.12462,36.12462 0 1 1 36.12458,-36.12461 36.16549,36.16549 0 0 1 -36.12458,36.12461 z m 0,-70.9356 a 34.811,34.811 0 1 0 34.811,34.811 34.85016,34.85016 0 0 0 -34.811,-34.811 z"
       fill="#3f3d56"
       id="path64"
       transform="translate(-86.00397,-185.22222)" />
    <rect
       x="147.50456"
       y="375.1897"
       width="28"
       height="28"
       fill="#d0cde1"
       id="rect66" />
    <path
       d="m 278.50853,572.41192 h -34 v -34 h 34 z m -32.52174,-1.47826 h 31.04348 v -31.04348 h -31.04348 z"
       fill="#3f3d56"
       id="path68"
       transform="translate(-86.00397,-185.22222)" />
    <rect
       x="774.50458"
       y="375.1897"
       width="28"
       height="28"
       fill="#d0cde1"
       id="rect70" />
    <path
       d="m 905.50853,572.41192 h -34 v -34 h 34 z m -32.52174,-1.47826 h 31.04348 v -31.04348 h -31.04348 z"
       fill="#3f3d56"
       id="path72"
       transform="translate(-86.00397,-185.22222)" />
  </g>
  <metadata
     id="metadata895">
    <rdf:RDF>
      <cc:Work
         rdf:about="">
        <dc:title>online_transactions</dc:title>
      </cc:Work>
    </rdf:RDF>
  </metadata>
  <style
     type="text/css"
     id="style897">
	.st0{fill:#2B79C2;}
	.st1{fill:#3B4652;}
	.st2{fill:#333333;}
</style>
  <g
     id="g919"
     transform="matrix(1.2065221,0,0,1.2065221,1626.3521,-34.046025)">

<path
   class="st2"
   d="m 164.6,188.8 v 112.3 l 7.6,4.2 90.3,50 78.4,-50 6.6,-4.2 V 188.8 Z m 161.2,42 c -0.9,14.1 -12.4,25.5 -26.5,26.3 -13.5,0.8 -25.1,-8 -28.7,-20.2 h -29.1 c -3.6,12.2 -15.2,21 -28.7,20.2 -14.1,-0.8 -25.6,-12.2 -26.5,-26.3 -1,-16.4 12,-30.1 28.2,-30.1 12.8,0 23.6,8.5 27.1,20.2 h 29.1 c 3.5,-11.7 14.3,-20.2 27.1,-20.2 16,0.1 29.1,13.7 28,30.1 z"
   id="path899" />


<path
   class="st2"
   d="m 148.6,219.3 v 70 H 84 v -48 c 0,-12.1 9.8,-22 22,-22 z"
   id="path901" />


<path
   class="st2"
   d="m 428,241.3 v 48 h -64.6 v -70 H 406 c 12.2,0 22,9.9 22,22 z"
   id="path903" />


<path
   class="st2"
   d="m 148.6,219.3 v 70 H 84 v -48 c 0,-12.1 9.8,-22 22,-22 z"
   id="path905" />


<path
   class="st0"
   d="m 148.6,219.3 v 70 H 84 v -48 c 0,-12.1 9.8,-22 22,-22 z"
   id="path907" />


<path
   class="st2"
   d="m 428,241.3 v 48 h -64.6 v -70 H 406 c 12.2,0 22,9.9 22,22 z"
   id="path909" />


<path
   class="st0"
   d="m 428,241.3 v 48 h -64.6 v -70 H 406 c 12.2,0 22,9.9 22,22 z"
   id="path911" />


<path
   class="st1"
   d="M 377,156.8 H 356.5 L 300.3,47.1 c -1.2,-2.4 -3.6,-4 -6.3,-4.3 -2.7,-0.3 -5.4,0.9 -7.1,3 L 252.8,88.7 218,42.8 c -1.7,-2.3 -4.5,-3.5 -7.3,-3.1 -2.8,0.3 -5.3,2.2 -6.4,4.8 L 155.7,156.9 H 135 c -4.4,0 -8,3.6 -8,8 0,4.4 3.6,8 8,8 h 25.9 c 0,0 0,0 0,0 0,0 0,0 0,0 h 190.6 c 0,0 0,0 0,0 0,0 0,0 0,0 H 377 c 4.4,0 8,-3.6 8,-8 0,-4.4 -3.6,-8.1 -8,-8.1 z"
   id="path913" />


<path
   class="st0"
   d="m 164.6,188.8 v 112.3 l 7.6,4.2 90.3,50 78.4,-50 6.6,-4.2 V 188.8 Z m 161.2,42 c -0.9,14.1 -12.4,25.5 -26.5,26.3 -13.5,0.8 -25.1,-8 -28.7,-20.2 h -29.1 c -3.6,12.2 -15.2,21 -28.7,20.2 -14.1,-0.8 -25.6,-12.2 -26.5,-26.3 -1,-16.4 12,-30.1 28.2,-30.1 12.8,0 23.6,8.5 27.1,20.2 h 29.1 c 3.5,-11.7 14.3,-20.2 27.1,-20.2 16,0.1 29.1,13.7 28,30.1 z"
   id="path915" />


<path
   class="st1"
   d="m 363.4,305.3 v 4.6 L 263,373.9 148.5,310.5 v -5.2 H 84 v 145 c 0,12.1 9.8,22 22,22 h 300 c 12.2,0 22,-9.9 22,-22 v -145 z m -10.3,106 H 158.9 c -4.4,0 -8,-3.6 -8,-8 0,-4.4 3.6,-8 8,-8 H 353 c 4.4,0 8,3.6 8,8 0,4.4 -3.5,8 -7.9,8 z"
   id="path917" />


</g>
  <style
     type="text/css"
     id="style938">
	.st0{fill:#2B79C2;}
	.st1{fill:#3B4652;}
	.st2{fill:#333333;}
</style>
  <g
     id="g948"
     transform="matrix(1.1825408,0,0,1.1825408,-21.810348,-24.819436)">

<path
   class="st0"
   d="m 169.9,239.7 c -0.5,0 -1,0 -1.4,0 -14.5,0.8 -26.1,12.8 -26.1,27.5 0,15.2 12.3,27.5 27.5,27.5 14.7,0 26.8,-11.6 27.5,-26.1 0,-0.5 0,-1 0,-1.4 0,-15.1 -12.3,-27.5 -27.5,-27.5 z"
   id="path940" />


<path
   class="st0"
   d="m 249.5,239.8 c -0.5,0 -1,0 -1.4,0 -15.2,0 -27.5,12.3 -27.5,27.5 0,0.5 0,1 0,1.4 0.7,14.5 12.8,26.1 27.5,26.1 15.2,0 27.5,-12.3 27.5,-27.5 0,-14.7 -11.6,-26.8 -26.1,-27.5 z"
   id="path942" />


<path
   class="st1"
   d="m 276,111 c -20.8,-8.2 -43.4,-12.8 -67.1,-12.8 -100.5,0 -182,81.5 -182,182 0,100.6 81.5,182.1 182,182.1 100.6,0 182.1,-81.5 182.1,-182.1 0,-47.5 -18.2,-90.7 -48,-123.1 -18.4,-20 -41.2,-35.9 -67,-46.1 z m 27.9,161.8 c 0,25.3 -9.9,48.2 -26,65.2 l 35.4,35.4 c 3.1,3.1 3.1,8.2 0,11.3 -1.6,1.6 -3.6,2.3 -5.7,2.3 -2.1,0 -4.1,-0.8 -5.7,-2.3 l -35.9,-36 c -0.6,0.5 -1.3,0.9 -1.9,1.4 v 15.7 c 0,9.4 -7.6,17 -17,17 h -4.6 v -19.7 c 0,-4.4 -3.6,-8 -8,-8 -4.4,0 -8,3.6 -8,8 v 19.7 H 217 v -19.7 c 0,-4.4 -3.6,-8 -8,-8 -4.4,0 -8,3.6 -8,8 v 19.7 h -9.5 v -19.7 c 0,-4.4 -3.6,-8 -8,-8 -4.4,0 -8,3.6 -8,8 v 19.7 h -4.6 c -9.4,0 -17,-7.6 -17,-17 v -15.7 c -0.6,-0.5 -1.3,-0.9 -1.9,-1.4 l -36.1,36.1 c -1.6,1.6 -3.6,2.3 -5.7,2.3 -2,0 -4.1,-0.8 -5.7,-2.3 -3.1,-3.1 -3.1,-8.2 0,-11.3 L 140,338 c -16.1,-17 -26,-39.9 -26,-65.2 0,-21.4 7.1,-41.2 19,-57 l -28.5,-28.5 c -3.1,-3.1 -3.1,-8.2 0,-11.3 3.1,-3.1 8.2,-3.1 11.3,0 l 27.9,27.9 c 17,-16.1 40,-26 65.2,-26 25.3,0 48.2,9.9 65.2,26 L 302,176 c 3.1,-3.1 8.2,-3.1 11.3,0 3.1,3.1 3.1,8.2 0,11.3 l -28.5,28.5 c 12,15.8 19.1,35.6 19.1,57 z"
   id="path944" />


<path
   class="st0"
   d="m 460.9,56.2 c -4.3,0 -8.4,1.1 -11.9,3.1 C 429.9,46.4 410.3,41.8 390.9,45.8 360.7,52.1 339.9,77.2 332.2,88 L 312,74 c -3.9,-2.7 -9.3,-1.7 -12,2.2 l -14.7,21.3 c 25.1,10.5 48.1,26.4 67,46.1 l 14.6,-21.2 c 2.7,-3.9 1.7,-9.3 -2.2,-12 L 345.3,97 c 6.5,-9 24.4,-30.6 48.8,-35.6 14.5,-3 29.3,0.4 44.2,10 -1.1,2.8 -1.7,5.8 -1.7,8.9 0,13.4 10.8,24.2 24.2,24.2 13.4,0 24.2,-10.8 24.2,-24.2 C 485.1,67 474.3,56.2 460.9,56.2 Z"
   id="path946" />


</g>
</svg>
