<?xml version="1.0" encoding="UTF-8" standalone="no"?>
<!-- Uploaded to: SVG Repo, www.svgrepo.com, Generator: SVG Repo Mixer Tools -->

<svg
   width="800px"
   height="800px"
   viewBox="-9.02 -0.018 100.036 100.036"
   version="1.1"
   id="svg30"
   sodipodi:docname="disaster.svg"
   inkscape:version="1.2.2 (1:1.2.2+202305151914+b0a8486541)"
   xmlns:inkscape="http://www.inkscape.org/namespaces/inkscape"
   xmlns:sodipodi="http://sodipodi.sourceforge.net/DTD/sodipodi-0.dtd"
   xmlns="http://www.w3.org/2000/svg"
   xmlns:svg="http://www.w3.org/2000/svg">
  <defs
     id="defs34" />
  <sodipodi:namedview
     id="namedview32"
     pagecolor="#ffffff"
     bordercolor="#666666"
     borderopacity="1.0"
     inkscape:pageshadow="2"
     inkscape:pageopacity="0.0"
     inkscape:pagecheckerboard="0"
     showgrid="false"
     inkscape:zoom="0.915"
     inkscape:cx="245.90164"
     inkscape:cy="287.97814"
     inkscape:window-width="1920"
     inkscape:window-height="973"
     inkscape:window-x="1920"
     inkscape:window-y="0"
     inkscape:window-maximized="1"
     inkscape:current-layer="svg30"
     inkscape:showpageshadow="2"
     inkscape:deskcolor="#d1d1d1" />
  <path
     fill="#34495E"
     d="M40.972 72.902s-38.986.031-38.944.041c.017.865 0 4.022 0 4.022l38.943 23.052 38.944-23.052s-.035-3.198-.008-3.987c-.092-.194-38.935-.076-38.935-.076z"
     id="path2" />
  <path
     fill="#ECF0F1"
     d="M40.972 25.932s-38.986.031-38.944.041c.017.865 0 46.996 0 46.996L40.972 96.02l38.944-23.051s-.004-46.171.022-46.96c-.089-.196-38.966-.077-38.966-.077z"
     id="path4"
     style="fill:#6d8aca;fill-opacity:1" />
  <path
     fill="#2C3E50"
     d="M2.028 72.943c.017.865 0 4.022 0 4.022l38.943 23.052V72.902c.001 0-38.986.032-38.943.041z"
     id="path6" />
  <path
     fill="#BDC3C7"
     d="M2.028 25.973c.017.865 0 46.996 0 46.996L40.972 96.02V25.932s-38.987.031-38.944.041z"
     id="path8"
     style="fill:#6d8aca;fill-opacity:1" />
  <path
     fill="#BDC3C7"
     d="M40.972 23.968s-40.983.031-40.941.041c.018.865 0 4.022 0 4.022l40.94 24.051 40.94-24.051s-.033-3.198-.008-3.987c-.09-.195-40.931-.076-40.931-.076z"
     id="path10"
     style="fill:#455da3;fill-opacity:1" />
  <path
     fill="#95A5A6"
     d="M46.994 54.949l7.004-3.998v12.992l-7.004 3.996v-12.99zm10.007-5.997l7.005-3.998v12.993l-7.005 3.996V48.952zM.034 28.032L40.86 52.016h.111V24.033H.034v.217c.008.758.003 2.276 0 3.141v.641zm66.974 14.924l7.007-3.997V51.95l-7.007 3.997V42.956zM46.994 71.949l7.004-3.998v12.992l-7.004 3.998V71.949zm20.014-11.994l7.007-3.997V68.95l-7.007 3.997V59.955z"
     id="path12"
     style="fill:#455da3;fill-opacity:1" />
  <path
     fill="#2C3E50"
     d="M57.008 72.955l7.005-3.997v17.421l-7.005 4.146v-17.57z"
     id="path14" />
  <path
     fill="#C0392C"
     d="M57.008 65.955l7.005-3.997v3.992l-7.005 3.997v-3.992z"
     id="path16" />
  <path
     fill="#ECF0F1"
     d="M40.972-.018L0 24.033l40.972 24.051 41.034-24.051L40.972-.018z"
     id="path18"
     style="fill:#6d8aca;fill-opacity:1" />
  <path
     fill="#D48A6D"
     d="M40.972 4.011L5.991 24.033l34.981 20.022 34.981-20.022L40.972 4.011z"
     id="path20"
     style="fill:#2c3e50;fill-opacity:1" />
  <path
     fill="#7F8C8D"
     d="M34.981 54.98l-6.989-3.998v12.992l6.989 3.996V54.98zm-9.985-5.997l-6.989-3.998v12.994l6.989 3.996V48.983zm-9.985-5.996l-6.989-3.998V51.98l6.989 3.998V42.987zm19.97 28.982l-6.989-3.996v12.99l6.989 3.998V71.969zm-9.985-5.996l-6.989-3.996v12.99l6.989 3.998V65.973zm-9.985-5.996l-6.989-3.998v12.992l6.989 3.998V59.977z"
     id="path22"
     style="fill:#455da3;fill-opacity:1" />
  <path
     fill="#BDC3C7"
     d="M74.015 44.58l-7.007 4.372v1.999l7.007-4.372zm0 17l-7.007 4.372v1.999l7.007-4.373zM64.006 50.576l-7.005 4.373v1.998l7.005-4.373zm-10.008 5.996l-7.004 4.373v1.998l7.004-4.371zm0 17l-7.004 4.373v1.998l7.004-4.371z"
     id="path24" />
  <path
     fill="#95A5A6"
     d="M27.992 56.604v2l6.989 4.371v-1.998zm0 16.99v1.998l6.989 4.373v-2zm-9.985-5.996v1.998l6.989 4.373v-2zm0-16.991v1.998l6.989 4.374V54.98zM8.019 61.6v1.998l6.992 4.375v-2zm0-16.991v1.999l6.992 4.374v-1.999z"
     id="path26" />
  <path
     fill="#AA6F57"
     d="M40.972 6.011l33.234 19.022 1.747-1L40.972 4.011 5.991 24.033l1.747 1z"
     id="path28"
     style="fill:#455da3;fill-opacity:1" />
  <g
     style="fill:#ff7f2a"
     id="g987"
     transform="matrix(1.0210595,0,0,1.0210595,18.592978,0.34468334)">
    <g
       id="g978"
       style="fill:#ff7f2a">
      <path
         d="M 34.137,20.862 C 33.662,20.101 32.83,19.63 31.933,19.63 H 25.577 L 32.284,3.598 C 32.619,2.796 32.532,1.881 32.05,1.158 31.567,0.435 30.757,0 29.888,0 h -8.444 c -1.15,0 -2.163,0.761 -2.49,1.863 l -7.283,24.565 c -0.233,0.786 -0.082,1.627 0.409,2.284 0.49,0.657 1.261,1.035 2.081,1.035 h 6.807 l -1.189,14.106 c -0.083,0.987 0.548,1.898 1.503,2.164 0.955,0.264 1.962,-0.187 2.399,-1.076 l 10.582,-21.56 c 0.396,-0.803 0.347,-1.758 -0.126,-2.519 z"
         id="path976"
         style="fill:#ff7f2a" />
    </g>
  </g>
</svg>
