<?xml version="1.0" encoding="UTF-8" standalone="no"?>
<!-- Uploaded to: SVG Repo, www.svgrepo.com, Generator: SVG Repo Mixer Tools -->

<svg
   width="800px"
   height="800px"
   viewBox="0 0 1024 1024"
   class="icon"
   version="1.1"
   id="svg20"
   sodipodi:docname="node-svgrepo-com.svg"
   inkscape:version="1.2.2 (1:1.2.2+202305151914+b0a8486541)"
   xml:space="preserve"
   xmlns:inkscape="http://www.inkscape.org/namespaces/inkscape"
   xmlns:sodipodi="http://sodipodi.sourceforge.net/DTD/sodipodi-0.dtd"
   xmlns="http://www.w3.org/2000/svg"
   xmlns:svg="http://www.w3.org/2000/svg"><defs
     id="defs24"><inkscape:path-effect
       effect="skeletal"
       id="path-effect669"
       is_visible="true"
       lpeversion="1"
       pattern="M 0,24.150943 C 0,10.819623 10.819623,0 24.150943,0 c 13.331321,0 24.150944,10.819623 24.150944,24.150943 0,13.331321 -10.819623,24.150944 -24.150944,24.150944 C 10.819623,48.301887 0,37.482264 0,24.150943 Z"
       copytype="single_stretched"
       prop_scale="3.5"
       scale_y_rel="false"
       spacing="0"
       normal_offset="0"
       tang_offset="0"
       prop_units="false"
       vertical_pattern="false"
       hide_knot="false"
       fuse_tolerance="0" /></defs><sodipodi:namedview
     id="namedview22"
     pagecolor="#ffffff"
     bordercolor="#666666"
     borderopacity="1.0"
     inkscape:pageshadow="2"
     inkscape:pageopacity="0.0"
     inkscape:pagecheckerboard="0"
     showgrid="false"
     inkscape:zoom="0.6470027"
     inkscape:cx="26.275006"
     inkscape:cy="518.54497"
     inkscape:window-width="1920"
     inkscape:window-height="939"
     inkscape:window-x="0"
     inkscape:window-y="34"
     inkscape:window-maximized="1"
     inkscape:current-layer="svg20"
     inkscape:showpageshadow="2"
     inkscape:deskcolor="#d1d1d1" /><path
     d="M541.279573 529.974613c-17.44896-10.07616-43.88864-11.175253-59.00288-2.450773L85.2992 756.722347c-15.121067 8.72448-13.216427 23.988907 4.232533 34.065066l388.5056 224.303787c17.455787 10.07616 43.895467 11.175253 59.009707 2.450773l396.977493-229.198506c15.11424-8.72448 13.216427-23.988907-4.23936-34.065067l-388.5056-224.303787z"
     fill="#4762AF"
     id="path2" /><path
     d="M75.093333 249.883307v521.632426l434.56512 251.890347V501.773653L75.093333 249.883307z"
     fill="#4762AF"
     id="path4" /><path
     d="M507.262293 495.363413l436.927147-247.207253v524.376747L507.262293 679.0144V495.363413z"
     fill="#4762AF"
     id="path6" /><path
     d="M541.279573 8.33536C523.830613-1.7408 497.390933-2.833067 482.276693 5.891413L85.2992 235.083093c-15.121067 8.731307-13.216427 23.995733 4.232533 34.071894l388.5056 224.303786c17.455787 10.07616 43.895467 11.168427 59.009707 2.443947l396.977493-229.19168c15.11424-8.731307 13.216427-23.995733-4.23936-34.071893L541.279573 8.33536zM117.848747 430.30528c0 17.005227 10.349227 36.78208 23.10144 44.148053l179.042986 103.36256c12.752213 7.365973 23.10144-0.464213 23.10144-17.462613 0-17.005227-10.349227-36.78208-23.10144-44.148053L140.950187 412.842667c-12.752213-7.365973-23.10144 0.464213-23.10144 17.462613z"
     fill="#6D8ACA"
     id="path8" /><path
     d="M429.458773 579.413333c14.72512 8.4992 26.678613 29.20448 26.678614 46.20288 0 17.005227-11.953493 23.906987-26.678614 15.407787-14.718293-8.506027-26.678613-29.211307-26.678613-46.209707 0-17.005227 11.96032-23.906987 26.678613-15.40096z"
     fill="#60E000"
     id="path10" /><path
     d="M117.848747 562.56512c0 17.005227 10.349227 36.78208 23.10144 44.148053l179.042986 103.369387c12.752213 7.359147 23.10144-0.464213 23.10144-17.46944 0-16.9984-10.349227-36.78208-23.10144-44.141227L140.950187 545.102507c-12.752213-7.365973-23.10144 0.464213-23.10144 17.462613z"
     fill="#6D8ACA"
     id="path12" /><path
     d="M429.458773 711.673173c14.72512 8.4992 26.678613 29.20448 26.678614 46.209707 0 16.9984-11.953493 23.90016-26.678614 15.40096-14.718293-8.4992-26.678613-29.20448-26.678613-46.209707 0-16.9984 11.96032-23.90016 26.678613-15.40096z"
     fill="#60E000"
     id="path14" /><path
     d="M117.848747 694.831787c0 16.9984 10.349227 36.78208 23.10144 44.141226l179.042986 103.369387c12.752213 7.359147 23.10144-0.464213 23.10144-17.46944 0-16.9984-10.349227-36.78208-23.10144-44.141227L140.950187 677.362347c-12.752213-7.359147-23.10144 0.464213-23.10144 17.46944z"
     fill="#6D8ACA"
     id="path16" /><path
     d="M429.458773 843.933013c14.72512 8.4992 26.678613 29.20448 26.678614 46.209707 0 16.9984-11.953493 23.90016-26.678614 15.40096-14.718293-8.4992-26.678613-29.20448-26.678613-46.209707 0-16.9984 11.96032-23.90016 26.678613-15.40096z"
     fill="#60E000"
     id="path18" /><path
     style="fill:#00ff00;stroke:#000000;stroke-width:1.28px;stroke-linecap:butt;stroke-linejoin:miter;stroke-opacity:1"
     d="m 568.6858,988.56856 34.45286,-150.50256 67.48702,60.82497 38.61578,-71.97832 87.27118,14.48139 70.94774,-61.82462 76.72906,-7.03652 -434.53098,250.8732 z"
     id="path874" /><text
     xml:space="preserve"
     style="font-style:normal;font-weight:normal;font-size:51.2px;line-height:1.25;font-family:sans-serif;fill:#e6e6e6;fill-opacity:1;stroke:none;stroke-width:1.28"
     x="596.73132"
     y="1123.4369"
     id="text764"
     transform="skewY(-31.392545)"><tspan
       sodipodi:role="line"
       id="tspan762"
       style="font-style:normal;font-variant:normal;font-weight:normal;font-stretch:normal;font-size:119.467px;font-family:sans-serif;-inkscape-font-specification:'sans-serif, Normal';font-variant-ligatures:normal;font-variant-caps:normal;font-variant-numeric:normal;font-variant-east-asian:normal;fill:#e6e6e6;stroke-width:1.28"
       x="596.73132"
       y="1123.4369">WWW</tspan></text></svg>
