<?xml version="1.0" encoding="UTF-8" standalone="no"?>
<!-- Uploaded to: SVG Repo, www.svgrepo.com, Generator: SVG Repo Mixer Tools -->

<svg
   width="800px"
   height="800px"
   viewBox="0 -33.5 1091 1091"
   class="icon"
   version="1.1"
   id="svg20"
   sodipodi:docname="f-ztn.svg"
   xml:space="preserve"
   inkscape:version="1.2.2 (1:1.2.2+202305151914+b0a8486541)"
   xmlns:inkscape="http://www.inkscape.org/namespaces/inkscape"
   xmlns:sodipodi="http://sodipodi.sourceforge.net/DTD/sodipodi-0.dtd"
   xmlns="http://www.w3.org/2000/svg"
   xmlns:svg="http://www.w3.org/2000/svg"><defs
     id="defs24"><filter
       style="color-interpolation-filters:sRGB;"
       inkscape:label="Drop Shadow"
       id="filter8649"
       x="-0.01"
       y="-0.030833333"
       width="1.0616667"
       height="1.0408333"><feFlood
         flood-opacity="0.498039"
         flood-color="rgb(0,0,0)"
         result="flood"
         id="feFlood8639" /><feComposite
         in="flood"
         in2="SourceGraphic"
         operator="in"
         result="composite1"
         id="feComposite8641" /><feGaussianBlur
         in="composite1"
         stdDeviation="0.1"
         result="blur"
         id="feGaussianBlur8643" /><feOffset
         dx="1"
         dy="-0.5"
         result="offset"
         id="feOffset8645" /><feComposite
         in="SourceGraphic"
         in2="offset"
         operator="over"
         result="composite2"
         id="feComposite8647" /></filter></defs><sodipodi:namedview
     id="namedview22"
     pagecolor="#ffffff"
     bordercolor="#666666"
     borderopacity="1.0"
     inkscape:showpageshadow="2"
     inkscape:pageopacity="0.0"
     inkscape:pagecheckerboard="0"
     inkscape:deskcolor="#d1d1d1"
     showgrid="false"
     inkscape:zoom="0.65230601"
     inkscape:cx="-4.5990685"
     inkscape:cy="408.55058"
     inkscape:window-width="1920"
     inkscape:window-height="973"
     inkscape:window-x="1920"
     inkscape:window-y="0"
     inkscape:window-maximized="1"
     inkscape:current-layer="svg20" /><g
     id="g2406"
     transform="matrix(0.82457588,0,0,0.82457588,145.34629,34.392065)"><path
       d="m 287.08456,203.32477 c 87.58141,50.56313 158.68624,173.72361 158.68624,274.85267 0,101.13187 -71.10484,142.18442 -158.68624,91.61849 C 199.50315,519.23 128.39831,396.07232 128.39831,294.94045 c 0,-101.12906 71.10484,-142.18162 158.68625,-91.61568 z M 888.8231,453.52009 c 111.4476,64.34364 201.9299,221.06325 201.9299,349.75332 0,128.69008 -90.4823,180.93089 -201.9299,116.58725 C 777.37268,855.51422 686.89041,698.79461 686.89041,570.10453 c 0,-128.69007 90.48227,-180.93088 201.93269,-116.58444 z"
       fill="#6d8aca"
       id="path2" /><path
       d="m 408.81705,97.625582 c 67.18558,38.788538 121.73249,133.265808 121.73249,210.845688 0,77.57988 -54.54691,109.07137 -121.73249,70.28284 -67.18559,-38.79135 -121.73249,-133.26862 -121.73249,-210.8485 0,-77.579882 54.5469,-109.071371 121.73249,-70.280028 z"
       fill="#6d8aca"
       id="path4" /><path
       d="M 686.89041,32.482384 C 818.31583,108.36214 925.01937,293.173 925.01937,444.92972 c 0,151.75952 -106.70354,213.36221 -238.12896,137.48245 C 555.46499,506.53521 448.76425,321.72155 448.76425,169.96483 c 0,-151.756717 106.70074,-213.362206 238.12616,-137.482446 z"
       fill="#6d8aca"
       id="path6" /><path
       d="M 925.01937,571.63352 287.08456,203.32477 v 366.47116 l 637.93481,368.31156 z"
       fill="#6d8aca"
       id="path8" /><path
       d="m 1040.1618,867.22989 -128.39831,74.12915 v 61.14256 L 1040.1618,928.37248 Z M 522.11347,13.797901 386.72952,91.961322 V 127.68908 L 522.11347,49.525663 Z M 327.23094,86.796437 194.3579,163.51223 v 83.41808 L 327.23094,170.21452 Z M 173.53845,193.72442 51.733013,264.04934 v 57.04939 L 173.53845,250.77381 Z"
       fill="#6d8aca"
       id="path10" /><path
       d="m 158.68625,277.45391 c 87.58141,50.56593 158.68905,173.72361 158.68905,274.85548 0,101.12906 -71.10764,142.18162 -158.68905,91.61568 C 71.104838,593.36195 0,470.20427 0,369.0724 0,267.94053 71.104838,226.88798 158.68625,277.45391 Z m 601.73854,250.19533 c 111.44761,64.34644 201.92988,221.06604 201.92988,349.75612 0,128.69004 -90.48227,180.93084 -201.92988,116.58444 C 648.97437,929.64617 558.4921,772.92656 558.4921,644.23648 c 0,-128.69008 90.48227,-180.93088 201.93269,-116.58724 z"
       fill="#4762af"
       id="path12" /><path
       d="m 280.41874,171.75472 c 67.18839,38.78854 121.73249,133.26862 121.73249,210.8485 0,77.57988 -54.5441,109.07137 -121.73249,70.28003 -67.18559,-38.78854 -121.73249,-133.26581 -121.73249,-210.84569 0,-77.57988 54.5469,-109.07137 121.73249,-70.28284 z"
       fill="#4762af"
       id="path14" /><path
       d="m 558.4921,106.61433 c 131.42822,75.87696 238.12896,260.69062 238.12897,412.44734 0,151.75672 -106.70075,213.3622 -238.12897,137.48244 C 427.06668,580.66435 320.36594,395.85349 320.36594,244.09678 c 0,-151.759524 106.70074,-213.362208 238.12616,-137.48245 z"
       fill="#4762af"
       id="path16" /><path
       d="M 796.62107,645.76547 158.68625,277.45391 V 643.92507 L 796.62106,1012.2366 V 645.76547 Z"
       fill="#4762af"
       id="path18" /></g><g
     id="g172"
     transform="matrix(0.98912058,0,0,0.98912058,115.4582,36.954975)"
     inkscape:groupmode="layer" /><g
     id="g883"
     transform="translate(171.36496,-21.795782)"><g
       id="g234"
       transform="matrix(1.1925376,0,0,1.1925376,1.6693926,-164.24042)"><path
         d="m 29.743407,243.06536 c -2.254696,-1.30275 -5.669926,-1.44308 -7.621214,-0.31668 L 3.92723,253.25227 c -1.951289,1.12829 -1.706667,3.10044 0.548029,4.4013 L 494.42133,540.52409 c 2.2547,1.30276 5.66993,1.44308 7.62311,0.31668 l 18.19307,-10.50359 c 1.95319,-1.12829 1.70667,-3.10044 -0.54613,-4.4013 z"
         fill="#4762af"
         id="path138" /><path
         d="m 521.29375,529.06856 c 0,-0.89315 -0.54234,-1.30275 -1.21173,-0.9178 l -21.82258,12.59899 c -0.6694,0.38684 -1.21174,1.42601 -1.21174,2.31727 v 429.07496 c 0,0.89126 0.54235,1.30276 1.21174,0.91592 l 21.82258,-12.599 c 0.66939,-0.38684 1.21173,-1.42411 1.21173,-2.31727 z"
         fill="#4762af"
         id="path140" /><path
         d="m 499.52047,549.98661 c 0,-7.33298 -4.46388,-15.86442 -9.96314,-19.03882 L 9.965037,254.0544 C 4.463881,250.88 0,254.25541 0,261.58649 v 416.27875 c 0,7.33108 4.463881,15.86252 9.965037,19.03692 l 479.592293,276.8934 c 5.49926,3.17629 9.96314,-0.19911 9.96314,-7.53209 z"
         fill="#6d8aca"
         id="path142" /><path
         d="m 467.75751,564.52172 c 0,-6.17434 -3.75846,-13.35751 -8.38921,-16.03129 L 36.361481,304.26643 c -4.630756,-2.67378 -8.391111,0.16877 -8.391111,6.34311 v 350.53037 c 0,6.17434 3.760356,13.35751 8.391111,16.03129 L 459.3683,921.3933 c 4.63075,2.67378 8.38921,-0.16877 8.38921,-6.34311 z"
         fill="#92b3e1"
         id="path144" /><path
         d="m 138.61167,802.87668 c -7.91893,-4.57197 -19.9168,-5.0688 -26.7738,-1.10933 l -99.41144,57.3952 c -6.858904,3.95947 -5.996089,10.88663 1.922844,15.45861 L 265.33926,1019.5304 c 7.91893,4.572 19.9168,5.0688 26.7757,1.1094 l 99.40954,-57.39524 c 6.85891,-3.95946 5.99799,-10.88663 -1.92094,-15.4586 z"
         fill="#4762af"
         id="path146" /><path
         d="m 247.86489,834.2547 -23.52166,-13.57938 v 46.50287 l 23.52166,13.57938 z"
         fill="#e4e9f5"
         id="path148" /></g><g
       id="fingerprint_line"
       style="fill:none;fill-rule:evenodd;stroke:none;stroke-width:1;filter:url(#filter8649)"
       transform="matrix(15.392279,6.8530841,0,15.392279,79.188385,315.25262)"><path
         d="M 24,0 V 24 H 0 V 0 Z m -11.40651,23.257841 -0.01155,0.0017 -0.07106,0.03553 -0.019,0.0037 v 0 l -0.01516,-0.0037 -0.07106,-0.03553 c -0.0098,-0.0031 -0.01861,-4.89e-4 -0.02351,0.0054 l -0.0041,0.01092 -0.01709,0.427279 0.005,0.02039 0.01101,0.01222 0.103573,0.07398 0.01487,0.0039 v 0 l 0.01177,-0.0039 0.103575,-0.07398 0.0126,-0.01604 v 0 l 0.0034,-0.01656 -0.01709,-0.427279 c -0.002,-0.01013 -0.0085,-0.01653 -0.01607,-0.01799 z m 0.264901,-0.112555 -0.01384,0.002 -0.184705,0.09235 -0.01,0.01024 v 0 l -0.0027,0.01121 0.0179,0.429528 0.0048,0.01278 v 0 l 0.0085,0.0071 0.200954,0.09275 c 0.01209,0.0037 0.02289,-2.52e-4 0.02849,-0.008 l 0.004,-0.01406 -0.03415,-0.614631 c -0.0024,-0.01194 -0.01027,-0.01953 -0.01929,-0.02125 z m -0.715344,0.002 c -0.0098,-0.0049 -0.02087,-0.002 -0.02741,0.0053 l -0.0057,0.01394 -0.03415,0.614631 c -6.39e-4,0.0115 0.007,0.0207 0.01688,0.0234 l 0.01561,-0.0013 0.200955,-0.09275 0.0094,-0.0081 v 0 l 0.0039,-0.0118 0.0179,-0.429528 -0.0032,-0.01259 v 0 l -0.0095,-0.0089 z"
         id="MingCute"
         fill-rule="nonzero" /><path
         d="M 12,4 C 8.13401,4 5,7.13401 5,11 v 2 C 5,13.5523 4.55228,14 4,14 3.44772,14 3,13.5523 3,13 v -2 c 0,-4.97056 4.02944,-9 9,-9 4.9706,0 9,4.02944 9,9 v 3 c -2e-4,0.2621 -0.0112,0.5244 -0.0248,0.786 -0.0244,0.4731 -0.0734,1.127 -0.1719,1.8491 -0.1888,1.3848 -0.5855,3.2412 -1.5033,4.4649 -0.3314,0.4418 -0.9582,0.5314 -1.4,0.2 -0.4418,-0.3314 -0.5314,-0.9582 -0.2,-1.4 0.5822,-0.7763 0.9355,-2.1699 1.1217,-3.5351 0.089,-0.6529 0.1338,-1.249 0.1562,-1.6822 C 18.9897,14.4553 18.9996,14.2273 19,13.9996 V 11 C 19,7.13401 15.866,4 12,4 Z m 0,4 C 10.3431,8 9,9.34315 9,11 v 1 C 9,12.9403 8.69626,14.1008 8.13235,15.1581 7.56532,16.2213 6.68336,17.2764 5.44721,17.8944 4.95324,18.1414 4.35256,17.9412 4.10557,17.4472 3.85858,16.9532 4.05881,16.3526 4.55279,16.1056 5.31664,15.7236 5.93468,15.0287 6.36765,14.2169 6.80374,13.3992 7,12.5597 7,12 v -1 c 0,-2.76142 2.23858,-5 5,-5 2.7614,0 5.000016,2.23858 5.000016,5 v 1 0.1166 c 5.84e-4,2.9249 0.0014,6.8506 -3.359816,9.6516 -0.4243,0.3536 -1.0549,0.2963 -1.4084,-0.128 -0.3536,-0.4243 -0.2963,-1.0549 0.128,-1.4084 C 14.9537,18.0702 15,15.0635 15,12 V 11 C 15,9.34315 13.6569,8 12,8 Z m 1,3.5 c 0,-0.5523 -0.4477,-1 -1,-1 -0.5523,0 -1,0.4477 -1,1 0,1.1974 -0.1215,2.7023 -0.5737,4.0588 -0.45124,1.3537 -1.1944,2.4572 -2.37351,3.0468 -0.49398,0.247 -0.69421,0.8476 -0.44722,1.3416 0.24699,0.494 0.84767,0.6942 1.34164,0.4472 C 10.7681,19.484 11.7749,17.8375 12.3237,16.1912 12.8715,14.5477 13,12.8026 13,11.5 Z"
         id="形状"
         fill="#09244b" /></g></g></svg>
