<?xml version="1.0" encoding="UTF-8" standalone="no"?>
<svg
   viewBox="0 0 1453.41 869.77"
   version="1.1"
   id="svg36"
   sodipodi:docname="kylin-logo.svg"
   inkscape:version="1.2.2 (1:1.2.2+202305151914+b0a8486541)"
   xmlns:inkscape="http://www.inkscape.org/namespaces/inkscape"
   xmlns:sodipodi="http://sodipodi.sourceforge.net/DTD/sodipodi-0.dtd"
   xmlns="http://www.w3.org/2000/svg"
   xmlns:svg="http://www.w3.org/2000/svg">
  <sodipodi:namedview
     id="namedview38"
     pagecolor="#ffffff"
     bordercolor="#666666"
     borderopacity="1.0"
     inkscape:showpageshadow="2"
     inkscape:pageopacity="0.0"
     inkscape:pagecheckerboard="0"
     inkscape:deskcolor="#d1d1d1"
     showgrid="false"
     inkscape:zoom="0.42425008"
     inkscape:cx="445.49196"
     inkscape:cy="675.30924"
     inkscape:window-width="1920"
     inkscape:window-height="973"
     inkscape:window-x="1920"
     inkscape:window-y="0"
     inkscape:window-maximized="1"
     inkscape:current-layer="svg36" />
  <defs
     id="defs4">
    <style
       id="style2">.e15b8226-9ee5-4330-8d02-e9c3d030c977{fill:#fff;}.bdd12fea-835e-4ff5-afe5-35366f721063{fill:none;}</style>
  </defs>
  <g
     id="e093ad10-7e41-4833-904d-9d3cc34c83fa"
     data-name="图层 2"
     style="fill:#de0515;fill-opacity:1">
    <g
       id="a4f34631-b161-40df-bc77-9c0d0dc2fe82"
       data-name="图层 1"
       style="fill:#de0515;fill-opacity:1">
      <path
         class="e15b8226-9ee5-4330-8d02-e9c3d030c977"
         d="M373.87,262.41,323,163.35h43.16l14.07,34c4.55,11.54,8.86,22.25,13.63,34.19h.9c4.77-11.94,9.32-22.65,14.09-34.19l14.08-34H465.4l-51.09,99.06v54.16H373.87Z"
         id="path6"
         style="fill:#de0515;fill-opacity:1" />
      <path
         class="e15b8226-9ee5-4330-8d02-e9c3d030c977"
         d="M482.73,163.35h40.66V285.68H589v30.89H482.73Z"
         id="path8"
         style="fill:#de0515;fill-opacity:1" />
      <path
         class="e15b8226-9ee5-4330-8d02-e9c3d030c977"
         d="M618.38,163.35h40.67V316.57H618.38Z"
         id="path10"
         style="fill:#de0515;fill-opacity:1" />
      <path
         class="e15b8226-9ee5-4330-8d02-e9c3d030c977"
         d="M697.9,163.35h41.33l42,73.32,16.59,34H799c-2.26-16.26-5.44-38.3-5.44-56.63V163.35h38.59V316.57H790.78L749,242.64l-16.57-33.57h-1.13c1.82,17.1,5.22,38.1,5.22,56.64v50.86H697.9Z"
         id="path12"
         style="fill:#de0515;fill-opacity:1" />
      <path
         class="e15b8226-9ee5-4330-8d02-e9c3d030c977"
         d="M860.83,297.42l22.93-25.34c12,9.28,27.72,15.67,41.11,15.67,15,0,22-5.15,22-13.4,0-8.86-9.32-11.74-23.86-17.29l-21.58-8.25c-17.71-6.37-34.28-19.77-34.28-42,0-25.74,25.43-46.33,61.32-46.33,19.53,0,40.2,6.79,55,20.17l-20.21,23.08C952.12,196.09,941.68,192,928.51,192c-12.5,0-20.21,4.53-20.21,12.76,0,8.45,10.67,11.74,25.66,17.1l21.12,7.62c20.9,7.61,33.38,20.39,33.38,42,0,25.54-23.61,48-64.5,48C901.94,319.46,878.32,312,860.83,297.42Z"
         id="path14"
         style="fill:#de0515;fill-opacity:1" />
      <path
         class="e15b8226-9ee5-4330-8d02-e9c3d030c977"
         d="M1009,239.13c0-50.24,31.32-78.66,77.44-78.66s77.42,28.62,77.42,78.66c0,50.26-31.32,80.33-77.42,80.33S1009,289.39,1009,239.13Zm113.54,0c0-29.64-13.86-47.15-36.1-47.15s-35.89,17.51-35.89,47.15c0,29.87,13.63,48.62,35.89,48.62S1122.53,269,1122.53,239.13Z"
         id="path16"
         style="fill:#de0515;fill-opacity:1" />
      <path
         class="e15b8226-9ee5-4330-8d02-e9c3d030c977"
         d="M1195.31,163.35h107.88v30.47H1236v33.57h57.68v30.69H1236v58.49h-40.66Z"
         id="path18"
         style="fill:#de0515;fill-opacity:1" />
      <path
         class="e15b8226-9ee5-4330-8d02-e9c3d030c977"
         d="M1365.25,193.82h-45.66V163.35h132.18v30.47h-45.88V316.57h-40.64Z"
         id="path20"
         style="fill:#de0515;fill-opacity:1" />
      <path
         class="e15b8226-9ee5-4330-8d02-e9c3d030c977"
         d="M49.78,710.64c-.36,48.48-4.05,112.12-23.21,152.11C21,857.21,7,847.57,0,844.61c17.35-38.84,18.46-94.74,18.46-139.52V556H80c-2.58-8.89-5.55-18.5-8.85-26.67l39.81-8.5c5.52,10.73,10.33,24.05,13.66,35.17h50.5v35.53H130.54v22.93h42.79v96.22Zm122.44,93.62c0,9.25,1.11,22.6,2.58,30-46.09,15.18-56.42,19.25-61.94,24a113.86,113.86,0,0,0-6.67-18.5c-33.89,10.37-42.75,14.43-47.55,18.5l-.36-2.2c-1.48-7.77-7.39-21.09-11.44-27,5.16-2.95,10.69-8.13,10.69-21.81V716.18H86.29v30.35h22.13v31.85H86.29v36.25l19.9-4.79a126,126,0,0,0,.39,16.63c4.06-3.31,7.75-8.89,7.75-18.5V717.69h29.12v28.84h25.07v31.85H143.45v34.41ZM49.78,591.49v22.93H64.91V591.49Zm15.13,55.14H49.78v31.82H64.91Zm40.92-55.14H90v22.93h15.85ZM90,678.45h15.85V646.63H90Zm40.56-31.82v31.82h15.13V646.63ZM256.28,793.9c-12.16,28.5-33.17,57.37-52.72,75.15-6.63-7-21.41-19.62-30.23-25.55,18.79-14.44,36.48-37.73,46.44-60.69Zm92.56-51.8v37.75H182.15V742.1h22.52V607.4H183.26V570.75h21.41V522.63h36.12v48.12h46.84V522.63h37.23v48.12h21V607.4h-21V742.1Zm-108-134.7v21.45h46.84V607.4Zm0,77.35h46.84V662.9H240.79Zm0,57.35h46.84V719.16H240.79Zm63.41,38.48c15.49,20.37,35,48.87,43.53,67.38l-34.28,19.22c-7.39-18.5-25.82-47.73-41.68-69.58Z"
         id="path22"
         style="fill:#de0515;fill-opacity:1" />
      <path
         class="e15b8226-9ee5-4330-8d02-e9c3d030c977"
         d="M699.7,783.92h19.16v33.66H699.7v50h-31v-50H631.1v-.36H616.72c4.08-18.14,8.49-46.26,10.71-68.46l28,2.23c-1.47,10.36-3.34,21.81-5.53,32.93h18.8V743.57H628.91V711.39h39.81V679.57H691.2c-14.74-11.84-30.59-28.87-43.14-47v55.51H612.3V634.4a170.67,170.67,0,0,1-39.09,43.66l14,2.59c-1.47,8.17-2.94,15.94-4.8,23.69h21l5.55-.73,17.68,4.07c-8.1,78.47-32.45,131-72.62,159.14-3.34-7.41-11.8-20-18.08-26.28,14-8.52,25.82-21.45,35.76-38.87-6.27-5.91-13.63-12.93-19.91-18.5l19.91-23.69c4.44,3.35,9.22,7,14,11.12A293.15,293.15,0,0,0,595.34,734H573.6c-7.38,22.21-16.6,41.83-28.4,57.37a148.56,148.56,0,0,0-13.66-14.43v1.48H511.27v38.48l21.38-7a180.83,180.83,0,0,0,3.69,27C498,852,489.51,856.09,484.73,860.52c-2.58-5.54-9.61-15.15-14.74-20.73-29.87,12.6-37.26,16.66-42.06,20.73-2.55-6.66-10.69-17.38-15.86-22.21,5.92-4.79,13.67-15.55,13.67-33.66V715.46H454.5v31.46h21.37v31.46H454.5V818l19.9-6.66c.36,5.19,1.47,11.85,2.23,17.75,3.3-5.9,5.88-14,5.88-24.41V715.82h28.76v31.1h20.27V760.6c13.3-21.46,21.77-50,27.29-79.56a139.5,139.5,0,0,0-18-20.37v50H418.71c0,49.6-3.3,116.58-22.85,159.13-5.52-5.9-19.54-15.55-26.93-18.5,17.35-39.59,18.47-96.58,18.47-142.11V556.32h63.77c-3.31-8.89-7-18.5-10.69-26.28l34.28-9.25c6.28,10.37,12.16,24.05,16.25,35.53h52v34.77H418.71v24.44h14.77V596.28h25.07v19.25h15.1V596.28h24.71v19.25h42.43v41.08c17.68-8.89,34.64-23.33,47.19-38.85H549.61V583.32h22.88c-3.69-12.2-12.19-28.12-20.3-40.68L580.6,530.8c10,13.32,19.18,31.06,22.85,42.91L581,583.32H612.3V522.27h35.76v61.05h32.1L656.2,573c7-11.84,16.21-31.46,20.62-44.78l33.93,12.57c-9.94,15.91-18.79,31.1-26.54,42.55h26.18v34.44h-38c14,14.44,32.82,28.87,49,37a185.31,185.31,0,0,0-22.85,24.8h1.11v31.82h16.21v32.18H699.7Zm-281-136.57v31.46h14.77V647.35Zm39.84,0v31.46h15.1V647.35Zm54.55,0H498.36v31.46H513.1Z"
         id="path24"
         style="fill:#de0515;fill-opacity:1" />
      <path
         class="e15b8226-9ee5-4330-8d02-e9c3d030c977"
         d="M907.49,783.17c-14,2.59-28,5.18-42.39,7.41v75.88H826V797.24l-77.07,12.6-9.22-44.42c23.6-2.59,53.84-6.66,86.29-11.12V714.7H791c-12.91,0-26.93,2.23-30.23,5.58a394.35,394.35,0,0,0-13.27-37.4c8.11-2.59,14-12.56,21-28.87,3.3-7.77,10.68-26.63,18.43-50.32h-42V562.23h53.83a385.5,385.5,0,0,0,8.86-39.6L850,531.16c-2.58,10.36-4.8,20.73-7.75,31.07h63v41.46H829c-8.85,25.52-18.79,50-28,71.42H826V624H865.1v51.08H902l-.39,39.59H865.1v34.06l40.17-5.55Zm101-118c0,11.09-.36,23.69-1.47,36.62,12.52,57,38,106.58,83,128.43-9.58,8.89-23.24,25.52-28.76,37-33.54-19.61-55.67-51.07-71.16-90.67a213.94,213.94,0,0,1-68.21,91.43c-6.64-9.26-22.13-23.33-32.46-29.63,71.16-54,77.43-127.28,77.43-174.29V647h41.67Zm-45.36-51.44c-8.83,30-19.91,56.23-34.29,77-7.35-6.66-25.43-20-35.4-25.53,25.07-32.93,39.09-87.35,45.73-143.59l42,5.91c-2.22,16.27-4.8,31.46-8.1,47h77.07l6.63-1.48,29.13,7c-7,36.65-16.61,78.08-24.35,104.75l-35-8.53c3.69-16.27,8.11-39.59,12.16-62.53Z"
         id="path26"
         style="fill:#de0515;fill-opacity:1" />
      <path
         class="e15b8226-9ee5-4330-8d02-e9c3d030c977"
         d="M1230,536.7a623.27,623.27,0,0,1-36.12,78.83V867.18h-41.67V681c-7.39,9.26-14.74,18.51-22.13,26.64-4-11.09-16.21-34.77-23.6-45.89,32.46-33.3,63.8-85.85,81.88-138.41Zm223.46,206.51H1359V867.54h-44.25V743.21h-99.56V700.27h99.56V636.63h-45a259.2,259.2,0,0,1-22.88,47.73c-8.1-5.91-27.26-16.27-38-21.09,19.94-28.87,35-75.85,43.54-121l42.39,8.89c-2.94,14.43-6.64,28.5-10.69,42.55h30.6v-67H1359v67h77.07v42.94H1359v63.64h94.39Z"
         id="path28"
         style="fill:#de0515;fill-opacity:1" />
      <polygon
         class="e15b8226-9ee5-4330-8d02-e9c3d030c977"
         points="1451.77 465.87 420.44 465.87 215.66 239.97 421.4 14.06 434.72 0.86 298.78 0.68 120.85 186.92 121.5 0.3 9.69 0 9.05 478.67 121.29 478.76 121.5 477.7 120.85 291.08 300.28 478.9 433.49 478.96 433.44 478.92 1451.77 478.92 1451.77 465.87"
         id="polygon32"
         style="fill:#de0515;fill-opacity:1" />
    </g>
  </g>
</svg>
