<svg id="visual" viewBox="0 0 1000 667" width="1000" height="667" xmlns="http://www.w3.org/2000/svg" xmlns:xlink="http://www.w3.org/1999/xlink" version="1.1"><g stroke-width="1" stroke-linejoin="bevel"><path d="M494 305.4L438.7 215.3L449 319.6Z" fill="#15384f" stroke="#15384f"></path><path d="M438.7 215.3L374.7 249.4L449 319.6Z" fill="#205a7a" stroke="#205a7a"></path><path d="M379.3 236.3L374.7 249.4L438.7 215.3Z" fill="#277297" stroke="#277297"></path><path d="M494 305.4L531 223.3L438.7 215.3Z" fill="#277297" stroke="#277297"></path><path d="M482 106.2L395.7 178.2L438.7 215.3Z" fill="#0c2435" stroke="#0c2435"></path><path d="M438.7 215.3L395.7 178.2L379.3 236.3Z" fill="#205a7a" stroke="#205a7a"></path><path d="M298 270.4L331.3 283.4L374.7 249.4Z" fill="#297ea6" stroke="#297ea6"></path><path d="M583.3 396.7L570.3 315.4L494 305.4Z" fill="#297ea6" stroke="#297ea6"></path><path d="M494 305.4L570.3 315.4L531 223.3Z" fill="#15384f" stroke="#15384f"></path><path d="M298 270.4L374.7 249.4L379.3 236.3Z" fill="#277297" stroke="#277297"></path><path d="M374.7 249.4L331.3 283.4L449 319.6Z" fill="#277297" stroke="#277297"></path><path d="M401.7 70.1L368.3 159.2L395.7 178.2Z" fill="#112e42" stroke="#112e42"></path><path d="M395.7 178.2L368.3 159.2L379.3 236.3Z" fill="#297ea6" stroke="#297ea6"></path><path d="M570.3 315.4L598.3 264.3L531 223.3Z" fill="#205a7a" stroke="#205a7a"></path><path d="M289.3 350.6L435.7 415.6L449 319.6Z" fill="#112e42" stroke="#112e42"></path><path d="M449 319.6L526 432.7L494 305.4Z" fill="#205a7a" stroke="#205a7a"></path><path d="M368.3 159.2L298 270.4L379.3 236.3Z" fill="#00101c" stroke="#00101c"></path><path d="M331.3 283.4L289.3 350.6L449 319.6Z" fill="#19435d" stroke="#19435d"></path><path d="M598.3 264.3L581.3 164.2L531 223.3Z" fill="#1d4e6b" stroke="#1d4e6b"></path><path d="M531 223.3L482 106.2L438.7 215.3Z" fill="#112e42" stroke="#112e42"></path><path d="M536.3 102.1L482 106.2L531 223.3Z" fill="#277297" stroke="#277297"></path><path d="M435.7 415.6L526 432.7L449 319.6Z" fill="#297ea6" stroke="#297ea6"></path><path d="M570.3 315.4L634.7 344.6L598.3 264.3Z" fill="#19435d" stroke="#19435d"></path><path d="M526 432.7L583.3 396.7L494 305.4Z" fill="#00101c" stroke="#00101c"></path><path d="M581.3 164.2L536.3 102.1L531 223.3Z" fill="#081a28" stroke="#081a28"></path><path d="M298 270.4L289.3 350.6L331.3 283.4Z" fill="#1d4e6b" stroke="#1d4e6b"></path><path d="M618.3 386.6L634.7 344.6L570.3 315.4Z" fill="#0c2435" stroke="#0c2435"></path><path d="M598.3 264.3L650.7 187.3L581.3 164.2Z" fill="#246688" stroke="#246688"></path><path d="M289.3 350.6L376.7 446.7L435.7 415.6Z" fill="#1d4e6b" stroke="#1d4e6b"></path><path d="M435.7 415.6L461 525.8L526 432.7Z" fill="#081a28" stroke="#081a28"></path><path d="M631.7 416.7L618.3 386.6L583.3 396.7Z" fill="#297ea6" stroke="#297ea6"></path><path d="M583.3 396.7L618.3 386.6L570.3 315.4Z" fill="#205a7a" stroke="#205a7a"></path><path d="M472 0L401.7 70.1L482 106.2Z" fill="#0c2435" stroke="#0c2435"></path><path d="M482 106.2L401.7 70.1L395.7 178.2Z" fill="#297ea6" stroke="#297ea6"></path><path d="M368.3 159.2L220 239.3L298 270.4Z" fill="#246688" stroke="#246688"></path><path d="M667.7 245.4L650.7 187.3L598.3 264.3Z" fill="#1d4e6b" stroke="#1d4e6b"></path><path d="M687.7 120.1L534 69.1L536.3 102.1Z" fill="#19435d" stroke="#19435d"></path><path d="M687.7 120.1L536.3 102.1L581.3 164.2Z" fill="#297ea6" stroke="#297ea6"></path><path d="M536.3 102.1L534 69.1L482 106.2Z" fill="#277297" stroke="#277297"></path><path d="M634.7 344.6L667.7 245.4L598.3 264.3Z" fill="#19435d" stroke="#19435d"></path><path d="M667.7 245.4L666.7 179.2L650.7 187.3Z" fill="#0c2435" stroke="#0c2435"></path><path d="M650.7 187.3L687.7 120.1L581.3 164.2Z" fill="#15384f" stroke="#15384f"></path><path d="M289.3 350.6L356.3 470.7L376.7 446.7Z" fill="#246688" stroke="#246688"></path><path d="M376.7 446.7L431.7 519.8L435.7 415.6Z" fill="#205a7a" stroke="#205a7a"></path><path d="M410.7 0L382.3 50.1L401.7 70.1Z" fill="#112e42" stroke="#112e42"></path><path d="M401.7 70.1L382.3 50.1L368.3 159.2Z" fill="#15384f" stroke="#15384f"></path><path d="M592.3 501.8L631.7 416.7L583.3 396.7Z" fill="#112e42" stroke="#112e42"></path><path d="M618.3 386.6L631.7 416.7L634.7 344.6Z" fill="#15384f" stroke="#15384f"></path><path d="M634.7 344.6L732 324.6L667.7 245.4Z" fill="#297ea6" stroke="#297ea6"></path><path d="M592.3 501.8L583.3 396.7L526 432.7Z" fill="#081a28" stroke="#081a28"></path><path d="M220 239.3L238 359.6L298 270.4Z" fill="#112e42" stroke="#112e42"></path><path d="M298 270.4L238 359.6L289.3 350.6Z" fill="#297ea6" stroke="#297ea6"></path><path d="M289.3 350.6L240 455.7L356.3 470.7Z" fill="#081a28" stroke="#081a28"></path><path d="M239 112.1L220 239.3L368.3 159.2Z" fill="#00101c" stroke="#00101c"></path><path d="M359.3 501.8L431.7 519.8L376.7 446.7Z" fill="#1d4e6b" stroke="#1d4e6b"></path><path d="M240 455.7L359.3 501.8L356.3 470.7Z" fill="#00101c" stroke="#00101c"></path><path d="M356.3 470.7L359.3 501.8L376.7 446.7Z" fill="#081a28" stroke="#081a28"></path><path d="M431.7 519.8L461 525.8L435.7 415.6Z" fill="#205a7a" stroke="#205a7a"></path><path d="M572.3 0L472 0L534 69.1Z" fill="#19435d" stroke="#19435d"></path><path d="M534 69.1L472 0L482 106.2Z" fill="#081a28" stroke="#081a28"></path><path d="M276 0L239 112.1L382.3 50.1Z" fill="#297ea6" stroke="#297ea6"></path><path d="M382.3 50.1L239 112.1L368.3 159.2Z" fill="#19435d" stroke="#19435d"></path><path d="M472 0L410.7 0L401.7 70.1Z" fill="#205a7a" stroke="#205a7a"></path><path d="M461 525.8L592.3 501.8L526 432.7Z" fill="#205a7a" stroke="#205a7a"></path><path d="M729 174.3L687.7 120.1L666.7 179.2Z" fill="#1d4e6b" stroke="#1d4e6b"></path><path d="M666.7 179.2L687.7 120.1L650.7 187.3Z" fill="#277297" stroke="#277297"></path><path d="M786 455.7L732 324.6L631.7 416.7Z" fill="#246688" stroke="#246688"></path><path d="M631.7 416.7L732 324.6L634.7 344.6Z" fill="#1d4e6b" stroke="#1d4e6b"></path><path d="M667.7 245.4L729 174.3L666.7 179.2Z" fill="#19435d" stroke="#19435d"></path><path d="M162.7 43.1L214 124.2L239 112.1Z" fill="#1d4e6b" stroke="#1d4e6b"></path><path d="M239 112.1L214 124.2L220 239.3Z" fill="#297ea6" stroke="#297ea6"></path><path d="M410.7 0L358.3 0L382.3 50.1Z" fill="#19435d" stroke="#19435d"></path><path d="M732 324.6L742 276.4L667.7 245.4Z" fill="#277297" stroke="#277297"></path><path d="M742 276.4L729 174.3L667.7 245.4Z" fill="#1d4e6b" stroke="#1d4e6b"></path><path d="M156.7 369.6L240 455.7L238 359.6Z" fill="#00101c" stroke="#00101c"></path><path d="M238 359.6L240 455.7L289.3 350.6Z" fill="#19435d" stroke="#19435d"></path><path d="M687.7 120.1L572.3 0L534 69.1Z" fill="#112e42" stroke="#112e42"></path><path d="M592.3 501.8L653.7 485.8L631.7 416.7Z" fill="#246688" stroke="#246688"></path><path d="M455.7 586.9L497 570.9L461 525.8Z" fill="#081a28" stroke="#081a28"></path><path d="M461 525.8L497 570.9L592.3 501.8Z" fill="#277297" stroke="#277297"></path><path d="M592.3 501.8L624.3 583.9L653.7 485.8Z" fill="#205a7a" stroke="#205a7a"></path><path d="M455.7 586.9L461 525.8L431.7 519.8Z" fill="#081a28" stroke="#081a28"></path><path d="M455.7 586.9L431.7 519.8L374.3 611.9Z" fill="#1d4e6b" stroke="#1d4e6b"></path><path d="M133.7 338.4L238 359.6L220 239.3Z" fill="#081a28" stroke="#081a28"></path><path d="M133.7 338.4L156.7 369.6L238 359.6Z" fill="#205a7a" stroke="#205a7a"></path><path d="M374.3 611.9L431.7 519.8L359.3 501.8Z" fill="#112e42" stroke="#112e42"></path><path d="M358.3 0L276 0L382.3 50.1Z" fill="#246688" stroke="#246688"></path><path d="M125.7 444.7L222 493.8L240 455.7Z" fill="#19435d" stroke="#19435d"></path><path d="M240 455.7L222 493.8L359.3 501.8Z" fill="#19435d" stroke="#19435d"></path><path d="M121.3 313.4L133.7 338.4L220 239.3Z" fill="#0c2435" stroke="#0c2435"></path><path d="M125.7 444.7L207.7 525.8L222 493.8Z" fill="#15384f" stroke="#15384f"></path><path d="M115.7 253.3L121.3 313.4L220 239.3Z" fill="#0c2435" stroke="#0c2435"></path><path d="M120.7 195.2L220 239.3L214 124.2Z" fill="#112e42" stroke="#112e42"></path><path d="M120.7 195.2L115.7 253.3L220 239.3Z" fill="#112e42" stroke="#112e42"></path><path d="M162.7 43.1L120.7 195.2L214 124.2Z" fill="#1d4e6b" stroke="#1d4e6b"></path><path d="M800.3 191.3L771 113.2L729 174.3Z" fill="#297ea6" stroke="#297ea6"></path><path d="M729 174.3L771 113.2L687.7 120.1Z" fill="#0c2435" stroke="#0c2435"></path><path d="M687.7 120.1L686.7 0L572.3 0Z" fill="#112e42" stroke="#112e42"></path><path d="M742 276.4L800.3 191.3L729 174.3Z" fill="#277297" stroke="#277297"></path><path d="M817.3 305.4L800.3 191.3L742 276.4Z" fill="#081a28" stroke="#081a28"></path><path d="M817.3 305.4L742 276.4L732 324.6Z" fill="#00101c" stroke="#00101c"></path><path d="M708 0L686.7 0L687.7 120.1Z" fill="#1d4e6b" stroke="#1d4e6b"></path><path d="M212 591.9L374.3 611.9L359.3 501.8Z" fill="#246688" stroke="#246688"></path><path d="M497 570.9L624.3 583.9L592.3 501.8Z" fill="#081a28" stroke="#081a28"></path><path d="M831.3 342.6L817.3 305.4L732 324.6Z" fill="#277297" stroke="#277297"></path><path d="M482 667L624.3 583.9L497 570.9Z" fill="#00101c" stroke="#00101c"></path><path d="M656.7 603.9L624.3 583.9L631.3 667Z" fill="#19435d" stroke="#19435d"></path><path d="M125.7 444.7L240 455.7L156.7 369.6Z" fill="#205a7a" stroke="#205a7a"></path><path d="M222 493.8L207.7 525.8L359.3 501.8Z" fill="#277297" stroke="#277297"></path><path d="M125.7 444.7L156.7 369.6L67.3 350.6Z" fill="#1d4e6b" stroke="#1d4e6b"></path><path d="M786 455.7L631.7 416.7L653.7 485.8Z" fill="#15384f" stroke="#15384f"></path><path d="M774 83.1L708 0L687.7 120.1Z" fill="#246688" stroke="#246688"></path><path d="M771 113.2L774 83.1L687.7 120.1Z" fill="#277297" stroke="#277297"></path><path d="M805.3 81.1L774 83.1L771 113.2Z" fill="#112e42" stroke="#112e42"></path><path d="M276 0L162.7 43.1L239 112.1Z" fill="#081a28" stroke="#081a28"></path><path d="M119.3 450.7L125.7 444.7L67.3 350.6Z" fill="#246688" stroke="#246688"></path><path d="M156.7 369.6L133.7 338.4L67.3 350.6Z" fill="#081a28" stroke="#081a28"></path><path d="M797 468.8L786 455.7L784.3 550.9Z" fill="#19435d" stroke="#19435d"></path><path d="M786 455.7L831.3 342.6L732 324.6Z" fill="#19435d" stroke="#19435d"></path><path d="M880.7 258.4L840.3 162.2L800.3 191.3Z" fill="#081a28" stroke="#081a28"></path><path d="M67.3 350.6L133.7 338.4L121.3 313.4Z" fill="#00101c" stroke="#00101c"></path><path d="M125.7 444.7L119.3 450.7L207.7 525.8Z" fill="#15384f" stroke="#15384f"></path><path d="M624.3 583.9L656.7 603.9L653.7 485.8Z" fill="#277297" stroke="#277297"></path><path d="M482 667L497 570.9L455.7 586.9Z" fill="#112e42" stroke="#112e42"></path><path d="M840.3 162.2L805.3 81.1L771 113.2Z" fill="#00101c" stroke="#00101c"></path><path d="M774 83.1L837.3 0L708 0Z" fill="#0c2435" stroke="#0c2435"></path><path d="M840.3 162.2L771 113.2L800.3 191.3Z" fill="#15384f" stroke="#15384f"></path><path d="M784.3 550.9L786 455.7L653.7 485.8Z" fill="#00101c" stroke="#00101c"></path><path d="M786 455.7L851.3 402.7L831.3 342.6Z" fill="#00101c" stroke="#00101c"></path><path d="M880.7 258.4L800.3 191.3L817.3 305.4Z" fill="#081a28" stroke="#081a28"></path><path d="M0 315.4L67.3 350.6L115.7 253.3Z" fill="#112e42" stroke="#112e42"></path><path d="M115.7 253.3L67.3 350.6L121.3 313.4Z" fill="#205a7a" stroke="#205a7a"></path><path d="M64.3 174.3L115.7 253.3L120.7 195.2Z" fill="#0c2435" stroke="#0c2435"></path><path d="M348.3 667L451.7 667L374.3 611.9Z" fill="#081a28" stroke="#081a28"></path><path d="M374.3 611.9L451.7 667L455.7 586.9Z" fill="#0c2435" stroke="#0c2435"></path><path d="M451.7 667L482 667L455.7 586.9Z" fill="#081a28" stroke="#081a28"></path><path d="M61.3 151.2L64.3 174.3L120.7 195.2Z" fill="#297ea6" stroke="#297ea6"></path><path d="M143.7 642.9L212 591.9L207.7 525.8Z" fill="#1d4e6b" stroke="#1d4e6b"></path><path d="M207.7 525.8L212 591.9L359.3 501.8Z" fill="#19435d" stroke="#19435d"></path><path d="M162.7 43.1L61.3 151.2L120.7 195.2Z" fill="#19435d" stroke="#19435d"></path><path d="M64.3 174.3L0 252.3L115.7 253.3Z" fill="#081a28" stroke="#081a28"></path><path d="M276 0L141.7 0L162.7 43.1Z" fill="#19435d" stroke="#19435d"></path><path d="M162.7 43.1L100.3 28.1L61.3 151.2Z" fill="#277297" stroke="#277297"></path><path d="M271 667L348.3 667L374.3 611.9Z" fill="#1d4e6b" stroke="#1d4e6b"></path><path d="M797 468.8L851.3 402.7L786 455.7Z" fill="#246688" stroke="#246688"></path><path d="M831.3 342.6L880.7 258.4L817.3 305.4Z" fill="#15384f" stroke="#15384f"></path><path d="M912.7 358.6L880.7 258.4L831.3 342.6Z" fill="#00101c" stroke="#00101c"></path><path d="M141.7 0L100.3 28.1L162.7 43.1Z" fill="#081a28" stroke="#081a28"></path><path d="M656.7 603.9L784.3 550.9L653.7 485.8Z" fill="#081a28" stroke="#081a28"></path><path d="M797 468.8L909.7 439.7L851.3 402.7Z" fill="#081a28" stroke="#081a28"></path><path d="M482 667L631.3 667L624.3 583.9Z" fill="#1d4e6b" stroke="#1d4e6b"></path><path d="M750 620.9L790.3 555.8L784.3 550.9Z" fill="#1d4e6b" stroke="#1d4e6b"></path><path d="M119.3 450.7L84.3 500.8L207.7 525.8Z" fill="#19435d" stroke="#19435d"></path><path d="M0 415.6L84.3 500.8L119.3 450.7Z" fill="#246688" stroke="#246688"></path><path d="M750 620.9L784.3 550.9L656.7 603.9Z" fill="#112e42" stroke="#112e42"></path><path d="M784.3 550.9L790.3 555.8L797 468.8Z" fill="#277297" stroke="#277297"></path><path d="M212 591.9L271 667L374.3 611.9Z" fill="#15384f" stroke="#15384f"></path><path d="M210.7 667L271 667L212 591.9Z" fill="#1d4e6b" stroke="#1d4e6b"></path><path d="M0 191.2L64.3 174.3L61.3 151.2Z" fill="#297ea6" stroke="#297ea6"></path><path d="M0 191.2L0 252.3L64.3 174.3Z" fill="#1d4e6b" stroke="#1d4e6b"></path><path d="M67.3 350.6L0 415.6L119.3 450.7Z" fill="#246688" stroke="#246688"></path><path d="M0 252.3L0 315.4L115.7 253.3Z" fill="#246688" stroke="#246688"></path><path d="M711.7 667L750 620.9L656.7 603.9Z" fill="#19435d" stroke="#19435d"></path><path d="M0 41.1L0 191.2L61.3 151.2Z" fill="#112e42" stroke="#112e42"></path><path d="M881.7 0L837.3 0L805.3 81.1Z" fill="#112e42" stroke="#112e42"></path><path d="M805.3 81.1L837.3 0L774 83.1Z" fill="#19435d" stroke="#19435d"></path><path d="M925.7 151.2L805.3 81.1L840.3 162.2Z" fill="#205a7a" stroke="#205a7a"></path><path d="M909.7 439.7L912.7 358.6L851.3 402.7Z" fill="#246688" stroke="#246688"></path><path d="M851.3 402.7L912.7 358.6L831.3 342.6Z" fill="#246688" stroke="#246688"></path><path d="M880.7 258.4L925.7 151.2L840.3 162.2Z" fill="#081a28" stroke="#081a28"></path><path d="M909.7 439.7L797 468.8L790.3 555.8Z" fill="#19435d" stroke="#19435d"></path><path d="M143.7 642.9L210.7 667L212 591.9Z" fill="#205a7a" stroke="#205a7a"></path><path d="M631.3 667L711.7 667L656.7 603.9Z" fill="#15384f" stroke="#15384f"></path><path d="M141.7 0L59.3 0L100.3 28.1Z" fill="#15384f" stroke="#15384f"></path><path d="M100.3 28.1L0 41.1L61.3 151.2Z" fill="#112e42" stroke="#112e42"></path><path d="M0 315.4L0 414.7L67.3 350.6Z" fill="#081a28" stroke="#081a28"></path><path d="M84.3 500.8L143.7 642.9L207.7 525.8Z" fill="#205a7a" stroke="#205a7a"></path><path d="M0 414.7L0 415.6L67.3 350.6Z" fill="#205a7a" stroke="#205a7a"></path><path d="M959.7 241.3L925.7 151.2L880.7 258.4Z" fill="#205a7a" stroke="#205a7a"></path><path d="M1000 439.7L909.7 439.7L965.7 546.8Z" fill="#00101c" stroke="#00101c"></path><path d="M912.7 358.6L959.7 241.3L880.7 258.4Z" fill="#15384f" stroke="#15384f"></path><path d="M774 667L790.3 555.8L750 620.9Z" fill="#112e42" stroke="#112e42"></path><path d="M40.3 551.9L143.7 642.9L84.3 500.8Z" fill="#205a7a" stroke="#205a7a"></path><path d="M948.7 84.1L881.7 0L805.3 81.1Z" fill="#246688" stroke="#246688"></path><path d="M0 415.6L0 474.8L84.3 500.8Z" fill="#205a7a" stroke="#205a7a"></path><path d="M1000 285.4L959.7 241.3L912.7 358.6Z" fill="#205a7a" stroke="#205a7a"></path><path d="M925.7 151.2L948.7 84.1L805.3 81.1Z" fill="#00101c" stroke="#00101c"></path><path d="M0 474.8L40.3 551.9L84.3 500.8Z" fill="#277297" stroke="#277297"></path><path d="M59.3 0L0 41.1L100.3 28.1Z" fill="#081a28" stroke="#081a28"></path><path d="M711.7 667L774 667L750 620.9Z" fill="#19435d" stroke="#19435d"></path><path d="M1000 118.1L948.7 84.1L925.7 151.2Z" fill="#19435d" stroke="#19435d"></path><path d="M59.3 0L0 0L0 41.1Z" fill="#081a28" stroke="#081a28"></path><path d="M1000 323.6L1000 285.4L912.7 358.6Z" fill="#112e42" stroke="#112e42"></path><path d="M959.7 241.3L1000 179.2L925.7 151.2Z" fill="#081a28" stroke="#081a28"></path><path d="M1000 285.4L1000 235.3L959.7 241.3Z" fill="#081a28" stroke="#081a28"></path><path d="M1000 439.7L1000 323.6L912.7 358.6Z" fill="#277297" stroke="#277297"></path><path d="M1000 439.7L912.7 358.6L909.7 439.7Z" fill="#15384f" stroke="#15384f"></path><path d="M1000 235.3L1000 179.2L959.7 241.3Z" fill="#205a7a" stroke="#205a7a"></path><path d="M1000 179.2L1000 118.1L925.7 151.2Z" fill="#205a7a" stroke="#205a7a"></path><path d="M948.7 84.1L1000 0L881.7 0Z" fill="#205a7a" stroke="#205a7a"></path><path d="M945.7 568.9L909.7 439.7L790.3 555.8Z" fill="#0c2435" stroke="#0c2435"></path><path d="M774 667L863.3 667L790.3 555.8Z" fill="#1d4e6b" stroke="#1d4e6b"></path><path d="M863.3 667L945.7 568.9L790.3 555.8Z" fill="#19435d" stroke="#19435d"></path><path d="M1000 566.8L965.7 546.8L945.7 568.9Z" fill="#15384f" stroke="#15384f"></path><path d="M945.7 568.9L965.7 546.8L909.7 439.7Z" fill="#15384f" stroke="#15384f"></path><path d="M0 633.9L35.3 667L40.3 551.9Z" fill="#0c2435" stroke="#0c2435"></path><path d="M40.3 551.9L35.3 667L143.7 642.9Z" fill="#277297" stroke="#277297"></path><path d="M143.7 642.9L35.3 667L210.7 667Z" fill="#205a7a" stroke="#205a7a"></path><path d="M0 474.8L0 633.9L40.3 551.9Z" fill="#15384f" stroke="#15384f"></path><path d="M1000 118.1L1000 0L948.7 84.1Z" fill="#277297" stroke="#277297"></path><path d="M0 633.9L0 667L35.3 667Z" fill="#297ea6" stroke="#297ea6"></path><path d="M1000 633.9L1000 566.8L945.7 568.9Z" fill="#277297" stroke="#277297"></path><path d="M965.7 546.8L1000 566.8L1000 439.7Z" fill="#19435d" stroke="#19435d"></path><path d="M863.3 667L950.7 667L945.7 568.9Z" fill="#297ea6" stroke="#297ea6"></path><path d="M950.7 667L1000 633.9L945.7 568.9Z" fill="#19435d" stroke="#19435d"></path><path d="M950.7 667L1000 667L1000 633.9Z" fill="#297ea6" stroke="#297ea6"></path></g></svg>