<?xml version="1.0" encoding="UTF-8" standalone="no"?>
<!-- Created with Inkscape (http://www.inkscape.org/) -->

<svg
   width="315.61182mm"
   height="48.360378mm"
   viewBox="0 0 315.61182 48.360378"
   version="1.1"
   id="svg26600"
   inkscape:version="1.2.2 (1:1.2.2+202305151914+b0a8486541)"
   sodipodi:docname="os.svg"
   xml:space="preserve"
   xmlns:inkscape="http://www.inkscape.org/namespaces/inkscape"
   xmlns:sodipodi="http://sodipodi.sourceforge.net/DTD/sodipodi-0.dtd"
   xmlns="http://www.w3.org/2000/svg"
   xmlns:svg="http://www.w3.org/2000/svg"><sodipodi:namedview
     id="namedview26602"
     pagecolor="#ffffff"
     bordercolor="#666666"
     borderopacity="1.0"
     inkscape:pageshadow="2"
     inkscape:pageopacity="0.0"
     inkscape:pagecheckerboard="0"
     inkscape:document-units="mm"
     showgrid="false"
     fit-margin-top="10"
     fit-margin-left="10"
     fit-margin-right="10"
     fit-margin-bottom="10"
     inkscape:zoom="0.65210438"
     inkscape:cx="464.64954"
     inkscape:cy="155.64993"
     inkscape:window-width="1920"
     inkscape:window-height="939"
     inkscape:window-x="0"
     inkscape:window-y="34"
     inkscape:window-maximized="1"
     inkscape:current-layer="layer1"
     inkscape:showpageshadow="2"
     inkscape:deskcolor="#d1d1d1" /><defs
     id="defs26597"><path
       d="m 43.379024,1.0428571 c 0.806652,0 1.461627,0.6491311 1.461627,1.4516434 V 14.091214 c 0,0.802512 0.653595,1.451643 1.461627,1.451643 h 11.679228 c 0.806653,0 1.463006,0.650501 1.463006,1.451643 v 11.596714 c 0,0.801143 -0.656353,1.451643 -1.463006,1.451643 H 2.5058631 c -0.8080316,0 -1.463006,-0.6505 -1.463006,-1.451643 V 2.4945005 c 0,-0.8025123 0.6549744,-1.4516434 1.463006,-1.4516434 z m 10.052961,1.4673924 v 2.3787778 c 0,0.7176049 0.370922,0.9956083 0.98453,0.9956083 0.732192,0 0.974877,-0.3314129 0.974877,-1.0312146 V 2.5102495 H 56.6779 v 2.5773517 c 0,0.7929259 -0.28681,1.8720721 -2.271038,1.8720721 -1.44508,0 -2.264143,-0.5916131 -2.264143,-1.7844257 V 2.5102495 Z m 5.655807,0 2.032489,2.6745844 V 2.5102495 h 1.212047 v 4.3494522 h -1.24514 L 59.064351,4.1919646 V 6.8597017 H 57.848167 V 2.5102495 Z M 145.58123,1.0428571 c 0.80665,0 1.46163,0.6491311 1.46163,1.4516434 v 0 26.0967135 c 0,0.801143 -0.65498,1.451643 -1.46163,1.451643 v 0 H 90.105312 c -0.808032,0 -1.463006,-0.6505 -1.463006,-1.451643 v 0 -11.593975 c 0,-0.802512 0.654974,-1.451643 1.463006,-1.451643 v 0 h 11.679228 c 0.80803,0 1.46163,-0.6505 1.46163,-1.453013 v 0 -11.5980825 c 0,-0.8025123 0.65497,-1.4516434 1.463,-1.4516434 v 0 z M 88.471737,2.4037043 c 1.337526,0 2.060066,0.8381187 2.100054,1.6652815 v 0 H 89.457645 C 89.43972,3.9073877 89.245296,3.3842483 88.475873,3.3842483 c -0.643943,0 -1.134829,0.5025973 -1.134829,1.3626275 0,0.7545807 0.493644,1.257178 1.148618,1.257178 0.701857,0 0.939027,-0.3971477 1.005213,-0.9148092 v 0 h 1.114146 c -0.07446,1.0791462 -0.798379,1.8734416 -2.15521,1.8734416 -1.094842,0 -2.269659,-0.7874481 -2.269659,-2.234983 0,-1.4475349 0.918343,-2.3239989 2.287585,-2.3239989 z m 4.277465,0.1065452 v 1.6036551 h 1.913904 V 2.5102495 h 1.289265 V 6.8597017 H 94.65759 V 5.0547338 H 92.749202 V 6.8597017 H 91.461315 V 2.5102495 Z m -21.776038,0 h 1.239626 l 2.032489,2.6745844 V 2.5102495 h 1.213426 v 4.3494522 h -1.24652 L 72.189348,4.1919646 v 2.6677371 h -1.216184 z m -7.444232,4.349863 h 1.292023 V 2.5106603 h -1.292023 z m 4.390259,-1.0190262 c -0.603955,0 -1.094841,-0.4820552 -1.094841,-1.1558368 0,-0.6751511 0.490886,-1.1530979 1.094841,-1.1530979 0.602577,0 1.093463,0.4779468 1.093463,1.1530979 0,0.6737816 -0.490886,1.1558368 -1.093463,1.1558368 m 0,-3.4223178 c -1.472658,0 -2.36756,1.0147809 -2.36756,2.2651115 0,1.2517 1.060369,2.2664809 2.36756,2.2664809 1.305812,0 2.36756,-1.0147809 2.36756,-2.2664809 0,-1.2503306 -0.95971,-2.2651115 -2.36756,-2.2651115 m 8.331275,0.091481 h 4.358682 v 0.923026 H 79.077197 V 6.8597017 H 77.787932 V 3.4387534 h -1.537466 z m 5.146582,0 h 3.993275 v 0.923026 h -2.70401 V 4.1851172 H 85.1697 v 0.8723555 h -2.483387 v 0.8805724 h 2.761924 v 0.9216566 h -4.051189 z"
       id="path-1" /><filter
       x="-0.032876711"
       y="-0.16551724"
       width="1.0657533"
       height="1.3655173"
       filterUnits="objectBoundingBox"
       id="filter-2"><feOffset
         dx="0"
         dy="1"
         in="SourceAlpha"
         result="shadowOffsetOuter1"
         id="feOffset26890" /><feGaussianBlur
         stdDeviation="2"
         in="shadowOffsetOuter1"
         result="shadowBlurOuter1"
         id="feGaussianBlur26892" /><feComposite
         in="shadowBlurOuter1"
         in2="SourceAlpha"
         operator="out"
         result="shadowBlurOuter1"
         id="feComposite26894" /><feColorMatrix
         values="0 0 0 0 0   0 0 0 0 0   0 0 0 0 0  0 0 0 0.2 0"
         type="matrix"
         in="shadowBlurOuter1"
         id="feColorMatrix26896" /></filter><linearGradient
       x1="-0.33913603"
       y1="33.590904"
       x2="65.533974"
       y2="35.861118"
       id="linearGradient-3"
       gradientTransform="scale(2.2437653,0.44567941)"
       gradientUnits="userSpaceOnUse"><stop
         stop-color="#FFFFFF"
         stop-opacity="0.25"
         offset="0%"
         id="stop26899" /><stop
         stop-color="#FFFFFF"
         stop-opacity="0.35"
         offset="15.8878787%"
         id="stop26901" /><stop
         stop-color="#FFFFFF"
         stop-opacity="0.151570353"
         offset="35.1027096%"
         id="stop26903" /><stop
         stop-color="#FFFFFF"
         stop-opacity="0.4"
         offset="53.8811523%"
         id="stop26905" /><stop
         stop-color="#FFFFFF"
         stop-opacity="0.15"
         offset="70.9665078%"
         id="stop26907" /><stop
         stop-color="#FFFFFF"
         stop-opacity="0.3"
         offset="83.5911059%"
         id="stop26909" /><stop
         stop-color="#FFFFFF"
         stop-opacity="0.14"
         offset="100%"
         id="stop26911" /></linearGradient><style
       id="style2">.e15b8226-9ee5-4330-8d02-e9c3d030c977{fill:#fff;}.bdd12fea-835e-4ff5-afe5-35366f721063{fill:none;}</style></defs><g
     inkscape:label="图层 1"
     inkscape:groupmode="layer"
     id="layer1"
     transform="translate(116.21232,-31.811614)"><g
       style="fill:none"
       id="g26634"
       transform="matrix(2.0257413,0,0,2.0257413,126.12909,39.78912)"><path
         fill="#202020"
         d="m 13.338,12.033 c -0.1,-0.112 -0.146,-0.319 -0.197,-0.54 -0.05,-0.22 -0.107,-0.457 -0.288,-0.61 V 10.882 A 0.756,0.756 0 0 0 12.63,10.748 C 12.882,10.003 12.783,9.261 12.53,8.591 12.218,7.768 11.675,7.051 11.26,6.561 10.796,5.975 10.342,5.419 10.35,4.598 10.364,3.344 10.488,1.019 8.282,1.016 8.192,1.016 8.099,1.02 8.002,1.028 5.536,1.226 6.19,3.831 6.153,4.703 6.108,5.341 5.979,5.843 5.54,6.467 5.025,7.08 4.3,8.071 3.956,9.104 3.794,9.591 3.716,10.088 3.788,10.558 3.765,10.578 3.744,10.599 3.724,10.621 3.573,10.782 3.461,10.978 3.336,11.11 3.22,11.226 3.054,11.27 2.872,11.335 2.689,11.401 2.489,11.497 2.368,11.73 v 10e-4 A 0.702,0.702 0 0 0 2.291,12.07 c 0,0.108 0.016,0.217 0.032,0.322 0.034,0.22 0.068,0.427 0.023,0.567 -0.144,0.395 -0.163,0.667 -0.061,0.865 0.102,0.199 0.31,0.286 0.547,0.335 0.473,0.1 1.114,0.075 1.619,0.342 l 0.043,-0.082 -0.043,0.082 c 0.54,0.283 1.089,0.383 1.526,0.284 a 0.99,0.99 0 0 0 0.706,-0.552 c 0.342,-0.002 0.717,-0.146 1.318,-0.18 0.408,-0.032 0.918,0.145 1.503,0.113 a 0.806,0.806 0 0 0 0.068,0.183 l 0.001,10e-4 c 0.227,0.455 0.65,0.662 1.1,0.627 0.45,-0.036 0.928,-0.301 1.315,-0.762 l -0.07,-0.06 0.07,0.06 c 0.37,-0.448 0.982,-0.633 1.388,-0.878 0.203,-0.123 0.368,-0.276 0.38,-0.499 0.013,-0.222 -0.118,-0.471 -0.418,-0.805 z"
         id="path26604" /><path
         fill="#f8bf11"
         d="m 13.571,12.828 c -0.007,0.137 -0.107,0.24 -0.29,0.35 -0.368,0.222 -1.019,0.414 -1.434,0.918 -0.362,0.43 -0.802,0.665 -1.19,0.696 -0.387,0.03 -0.721,-0.13 -0.919,-0.526 V 14.264 C 9.615,14.031 9.666,13.664 9.769,13.277 9.872,12.89 10.02,12.492 10.04,12.169 v -0.001 c 0.02,-0.415 0.044,-0.776 0.114,-1.055 0.07,-0.28 0.179,-0.468 0.373,-0.575 a 0.876,0.876 0 0 1 0.027,-0.014 c 0.022,0.359 0.2,0.725 0.514,0.804 0.343,0.09 0.838,-0.204 1.047,-0.445 l 0.122,-0.004 c 0.184,-0.005 0.337,0.006 0.495,0.143 v 10e-4 c 0.121,0.102 0.179,0.296 0.229,0.512 0.05,0.217 0.09,0.453 0.239,0.621 0.287,0.32 0.38,0.534 0.371,0.672 z m -6.979,1.015 v 0.003 c -0.034,0.435 -0.28,0.672 -0.656,0.758 -0.377,0.086 -0.888,0 -1.398,-0.266 -0.565,-0.3 -1.237,-0.27 -1.667,-0.36 C 2.655,13.933 2.514,13.865 2.45,13.74 2.386,13.614 2.384,13.395 2.521,13.02 V 13.019 L 2.522,13.017 C 2.59,12.808 2.54,12.579 2.507,12.364 2.474,12.15 2.458,11.954 2.531,11.818 L 2.532,11.817 C 2.626,11.636 2.764,11.571 2.935,11.51 3.105,11.448 3.308,11.4 3.468,11.24 L 3.469,11.239 H 3.47 C 3.618,11.082 3.73,10.886 3.86,10.747 3.97,10.63 4.08,10.552 4.245,10.551 H 4.25 a 0.61,0.61 0 0 1 0.093,0.008 c 0.22,0.033 0.411,0.187 0.596,0.437 l 0.533,0.971 v 10e-4 c 0.142,0.296 0.441,0.622 0.695,0.954 0.254,0.333 0.45,0.666 0.425,0.921 z"
         id="path26606" /><path
         fill="#d6a312"
         d="M 9.25,4.788 C 9.207,4.704 9.12,4.624 8.97,4.563 8.66,4.43 8.526,4.421 8.353,4.309 8.073,4.128 7.84,4.065 7.647,4.065 A 0.834,0.834 0 0 0 7.375,4.112 c -0.236,0.08 -0.392,0.25 -0.49,0.342 -0.02,0.019 -0.044,0.035 -0.104,0.08 -0.06,0.043 -0.15,0.11 -0.28,0.208 -0.117,0.086 -0.154,0.2 -0.114,0.332 0.04,0.132 0.167,0.285 0.4,0.417 h 0.001 c 0.145,0.085 0.244,0.2 0.358,0.291 A 0.801,0.801 0 0 0 7.335,5.899 C 7.407,5.93 7.491,5.951 7.595,5.957 7.843,5.972 8.025,5.897 8.185,5.806 8.345,5.714 8.481,5.602 8.637,5.551 H 8.638 C 8.958,5.451 9.186,5.25 9.258,5.058 A 0.324,0.324 0 0 0 9.25,4.788 Z"
         id="path26608" /><path
         fill="#202020"
         d="M 8.438,5.26 C 8.183,5.393 7.886,5.554 7.569,5.554 7.253,5.554 7.003,5.408 6.824,5.265 6.734,5.195 6.661,5.123 6.606,5.072 6.51,4.997 6.522,4.891 6.561,4.894 6.627,4.902 6.637,4.989 6.678,5.028 6.734,5.08 6.804,5.148 6.889,5.215 7.059,5.35 7.286,5.481 7.569,5.481 7.853,5.481 8.183,5.315 8.385,5.201 8.5,5.137 8.645,5.022 8.764,4.935 8.854,4.868 8.851,4.788 8.926,4.797 9.001,4.806 8.946,4.886 8.841,4.977 8.736,5.069 8.571,5.191 8.438,5.26 Z"
         id="path26610" /><path
         fill="#ffffff"
         d="m 12.337,10.694 a 1.724,1.724 0 0 0 -0.104,0 h -0.01 c 0.088,-0.277 -0.106,-0.48 -0.621,-0.713 -0.534,-0.235 -0.96,-0.212 -1.032,0.265 -0.005,0.025 -0.009,0.05 -0.011,0.076 a 0.801,0.801 0 0 0 -0.12,0.054 c -0.252,0.137 -0.389,0.386 -0.465,0.692 -0.076,0.305 -0.098,0.674 -0.119,1.09 -0.013,0.208 -0.099,0.49 -0.186,0.79 -0.875,0.624 -2.09,0.894 -3.122,0.19 -0.07,-0.11 -0.15,-0.22 -0.233,-0.328 a 13.85,13.85 0 0 0 -0.16,-0.205 0.65,0.65 0 0 0 0.268,-0.05 0.34,0.34 0 0 0 0.186,-0.192 c 0.063,-0.17 0,-0.408 -0.202,-0.68 C 6.205,11.41 5.864,11.103 5.363,10.795 4.995,10.565 4.789,10.285 4.693,9.981 4.596,9.676 4.609,9.346 4.683,9.021 4.826,8.396 5.193,7.788 5.426,7.407 5.489,7.361 5.449,7.493 5.19,7.974 4.958,8.414 4.523,9.429 5.118,10.222 5.134,9.658 5.268,9.082 5.495,8.545 5.824,7.798 6.513,6.504 6.567,5.472 6.596,5.492 6.692,5.558 6.736,5.582 6.862,5.657 6.957,5.766 7.08,5.865 a 0.85,0.85 0 0 0 0.575,0.2 c 0.24,0 0.427,-0.079 0.582,-0.168 C 8.407,5.801 8.541,5.693 8.67,5.652 8.94,5.567 9.156,5.417 9.278,5.242 c 0.21,0.83 0.7,2.027 1.014,2.611 0.167,0.31 0.5,0.969 0.643,1.762 0.091,-0.002 0.191,0.01 0.299,0.038 C 11.609,8.68 10.915,7.631 10.598,7.339 10.47,7.215 10.463,7.159 10.528,7.162 c 0.343,0.304 0.795,0.917 0.96,1.608 0.075,0.315 0.09,0.646 0.01,0.973 0.04,0.017 0.08,0.034 0.12,0.054 0.603,0.293 0.826,0.548 0.719,0.897 z"
         id="path26612" /><path
         fill="#e6e6e6"
         d="M 8.04,8.062 C 7.484,8.064 6.941,8.313 6.482,8.778 6.022,9.242 5.668,9.9 5.464,10.666 l 0.061,0.038 v 0.004 c 0.47,0.298 0.805,0.598 1.012,0.878 0.219,0.296 0.316,0.584 0.223,0.834 a 0.513,0.513 0 0 1 -0.27,0.283 l -0.041,0.015 c 0.074,0.097 0.146,0.197 0.213,0.3 0.944,0.628 2.042,0.396 2.867,-0.172 0.08,-0.278 0.153,-0.536 0.163,-0.698 0.021,-0.415 0.042,-0.792 0.124,-1.12 0.082,-0.33 0.242,-0.63 0.544,-0.795 0.017,-0.01 0.034,-0.015 0.051,-0.023 a 0.756,0.756 0 0 1 0.022,-0.094 C 10.191,9.494 9.842,8.976 9.423,8.616 9.003,8.256 8.526,8.065 8.041,8.062 Z m 2.37,2.155 -0.002,0.005 V 10.22 l 0.001,-0.004 z"
         id="path26614" /><path
         fill="#ffffff"
         d="M 9.278,3.833 A 1.05,1.05 0 0 1 9.063,4.489 4.119,4.119 0 0 0 8.845,4.399 L 8.718,4.354 C 8.747,4.319 8.803,4.279 8.825,4.227 A 0.669,0.669 0 0 0 8.875,3.984 L 8.876,3.974 A 0.673,0.673 0 0 0 8.841,3.738 0.434,0.434 0 0 0 8.733,3.554 0.223,0.223 0 0 0 8.577,3.484 H 8.57 A 0.228,0.228 0 0 0 8.419,3.544 0.434,0.434 0 0 0 8.297,3.719 0.676,0.676 0 0 0 8.247,3.962 v 0.01 A 0.718,0.718 0 0 0 8.256,4.112 1.773,1.773 0 0 0 7.902,3.992 1.196,1.196 0 0 1 7.892,3.859 V 3.846 A 1.035,1.035 0 0 1 7.98,3.399 0.793,0.793 0 0 1 8.23,3.071 0.554,0.554 0 0 1 8.576,2.948 h 0.006 c 0.125,0 0.232,0.036 0.342,0.116 A 0.78,0.78 0 0 1 9.181,3.388 C 9.244,3.526 9.275,3.661 9.278,3.821 L 9.279,3.833 Z M 7.388,3.997 A 1.05,1.05 0 0 0 7.111,4.122 0.623,0.623 0 0 0 7.113,3.972 V 3.964 A 0.651,0.651 0 0 0 7.065,3.772 0.37,0.37 0 0 0 6.969,3.631 0.158,0.158 0 0 0 6.85,3.586 C 6.808,3.59 6.773,3.61 6.74,3.651 A 0.372,0.372 0 0 0 6.67,3.807 0.626,0.626 0 0 0 6.657,4.012 V 4.02 A 0.634,0.634 0 0 0 6.705,4.213 0.367,0.367 0 0 0 6.821,4.369 L 6.719,4.449 6.641,4.505 A 0.706,0.706 0 0 1 6.481,4.265 C 6.428,4.145 6.399,4.025 6.391,3.884 V 3.883 A 1.071,1.071 0 0 1 6.436,3.493 0.668,0.668 0 0 1 6.603,3.201 0.359,0.359 0 0 1 6.867,3.083 c 0.084,0 0.158,0.028 0.235,0.09 a 0.68,0.68 0 0 1 0.199,0.271 c 0.053,0.12 0.08,0.24 0.089,0.382 v 10e-4 c 0.003,0.06 0.003,0.115 -0.002,0.17 z"
         id="path26616" /><path
         fill="#202020"
         d="m 7.806,4.335 c 0.01,0.034 0.065,0.029 0.097,0.045 0.027,0.014 0.05,0.045 0.08,0.046 0.03,10e-4 0.076,-0.01 0.08,-0.04 C 8.068,4.348 8.011,4.323 7.975,4.309 7.928,4.29 7.868,4.281 7.824,4.306 7.814,4.311 7.803,4.324 7.806,4.336 Z m -0.322,0 C 7.474,4.369 7.419,4.364 7.388,4.38 7.36,4.394 7.338,4.425 7.307,4.426 7.277,4.427 7.231,4.416 7.227,4.386 7.222,4.348 7.279,4.323 7.315,4.309 7.362,4.29 7.423,4.281 7.467,4.306 c 0.01,0.005 0.02,0.018 0.017,0.03 z"
         id="path26618" /></g><g
       style="fill:none"
       id="g26688"
       transform="matrix(2.0257413,0,0,2.0257413,87.932658,39.785873)"><path
         fill="#f35325"
         d="M 1,1 H 7.5 V 7.5 H 1 Z"
         id="path26670" /><path
         fill="#81bc06"
         d="M 8.5,1 H 15 V 7.5 H 8.5 Z"
         id="path26672" /><path
         fill="#05a6f0"
         d="M 1,8.5 H 7.5 V 15 H 1 Z"
         id="path26674" /><path
         fill="#ffba08"
         d="M 8.5,8.5 H 15 V 15 H 8.5 Z"
         id="path26676" /></g><g
       style="fill:none"
       id="g26779"
       transform="matrix(2.0257413,0,0,2.0257413,161.44428,39.785873)"><path
         fill="#000000"
         d="M 10.167,3.242 C 10.602,2.719 10.909,2.002 10.909,1.284 10.909,1.179 10.901,1.082 10.879,1 10.175,1.03 9.329,1.47 8.819,2.069 8.422,2.517 8.047,3.242 8.047,3.96 c 0,0.112 0.023,0.217 0.03,0.254 0.045,0.008 0.12,0.015 0.188,0.015 0.636,0 1.43,-0.419 1.902,-0.987 z m 0.495,1.144 C 9.605,4.386 8.744,5.029 8.197,5.029 7.606,5.029 6.842,4.423 5.913,4.423 4.168,4.423 2.4,5.866 2.4,8.58 c 0,1.697 0.652,3.49 1.46,4.642 C 4.557,14.193 5.164,15 6.04,15 c 0.869,0 1.251,-0.575 2.33,-0.575 1.093,0 1.333,0.56 2.292,0.56 0.95,0 1.587,-0.867 2.18,-1.727 0.673,-0.986 0.95,-1.943 0.958,-1.988 -0.053,-0.015 -1.873,-0.755 -1.873,-2.833 0,-1.794 1.431,-2.6 1.513,-2.66 C 12.497,4.423 11.059,4.386 10.662,4.386 Z"
         id="path26770" /></g><path
       d="m -68.330107,42.949727 c 0.686,0 1.2421,0.556109 1.2421,1.242105 v 10.559747 c -1.1e-4,0.654812 0.50658,1.19128 1.14929,1.238697 l 0.0928,0.0033 10.56086,-10e-4 c 0.65482,-1.76e-4 1.19133,0.506471 1.23881,1.149169 l 0.003,0.09281 v 10.557266 c 0,0.685996 -0.55611,1.242106 -1.2421,1.242106 h -49.684863 c -0.686,0 -1.24211,-0.55611 -1.24211,-1.242106 v -23.59992 c 0,-0.685996 0.55611,-1.242105 1.24211,-1.242105 z m 91.296662,0 c 0.654817,0 1.191282,0.506703 1.238694,1.149406 l 0.0037,0.09269 v 23.599979 c 0,0.654815 -0.506701,1.191282 -1.149409,1.238697 l -0.09269,0.0035 h -49.684367 c -0.654806,0 -1.191269,-0.506704 -1.238688,-1.149406 l -0.0037,-0.09269 V 57.23454 l 0.003,-0.09281 c 0.04505,-0.610562 0.531558,-1.098339 1.14151,-1.145439 l 0.09729,-0.0038 10.562047,10e-4 0.09282,-0.0033 c 0.610563,-0.04504 1.098378,-0.53146 1.145537,-1.141408 l 0.0037,-0.0973 V 44.191804 c 0,-0.654815 0.506699,-1.191282 1.149402,-1.238697 l 0.09269,-0.0035 z m -50.938381,1.242725 c 1.094935,0 1.706045,0.663403 1.783928,1.344557 l 0.0067,0.08518 h -0.950665 c -0.01479,-0.139006 -0.181208,-0.58828 -0.836489,-0.58828 -0.5498,0 -0.968046,0.431902 -0.968046,1.170357 0,0.647853 0.420729,1.079756 0.979216,1.079756 0.563009,0 0.77533,-0.303429 0.845955,-0.708519 l 0.01175,-0.07711 h 0.950673 c -0.06333,0.92586 -0.681351,1.608464 -1.836797,1.608464 -0.935776,0 -1.937332,-0.6764 -1.937332,-1.918739 0,-1.243582 0.783126,-1.995689 1.95098,-1.995689 z m -18.818321,-6.2e-4 c 1.20758,0 2.03042,0.874976 2.03042,1.955972 0,1.080997 -0.90847,1.957214 -2.03042,1.957214 -1.1207,0 -2.03041,-0.876217 -2.03041,-1.957214 0,-1.080996 0.76699,-1.955972 2.03041,-1.955972 z m -2.83141,6.2e-4 v 3.911947 h -1.15421 v -3.911947 z m 18.995805,-4.96e-4 v 0.830296 h -2.417624 v 0.6764 h 2.219051 v 0.784373 h -2.219051 v 0.791823 h 2.468507 v 0.829053 h -3.618987 v -3.911945 z m -4.528951,0 v 0.830296 h -1.368914 v 3.081649 h -1.150488 v -3.076685 h -1.373884 v -0.83526 z m -24.303834,0 v 2.092493 c 0,0.630478 0.32019,0.874976 0.8489,0.874976 0.63047,0 0.84146,-0.291659 0.84146,-0.906002 v -2.061467 h 1.10829 v 2.266249 c 0,0.698736 -0.24698,1.645696 -1.95844,1.645696 -1.2473,0 -1.95223,-0.51878 -1.95223,-1.567508 v -2.344437 z m 4.86121,0 1.78096,2.40525 v -2.40525 h 1.06113 v 3.911945 h -1.09091 l -1.77228,-2.399045 v 2.399045 h -1.06485 v -3.911945 z m 11.72915,0 1.814467,2.40525 v -2.40525 h 1.083469 v 3.911945 h -1.113255 l -1.807021,-2.399045 v 2.399045 h -1.08595 v -3.911945 z m 18.573549,0 v 1.442157 h 1.711452 v -1.442157 h 1.15048 v 3.911945 h -1.155446 v -1.622116 h -1.706486 v 1.622116 h -1.149239 v -3.911945 z m -22.495519,0.962969 c -0.51753,0 -0.93826,0.410804 -0.93826,0.992879 0,0.583317 0.42073,0.999086 0.93826,0.999086 0.51878,0 0.93827,-0.415769 0.93827,-0.999086 0,-0.582075 -0.41949,-0.992879 -0.93827,-0.992879 z"
       fill="#003296"
       fill-rule="evenodd"
       id="path28038"
       style="stroke-width:0.621051" /><g
       id="a4f34631-b161-40df-bc77-9c0d0dc2fe82"
       data-name="图层 1"
       style="fill:#de0515;fill-opacity:1"
       transform="matrix(0.02829886,0,0,0.02829886,36.518044,43.684629)"><path
         class="e15b8226-9ee5-4330-8d02-e9c3d030c977"
         d="M 373.87,262.41 323,163.35 h 43.16 l 14.07,34 c 4.55,11.54 8.86,22.25 13.63,34.19 h 0.9 c 4.77,-11.94 9.32,-22.65 14.09,-34.19 l 14.08,-34 h 42.47 l -51.09,99.06 v 54.16 h -40.44 z"
         id="path6"
         style="fill:#de0515;fill-opacity:1" /><path
         class="e15b8226-9ee5-4330-8d02-e9c3d030c977"
         d="m 482.73,163.35 h 40.66 V 285.68 H 589 v 30.89 H 482.73 Z"
         id="path8"
         style="fill:#de0515;fill-opacity:1" /><path
         class="e15b8226-9ee5-4330-8d02-e9c3d030c977"
         d="m 618.38,163.35 h 40.67 v 153.22 h -40.67 z"
         id="path10"
         style="fill:#de0515;fill-opacity:1" /><path
         class="e15b8226-9ee5-4330-8d02-e9c3d030c977"
         d="m 697.9,163.35 h 41.33 l 42,73.32 16.59,34 H 799 c -2.26,-16.26 -5.44,-38.3 -5.44,-56.63 v -50.69 h 38.59 V 316.57 H 790.78 L 749,242.64 732.43,209.07 h -1.13 c 1.82,17.1 5.22,38.1 5.22,56.64 v 50.86 H 697.9 Z"
         id="path12"
         style="fill:#de0515;fill-opacity:1" /><path
         class="e15b8226-9ee5-4330-8d02-e9c3d030c977"
         d="m 860.83,297.42 22.93,-25.34 c 12,9.28 27.72,15.67 41.11,15.67 15,0 22,-5.15 22,-13.4 0,-8.86 -9.32,-11.74 -23.86,-17.29 l -21.58,-8.25 c -17.71,-6.37 -34.28,-19.77 -34.28,-42 0,-25.74 25.43,-46.33 61.32,-46.33 19.53,0 40.2,6.79 55,20.17 l -20.21,23.08 C 952.12,196.09 941.68,192 928.51,192 c -12.5,0 -20.21,4.53 -20.21,12.76 0,8.45 10.67,11.74 25.66,17.1 l 21.12,7.62 c 20.9,7.61 33.38,20.39 33.38,42 0,25.54 -23.61,48 -64.5,48 -22.02,-0.02 -45.64,-7.48 -63.13,-22.06 z"
         id="path14"
         style="fill:#de0515;fill-opacity:1" /><path
         class="e15b8226-9ee5-4330-8d02-e9c3d030c977"
         d="m 1009,239.13 c 0,-50.24 31.32,-78.66 77.44,-78.66 46.12,0 77.42,28.62 77.42,78.66 0,50.26 -31.32,80.33 -77.42,80.33 -46.1,0 -77.44,-30.07 -77.44,-80.33 z m 113.54,0 c 0,-29.64 -13.86,-47.15 -36.1,-47.15 -22.24,0 -35.89,17.51 -35.89,47.15 0,29.87 13.63,48.62 35.89,48.62 22.26,0 36.09,-18.75 36.09,-48.62 z"
         id="path16"
         style="fill:#de0515;fill-opacity:1" /><path
         class="e15b8226-9ee5-4330-8d02-e9c3d030c977"
         d="m 1195.31,163.35 h 107.88 v 30.47 H 1236 v 33.57 h 57.68 v 30.69 H 1236 v 58.49 h -40.66 z"
         id="path18"
         style="fill:#de0515;fill-opacity:1" /><path
         class="e15b8226-9ee5-4330-8d02-e9c3d030c977"
         d="m 1365.25,193.82 h -45.66 v -30.47 h 132.18 v 30.47 h -45.88 v 122.75 h -40.64 z"
         id="path20"
         style="fill:#de0515;fill-opacity:1" /><path
         class="e15b8226-9ee5-4330-8d02-e9c3d030c977"
         d="M 49.78,710.64 C 49.42,759.12 45.73,822.76 26.57,862.75 21,857.21 7,847.57 0,844.61 17.35,805.77 18.46,749.87 18.46,705.09 V 556 H 80 c -2.58,-8.89 -5.55,-18.5 -8.85,-26.67 l 39.81,-8.5 c 5.52,10.73 10.33,24.05 13.66,35.17 h 50.5 v 35.53 h -44.58 v 22.93 h 42.79 v 96.22 z m 122.44,93.62 c 0,9.25 1.11,22.6 2.58,30 -46.09,15.18 -56.42,19.25 -61.94,24 a 113.86,113.86 0 0 0 -6.67,-18.5 c -33.89,10.37 -42.75,14.43 -47.55,18.5 l -0.36,-2.2 c -1.48,-7.77 -7.39,-21.09 -11.44,-27 5.16,-2.95 10.69,-8.13 10.69,-21.81 v -91.07 h 28.76 v 30.35 h 22.13 v 31.85 H 86.29 v 36.25 l 19.9,-4.79 a 126,126 0 0 0 0.39,16.63 c 4.06,-3.31 7.75,-8.89 7.75,-18.5 v -90.28 h 29.12 v 28.84 h 25.07 v 31.85 h -25.07 v 34.41 z M 49.78,591.49 v 22.93 h 15.13 v -22.93 z m 15.13,55.14 H 49.78 v 31.82 h 15.13 z m 40.92,-55.14 H 90 v 22.93 h 15.85 z M 90,678.45 h 15.85 V 646.63 H 90 Z m 40.56,-31.82 v 31.82 h 15.13 V 646.63 Z M 256.28,793.9 c -12.16,28.5 -33.17,57.37 -52.72,75.15 -6.63,-7 -21.41,-19.62 -30.23,-25.55 18.79,-14.44 36.48,-37.73 46.44,-60.69 z m 92.56,-51.8 v 37.75 H 182.15 V 742.1 h 22.52 V 607.4 h -21.41 v -36.65 h 21.41 v -48.12 h 36.12 v 48.12 h 46.84 v -48.12 h 37.23 v 48.12 h 21 v 36.65 h -21 v 134.7 z m -108,-134.7 v 21.45 h 46.84 V 607.4 Z m 0,77.35 h 46.84 V 662.9 h -46.89 z m 0,57.35 h 46.84 v -22.94 h -46.89 z m 63.41,38.48 c 15.49,20.37 35,48.87 43.53,67.38 l -34.28,19.22 c -7.39,-18.5 -25.82,-47.73 -41.68,-69.58 z"
         id="path22"
         style="fill:#de0515;fill-opacity:1" /><path
         class="e15b8226-9ee5-4330-8d02-e9c3d030c977"
         d="m 699.7,783.92 h 19.16 v 33.66 H 699.7 v 50 h -31 v -50 h -37.6 v -0.36 h -14.38 c 4.08,-18.14 8.49,-46.26 10.71,-68.46 l 28,2.23 c -1.47,10.36 -3.34,21.81 -5.53,32.93 h 18.8 v -40.35 h -39.79 v -32.18 h 39.81 v -31.82 h 22.48 c -14.74,-11.84 -30.59,-28.87 -43.14,-47 v 55.51 H 612.3 V 634.4 a 170.67,170.67 0 0 1 -39.09,43.66 l 14,2.59 c -1.47,8.17 -2.94,15.94 -4.8,23.69 h 21 l 5.55,-0.73 17.68,4.07 c -8.1,78.47 -32.45,131 -72.62,159.14 -3.34,-7.41 -11.8,-20 -18.08,-26.28 14,-8.52 25.82,-21.45 35.76,-38.87 -6.27,-5.91 -13.63,-12.93 -19.91,-18.5 l 19.91,-23.69 c 4.44,3.35 9.22,7 14,11.12 A 293.15,293.15 0 0 0 595.34,734 H 573.6 c -7.38,22.21 -16.6,41.83 -28.4,57.37 a 148.56,148.56 0 0 0 -13.66,-14.43 v 1.48 h -20.27 v 38.48 l 21.38,-7 a 180.83,180.83 0 0 0 3.69,27 c -38.34,15.1 -46.83,19.19 -51.61,23.62 -2.58,-5.54 -9.61,-15.15 -14.74,-20.73 -29.87,12.6 -37.26,16.66 -42.06,20.73 -2.55,-6.66 -10.69,-17.38 -15.86,-22.21 5.92,-4.79 13.67,-15.55 13.67,-33.66 v -89.19 h 28.76 v 31.46 h 21.37 v 31.46 H 454.5 V 818 l 19.9,-6.66 c 0.36,5.19 1.47,11.85 2.23,17.75 3.3,-5.9 5.88,-14 5.88,-24.41 v -88.86 h 28.76 v 31.1 h 20.27 v 13.68 c 13.3,-21.46 21.77,-50 27.29,-79.56 a 139.5,139.5 0 0 0 -18,-20.37 v 50 H 418.71 c 0,49.6 -3.3,116.58 -22.85,159.13 -5.52,-5.9 -19.54,-15.55 -26.93,-18.5 17.35,-39.59 18.47,-96.58 18.47,-142.11 V 556.32 h 63.77 c -3.31,-8.89 -7,-18.5 -10.69,-26.28 l 34.28,-9.25 c 6.28,10.37 12.16,24.05 16.25,35.53 h 52 v 34.77 h -124.3 v 24.44 h 14.77 v -19.25 h 25.07 v 19.25 h 15.1 v -19.25 h 24.71 v 19.25 h 42.43 v 41.08 c 17.68,-8.89 34.64,-23.33 47.19,-38.85 h -38.37 v -34.44 h 22.88 C 568.8,571.12 560.3,555.2 552.19,542.64 L 580.6,530.8 c 10,13.32 19.18,31.06 22.85,42.91 L 581,583.32 h 31.3 v -61.05 h 35.76 v 61.05 h 32.1 L 656.2,573 c 7,-11.84 16.21,-31.46 20.62,-44.78 l 33.93,12.57 c -9.94,15.91 -18.79,31.1 -26.54,42.55 h 26.18 v 34.44 h -38 c 14,14.44 32.82,28.87 49,37 a 185.31,185.31 0 0 0 -22.85,24.8 h 1.11 v 31.82 h 16.21 v 32.18 H 699.7 Z m -281,-136.57 v 31.46 h 14.77 v -31.46 z m 39.84,0 v 31.46 h 15.1 v -31.46 z m 54.55,0 h -14.73 v 31.46 h 14.74 z"
         id="path24"
         style="fill:#de0515;fill-opacity:1" /><path
         class="e15b8226-9ee5-4330-8d02-e9c3d030c977"
         d="m 907.49,783.17 c -14,2.59 -28,5.18 -42.39,7.41 v 75.88 H 826 v -69.22 l -77.07,12.6 -9.22,-44.42 c 23.6,-2.59 53.84,-6.66 86.29,-11.12 v -39.6 h -35 c -12.91,0 -26.93,2.23 -30.23,5.58 a 394.35,394.35 0 0 0 -13.27,-37.4 c 8.11,-2.59 14,-12.56 21,-28.87 3.3,-7.77 10.68,-26.63 18.43,-50.32 h -42 v -41.46 h 53.83 a 385.5,385.5 0 0 0 8.86,-39.6 l 42.38,8.53 c -2.58,10.36 -4.8,20.73 -7.75,31.07 h 63 v 41.46 H 829 c -8.85,25.52 -18.79,50 -28,71.42 h 25 V 624 h 39.1 v 51.08 H 902 l -0.39,39.59 H 865.1 v 34.06 l 40.17,-5.55 z m 101,-118 c 0,11.09 -0.36,23.69 -1.47,36.62 12.52,57 38,106.58 83,128.43 -9.58,8.89 -23.24,25.52 -28.76,37 -33.54,-19.61 -55.67,-51.07 -71.16,-90.67 a 213.94,213.94 0 0 1 -68.21,91.43 c -6.64,-9.26 -22.13,-23.33 -32.46,-29.63 71.16,-54 77.43,-127.28 77.43,-174.29 V 647 h 41.67 z m -45.36,-51.44 c -8.83,30 -19.91,56.23 -34.29,77 -7.35,-6.66 -25.43,-20 -35.4,-25.53 25.07,-32.93 39.09,-87.35 45.73,-143.59 l 42,5.91 c -2.22,16.27 -4.8,31.46 -8.1,47 h 77.07 l 6.63,-1.48 29.13,7 c -7,36.65 -16.61,78.08 -24.35,104.75 l -35,-8.53 c 3.69,-16.27 8.11,-39.59 12.16,-62.53 z"
         id="path26"
         style="fill:#de0515;fill-opacity:1" /><path
         class="e15b8226-9ee5-4330-8d02-e9c3d030c977"
         d="m 1230,536.7 a 623.27,623.27 0 0 1 -36.12,78.83 v 251.65 h -41.67 V 681 c -7.39,9.26 -14.74,18.51 -22.13,26.64 -4,-11.09 -16.21,-34.77 -23.6,-45.89 32.46,-33.3 63.8,-85.85 81.88,-138.41 z m 223.46,206.51 H 1359 v 124.33 h -44.25 V 743.21 h -99.56 v -42.94 h 99.56 v -63.64 h -45 a 259.2,259.2 0 0 1 -22.88,47.73 c -8.1,-5.91 -27.26,-16.27 -38,-21.09 19.94,-28.87 35,-75.85 43.54,-121 l 42.39,8.89 c -2.94,14.43 -6.64,28.5 -10.69,42.55 h 30.6 v -67 H 1359 v 67 h 77.07 v 42.94 H 1359 v 63.64 h 94.39 z"
         id="path28"
         style="fill:#de0515;fill-opacity:1" /><polygon
         class="e15b8226-9ee5-4330-8d02-e9c3d030c977"
         points="420.44,465.87 215.66,239.97 421.4,14.06 434.72,0.86 298.78,0.68 120.85,186.92 121.5,0.3 9.69,0 9.05,478.67 121.29,478.76 121.5,477.7 120.85,291.08 300.28,478.9 433.49,478.96 433.44,478.92 1451.77,478.92 1451.77,465.87 "
         id="polygon32"
         style="fill:#de0515;fill-opacity:1" /></g></g></svg>
